<mxfile host="app.diagrams.net" agent="Mozilla/5.0 (Macintosh; Intel Mac OS X 10_15_7) AppleWebKit/537.36 (KHTML, like Gecko) Chrome/127.0.0.0 Safari/537.36" version="24.7.6">
  <diagram name="第 1 页" id="qVaGXSrJW2rdgh0DtLrj">
    <mxGraphModel dx="1306" dy="708" grid="0" gridSize="10" guides="1" tooltips="1" connect="1" arrows="1" fold="1" page="0" pageScale="1" pageWidth="900" pageHeight="1600" background="#4e4e4e" math="0" shadow="0">
      <root>
        <mxCell id="0" />
        <mxCell id="1" parent="0" />
        <mxCell id="vqLbyj1tlcazgdX1yOUi-4" style="edgeStyle=orthogonalEdgeStyle;rounded=1;orthogonalLoop=1;jettySize=auto;html=1;exitX=1;exitY=0.5;exitDx=0;exitDy=0;entryX=0;entryY=0.5;entryDx=0;entryDy=0;fontFamily=Helvetica;fontSize=20;fontColor=#ffffff;fontStyle=1;labelBackgroundColor=none;strokeWidth=3;endArrow=classicThin;endFill=1;flowAnimation=1;strokeColor=#ffffff;textShadow=1;" edge="1" parent="1" source="vqLbyj1tlcazgdX1yOUi-2" target="vqLbyj1tlcazgdX1yOUi-3">
          <mxGeometry relative="1" as="geometry" />
        </mxCell>
        <mxCell id="vqLbyj1tlcazgdX1yOUi-2" value="www.mypage.com" style="shape=image;verticalLabelPosition=bottom;labelBackgroundColor=none;verticalAlign=top;aspect=fixed;imageAspect=0;image=data:image/png,iVBORw0KGgoAAAANSUhEUgAAAQAAAAEACAYAAABccqhmAAAAAXNSR0IArs4c6QAAEcNJREFUeF7tnW2MXGUVgM+Z3b1bihJjNGplZwtSdgYMSmhFJYY28Sv+wMSoMYJRFDWYKGrUoH9afihGjd/fHxFRYtQY4tcPg0kbIpiGgtZQd9aStnu31ugPIwYse2d3Xh0EDXV33jv3Y+497332J3PO+57znLNPd2dnGBW+IACBxhLQxnZO4xCAgCAAlgACDSaAABo8fFqHAAJgByDQYAIIoMHDp3UIIAB2AAINJoAAGjx8WocAAmAHINBgAgigwcOndQggAHYAAg0mgAAaPHxahwACYAcg0GACCKDBw6d1CCAAdgACDSaAABo8fFqHAAJgByDQYAIIoMHDp3UIIAB2AAINJoAAGjx8WocAAmAHINBgAgigwcOndQggAHYAAg0mgAAaPHxahwACYAcg0GACCKDBw6d1CCAAdgACDSaAABo8fFqHAAJgByDQYAIIoMHDp3UIIAB2AAINJoAAGjx8WocAAmAHINBgArUSwJH5mUunB63dA3G7VOVCEXmWiGxr8HxoPVwCiYicciJ/VnEHVeS+tUH/FxeflL9NsuXaCGCpHX3YiXxERJ40SQDcBYG6EFCRI07l5s5yctukaqqFAHrt6Ici8rpJNc09EKgzARX9xkK8+o5J1Fi5AHpzM38V1adPolnugIAZAs4d6Kz095Rdb6UC6LWjRRHplN0k50PAIgEnclM3TvaVWXtlAlhqz37NiZvIjzllAuRsCJRJwIl7Zzfuf72sOyoRwGJ75jIVPVRWU5wLgYAI3NuJk51l9VOJAHrtmc+K6A1lNcW5EAiJgIp780Lcv7WMnioSQHRcRLZ7G3LugDeGAAhYJ6C6e1QLqnL7wnLymjLanLgAFs+d3q2t1n5fM865a7sr/Vt8cTwOAesE/tieffdA3OdH9dGJk1K+V0s5dFQjvXZ0jYh81ze0shr23cvjEKiCQK8duVH3Tq1Pze340+mTRdc2cQEstaMbncjNvkYQgI8Qj4dEwCcAp4MXd5fXflN0zxMXwGI72qcie32NIAAfIR4PiYBXAIPBnu7JtcKfE0MAIW0RvZglgADOGB0/AZjdZQrPQAABIIAMa0NKKAQQAAIIZZfpIwMBBIAAMqwNKaEQQAAIIJRdpo8MBBAAAsiwNqSEQgABIIBQdpk+MhBAAAggw9qQEgoBBIAAQtll+shAAAEggAxrQ0ooBBAAAghll+kjAwEEgAAyrA0poRBAAAgglF2mjwwEEAACyLA2pIRCAAEggFB2mT4yEEAACCDD2pASCgEEgABC2WX6yEAAASCADGtDSigEEAACCGWX6SMDAQSAADKsDSmhEEAACCCUXaaPDAQQAALIsDakhEIAASCAUHaZPjIQQAAIIMPakBIKAQSAAELZZfrIQAABIIAMa0NKKAQQAAIIZZfpIwMBBIAAMqwNKaEQQAAIIJRdpo8MBBAAAsiwNqSEQgABIIBQdpk+MhBAAAggw9qQEgqBZgnAuSt9g+us9Pf4YngcAqEQaIwAQhkYfUCgSAIIoEianAUBYwQQgLGBUS4EiiSAAIqkyVkQMEYAARgbGOVCoEgCCKBImpwFAWMEEICxgVEuBIokgACKpMlZEDBGAAEYGxjlQqBIArUSQK8dvVZEdoq4XSK6S0SeXGSzls5SkQdF5K6ByD0tlcMLy8ntluqnVhsEaiOA3vzsl8W5621gm3yVzsn3uyvJGyd/MzeGTKByAdx//pb2zNr6N53oy0IGXUhvTv7YWUkWCjmLQyAgIpULoNeOfikiL2ca6QioyLGFOHlOumiiIDCaQKUCWGzPvFNFv8qQxiTg3PWdlT7cxsRG+P8TqEwA9z1Tnr41iu4SkR0MZnwCTgdXdJfX7h4/kwwI/I9AZQLozUdXi5PvMYysBNznOnH/vVmzyYPAkEBlAlhsRzeryI0VjeEhce5Q7rtVL6vwT5U/68TJVbl74IBGE6hQADN3qOhLq6DvBoM93ZNrB/LevXju9G5ttfbnPSdLvoocWYiT52bJJQcCjxOoTAC9djR8ocs5VYyiKAEcbUcXrYscqaIHFTm9ECdbq7ibO8MhUKUAXJUYnchNee9Xkb15z8iT34kTzZNPLgQaK4AQRo8AQphitT0ggGr557odAeTCR3KVfwXwmYfp+AkgAD8jIkYT8H0fFvV82ZlVqO9iBucngAD8jIgwJoBHn5wbDHL/iS6UwavqXlHdvVE/CCCUKVfXh+8f4on/BDAUQDdO9lWHpF439+Zm9iOAes0kpGoQQM2niQBqPiDj5SGAmg8QAdR8QMbLQwA1HyACqPmAjJeHAGo+QARQ8wEZLw8B1HyACKDmAzJeHgKo+QARQM0HZLw8BFDzASKAmg/IeHkIoOYDRAA1HxDlZSKw6UuBeSHQE3kigEz7RVLNCSCAlANCAClBEWaKAAJIOS4EkBIUYaYIIICU40IAKUERZooAAkg5LgSQEhRhpggggJTjQgApQRFmigACSDkuBJASFGGmCCCAlONCAClBBRB29Nlnnbs+tf4iJ3JxAO38rwWnd89OTx8+//jDf3n8PyKAlBNGAClBGQ4bfuOvTa+9X52+z3Ab3tKdus9Mr01/esefTp9EAF5c/wlAAClBGQ1b2iZPc1PRr0TleUZbGLfsuztxcgUCSIkNAaQEZTRsaS76sVN5jdHyM5U9fLUvAkiJDgGkBGUw7OgFcs568uhH5DXqS1UOIoCUI0cAKUEZDKvyw2WrxoUAUk4AAaQEZTAMAWwwNN4N+EQoCMDgd3bKkhEAAvCuCgLwIjIbgAAQgHd5EYAXkdkABIAAvMuLALyIzAZsJoCyPo6rClCL7Wifiuw9826eBEw5DQSQEpTBMATATwDetUUAXkRmAxAAAvAuLwLwIjIbgAAQgHd5EYAXkdkABIAAvMuLALyIzAYgAATgXV4E4EVkNgABIADv8iIALyKzAQgAAXiXFwF4EZkNQAAIwLu8CMCLyGwAAkAA3uVFAF5EZgMQAALwLi8C8CIyG4AAEIB3eRGAF5HZAASAALzLiwC8iMwGIAAE4F1eBOBFZDYAASAA7/IiAC8iswEIAAF4lxcBeBGZDUAACMC7vAjAi8hsAAJAAN7lRQBeRGYDEAAC8C4vAvAiMhuAABCAd3kRgBeR2QAEgAC8y4sAvIjMBiAABOBdXgTgRWQ2AAEgAO/yIgAvIrMBCAABeJcXAXgRmQ1AAAjAu7x5BTBcMu8lBJRGoHty7cBmhyMABOBdvCIEoK3Wfu9FBJRCoBMnigD4ZKDMy4UAMqOrRSIC4KPBci0iAsiFr/JkBIAAci0hAsiFr/JkBIAAci0hAsiFr/JkBIAAci1h0AJw+i1tyW9F5NhA3FZ1OqfirnMiF+eCVqNkBIAAcq1jsAJw+urOyupPN4LTa0eHROSyXOBqkowAEECuVQxSAKpf6SyvvmsUmFF95wI64WQEgAByrVyAAjjViZNn+6AcmZt+yZS27vTF1f1xBIAAcu1ogAL4WSdOrvJBWdy+ZbsOBsd9cXV/HAEggFw7GpoAnMhN3TjZlwZKrx25NHF1jkEACCDXfoYmABH5ZSdOXumD8sC5sxestdxRX1zdH0cACCDXjgYogH8k0rr0kviRY6OfBJy9StT9JBe8GiQjAASQaw0DFMCQxw86cfKGkQJoR7GIzOWCV4NkBIAAcq1hoAIQ59y13ZX+LWfCOdqOLhqI/DCUFwMhAASAADYhoCL3DJw7KC3dL849TV3rBaruaieyJRe0GiUjAASQax1D/QkgFxRDyQgAAeRaVwSQC1/lyQgAAeRaQgSQC1/lyQgAAeRaQgSQC1/lyQgAAeRaQgSQC1/lyQgAAeRaQgSQC1/lyQgAAeRaQgSQC1/lyQgAAeRaQgSQC1/lyQgAAeRaQgSQC1/lyQgAAeRawkIEoLo3VxEkZybQWenv2SyZTwbagMw47xfPPBVDiXkFYKjVxpWKABCAd+kRgBeR2QAEgAC8y4sAvIjMBiAABOBdXgTgRWQ2AAEgAO/yIgAvIrMBCAABeJcXAXgRmQ1AAAjAu7wIwIvIbAACQADe5UUAXkRmAxAAAvAub90FMFzi1lTr487J5d5mJhPwOxH5WCdOfjSZ67LfggAQgHd76iyAE/Nbn/WIWxt+kOc2byOTDXjI6eAV3eW1uyd77Xi3IQAE4N2YOgtgqT3zJid6q7eJagJu68TJNdVcne5WBIAAvJtSZwEstjd+o4e3qUkEOHdg1OvwJ1GC7w4EgAB8OyIIwIto4wAEkBFcsWmb/SOhm33wI28GeuIAEEDGhUQAGcEVm5ZJAMWWYPs0de5KUd29URej3ms+ia75FSAf5c1+Bch3qo3sTX8CsFF+PapEACPmYPgngHpsV7lV1F0AK6pyyjnZISJPLRdF9tMRAALIvj3VZtZWAG4w2NM9uXbgcTyL7ZnPq+i7q8W18e3jCODwM+TsLdHMRQPnzi6sl1Zrt4rU8/825NwB59xNhfU64qDpKX3wwX5/aecp+ec49/ErwDi0JhDbEn3PhfHqF868qjc/+0Fx7hMTKGGsK9IKILRP3B0L0uSCT4jTGzorqz9Ne2VVAlCR0yJybFhnVZ/CXLufAFTl4MJy8sKNhrfYnrlMRYeveKvVVxoBHNomW580Ha3U+VeZWkHNV8y9nTjZmfaIKgSgzn1xan36ExecOj3cCem1p68QaX1IRK5KW3cRcUMBPCgi5xRxWBFn+P78uNmfLYu4O+MZD3Xi5Mm+3KPzM5euO73PF8fjxRBw4nZ24/69aU6rQAAbvjryt9vlKWcNov0i8vw0dRcRo4vtmTtU9KVFHFbEGSpyZCFOnrvRWY9Z8tdF3FPUGSp650K8eqXvvAqWzFdS0I+f+RzSqGYrmM3rN3uTVG8u+paovHVSw9HFdnSzitw4qQvT3OPEfaEb999zZmxvbvabou5tac6YXIz7XCfuv9d3XwVL5isp6McRQLrxam8+ulqcfC9d+ASjVD+0roM75OH+A62t05foQD+62QtxJljV/13lxL2lG/e/46sBAfgIFft4zQVQn18Bjp139jOS9f5BEZkvdgSNOG05mpq5/PzjD//F1y0C8BEq9vGaC0Bq8yTgEPvi/OwH1LlPFjuC8E9zqh/sLq9+Kk2nCCANpeJixhHA8M+z6yJHirs93Uk1+DPg33RY6vHtsmXVRQfFySXpSidKVH4/q8nl552QR9LQeGDbWXNr0+txmlhi8hNwrdZ53ROPnEh70lI7ur+qv8WnrbGEuNseFcDwa2l+9lXOuS+JyPYSLgrtyJMt0esvjFd/Pk5jo95ROM45xI4moCK3LMTJteNwWpqfuc45/cY4OdZjVQYv+a8Ahs089nzA8FeBN1lvrsT6f7RFp2/YvvzPP2e547F37u369ysat2bJJ2cEgZb+3Tk53I2TfVk4PTab99XpdTFZ+kiR8w8n8pkhpycI4PHEXjt6rYjsFHG7RHSXiHhf6JLiUpMhKjJ8odRdA5F7WiqHF5aT2002QtGpCPzn+QD3dpFH3/o9sRfkpCoub5BzB0T00JTKt3fEyR+Gx20ogLz3kA8BCNgggABszIkqIVAKAQRQClYOhYANAgjAxpyoEgKlEEAApWDlUAjYIIAAbMyJKiFQCgEEUApWDoWADQIIwMacqBICpRBAAKVg5VAI2CCAAGzMiSohUAoBBFAKVg6FgA0CCMDGnKgSAqUQQAClYOVQCNgggABszIkqIVAKAQRQClYOhYANAgjAxpyoEgKlEEAApWDlUAjYIIAAbMyJKiFQCgEEUApWDoWADQIIwMacqBICpRBAAKVg5VAI2CCAAGzMiSohUAoBBFAKVg6FgA0CCMDGnKgSAqUQQAClYOVQCNgggABszIkqIVAKAQRQClYOhYANAgjAxpyoEgKlEEAApWDlUAjYIIAAbMyJKiFQCgEEUApWDoWADQIIwMacqBICpRBAAKVg5VAI2CCAAGzMiSohUAoBBFAKVg6FgA0CCMDGnKgSAqUQQAClYOVQCNgggABszIkqIVAKAQRQClYOhYANAgjAxpyoEgKlEEAApWDlUAjYIIAAbMyJKiFQCgEEUApWDoWADQL/AlP3Uxz53QjMAAAAAElFTkSuQmCC;fontStyle=1;fontSize=18;fontColor=#ffffff;rounded=1;textShadow=1;" vertex="1" parent="1">
          <mxGeometry x="150" y="70" width="70" height="70" as="geometry" />
        </mxCell>
        <mxCell id="vqLbyj1tlcazgdX1yOUi-6" style="edgeStyle=orthogonalEdgeStyle;shape=connector;rounded=1;orthogonalLoop=1;jettySize=auto;html=1;exitX=0.5;exitY=1;exitDx=0;exitDy=0;entryX=0.5;entryY=0;entryDx=0;entryDy=0;strokeColor=#ffffff;strokeWidth=3;align=center;verticalAlign=middle;fontFamily=Helvetica;fontSize=20;fontColor=#ffffff;fontStyle=1;labelBackgroundColor=none;endArrow=classicThin;endFill=1;flowAnimation=1;textShadow=1;" edge="1" parent="1" source="vqLbyj1tlcazgdX1yOUi-3" target="vqLbyj1tlcazgdX1yOUi-5">
          <mxGeometry relative="1" as="geometry" />
        </mxCell>
        <mxCell id="vqLbyj1tlcazgdX1yOUi-8" style="edgeStyle=orthogonalEdgeStyle;shape=connector;rounded=1;orthogonalLoop=1;jettySize=auto;html=1;exitX=1;exitY=0.5;exitDx=0;exitDy=0;entryX=0;entryY=0.5;entryDx=0;entryDy=0;strokeColor=#ffffff;strokeWidth=3;align=center;verticalAlign=middle;fontFamily=Helvetica;fontSize=20;fontColor=#ffffff;fontStyle=1;labelBackgroundColor=none;endArrow=classicThin;endFill=1;flowAnimation=1;textShadow=1;" edge="1" parent="1" source="vqLbyj1tlcazgdX1yOUi-3" target="vqLbyj1tlcazgdX1yOUi-7">
          <mxGeometry relative="1" as="geometry" />
        </mxCell>
        <mxCell id="vqLbyj1tlcazgdX1yOUi-3" value="" style="shape=image;verticalLabelPosition=bottom;labelBackgroundColor=default;verticalAlign=top;aspect=fixed;imageAspect=0;image=data:image/png,iVBORw0KGgoAAAANSUhEUgAAAQAAAAEACAYAAABccqhmAAAAAXNSR0IArs4c6QAAIABJREFUeF7tfQmYHFW1/+9UT2YCyXR1AgQXUB/kCRi2dE2IiEIgIiIIJOnqsDwUERfkgc+FCD4QhMdDwRVUBDdEENLVSQRFZBEiPiIhXR1FAvJnU+Fji2SmehLJMl3nT82CIcxM13JvVXX3re+bL9+XPud3zvnd27++VXUXgroUA4qBtmWA2rZyVbhiQDEAJQCqEygG2pgBJQBt3PiqdMWAEgDVBxQDbcyAEoA2bnxVumJACYDqA4qBNmZACUAbN74qXTGgBED1AcVAGzOgBKCNG1+VrhhQAtDCfYA/bkxY27uxa+LApK5NXVu6JtQndA249a5Mh9uloaOTXLfLK581bVNmoL7J1bRN9czApoHNmU2dmc5NL0/csOmRp6duOnT58oEWpqmtS1MC0KTN32/O3KmuabtqLu3CzLswYVdi2oWId2FgVwC7ABj8ggu4agQ8zcAzg3/Mz2RIe5rJfUZjfnpzZ+czO9ywsiYgjoKImQElADETHiZcbeEBb2d2DQIbYBgMGAC6w2DJ8iHgWYDsOrvVDFDJuGRPWmo/JyuewhXDgBIAMTwKQ+mdP/OtWkfmXWn+svstdkQUmF2bAHvT5u1+t9Mt9/X79Vd28hlQAiCf43EjvGjOekMX8aEMPowYcwBMTzglyeF5BRh3uBrdm+ON95G1ZrPkgAp+HAaUAMTcPdaZht7B/B6XtIMJ/B4A74w5hTSFW0/AnSCsgKutyJZXrUhTcu2QixKAmFq5ZvYc47J7LBEdA2DHmMI2W5hHifhmQLslW6rc12zJN2O+SgAktlqt2HMQ4B7DTMcC2ENiqFaEvo+ZbtEIN2etyqOtWGAaalICILgVambPHi7jWCL2fukPEgzfpnB8C5F2MzJ8S/ZG+x9tSoKUspUACKK1r9izgFwuglAUBKlgXs/Aixpwo6vxTfri6v2KoOgMKAGIwKFj5qcztIUAFwnYNwKUcg3IAIF+yeCbsjPsm+hCuAHdlfkwA0oAQnSFWiF/NBOKBCqyuNl2ITJRLgSsYcZNIL5Jt6qPK0aCMaAEIABftaLxYWY+A6BZAdyUaQwMEPAyA9eSiyuyS+y/xBCyJUIoAfDRjN4vvkt0FgGH+zBXJsky4IBwpcbuFd3W6rXJppL+6EoAxmkjZ2H+najTWSCckP6mVBluw8CTAK7IzrCvVM8Ixu4bSgBG4cZZsP+/Q9POAug/1deq2RngVSBcoZeq1zd7JTLyVwKwFauPHTm9a8dJ2XM1ojNf+fWYKoNwhZkUA3wbM389V17926QySGNcJQDDrdJr5udpoHMAHJDGhlI5CWPgG9SBS9WEoiE+214A+hbM2k0j9xwmfExYF1NAaWfgL2C6VC9Xrkt7orLza2sBcIr5M4jpXAbeLJtohZ9GBmixq9UvnbJ49Z/SmF0cObWlANRM490MnAvgA3GQrGKklwEG+sG4NFe2L01vlvIyazsBqJn5sxl0mTxKFXKTMnBnBtqiydaqPzZp/qHSbhsBeGn+7F06MgNfBXBiKKaUUzswsJbAi7JW9dp2KLZtHgIOzd0f/NXfq10aVtUZgQHGFdkNziK67fFNEVCawrXlRwBOwTgPhIubojVUkqlhgEH3ksuL9CX2ytQkJSGRlhWAjQtm7bZZq1/GoAUSeFOQ7cFATWNa1F2uXN2q5bakAHhbcTHzj9Q2XK/rtt66+Zr35JuAGkDDh3lwloEsDZ01kAWgtWqHD1UX4wq9bH86lG/KnVpOAGpF4zhmlAFkUs696PReAOhJMJ5gjR8ixkPQtBe3DLj9PMGtcX1zbZq1Zr2foC+aMyZTpjNLW7TshA6tG647jYj3Y5f2I8J+3J77G956O3Y7tmhZdT8cNotNSwlArWCcxoQfNAv5UfJk4K8EfIuIn9xcp8d2jHEN/IbjZ75py4C2NxP2JuYZRLQ3gBkAJkWpqQl8/8KudlRuySpvpWFLXC0jALVCzyVM/MWWaBUfRTDRT3Klyqk+TGMxccz8lW2yenKLSzhiSsm+JxZiJQdpCQFwzPydAL1XMlcpg6cP6VblZ2lJqs/MLyTQTWnJR3YeBP5IK8wXaGoBKJlm5gg8uW74wZXsNk8T/t8m1Dvevf3Slc+kJakN8403DmTgnezztrTkJDsPl/nLU8rVC2XHkYnftAKw9piDuju7NrblkdQEuiZrVT4hs2OEwXaKxvVgnBTGt1l9GHR5zqosatb8m1IA1p8we+f6wMDzzUp65LyJTtRLlRsj4wgG6CsanyTGVYJh0w/H9F29XGnK3aOaTgC89fukuU+kv1dIy/DZTdCMadaq1Alg30Jjd3JhA9ClVZ9e4Gt1y/5IetMbPbOmEoD+hT17uy7/udlIFpkvMf84W65+VCSmSCzHNG5t22XWjJJetheK5FM2VtMIgLPAmA0NbX8cFBMvzJWqJdkdIyx+rWB8jglfC+vfAn636pZ9dLPU0RQCUCvk38NE9zYLqQwsI2CehHzX0kBmr+yyB16SgC0Ecr1p7FMHHhQC1qQgBNyTtezDmiH91AtAbYGxJ2t4pBnIBKOUYb7E1egOBnYWnzP/TLeqHxKPKxbRMY3fA3i3WNTBDSxvZeAdAP5NNLZoPCK+OluqflI0rmi8VAtAbd4BO3BH/TkAE0QXLhKPgIe3wDV3sFY/LPVJOPN/6OXqDSJzl4HlFI3zwbhIAvYmgPcG0VlgeFu3p/yiM3Wr8p00J5lqAXBMw3vav1taCSRgI4O/rlvV80ZydIrGT8GQ8Std76hj10lLbU8QU329ZM48sAOaNylI+MWE03Ml+/t9Zs/hBP6SjJGGyKTT/swmtQJQM/PLGXSIyMYQisW4MUsbP05brbB72Tzg3zaj/jsAuwqNBYCBu3OWPVc0riw8xzT+BuAtovEJKGct2xzBrRV6FrnEFxCwvehY4vD4SN2q/kYcnjikVAqAU+j5GYj/Q1yZQpFWMuPrubJtbYvqFPIngUjKEVTNNu3UKeZvBNPxQpkfAuvryLgzJt20+tkR7HUL8vtmNO2LAKf1FVx9gLWDdyivkjIqisJx6gSgzzQufWVo7Z3Qk7ZrAxMuzpVsb2PRUS+n0PMdkHd8uPhLA8/ttqp3i0eWg+gUjDO9M/mkoDN9eLRDPXrN/CkayFsR+u9S4kYDfayu0fypiysPRYMR650qAXDMnpMBTuNpLSuJ6HPZUuW+sejvN2fu5A7d904X20SDaLXsFOxI19hbJGBLgexdOHM/zdUkbbE99tuQF81Zb+gi94spfUh4h27ZR0ghPCRoagRg/YL8vnWN7oCU12ch2fHuvZl/zAPu56b84o9946HUzJ5jGHxz+EhjezLwi5xly5hXICPdVzEd03gcwO4SgjyX7ezYk25YOeZiMKkjkAgFMeNrubJ9dgQIoa6pEQDHNG4H8D6h1UUFI/qsXqp80w+MU8h/A0Sf8WMb3Cb9r5NGq8kx89cBdHLweht7MMjMWRVv67cxr36zp+CCrwEwpTFinBbp2cshFQLQVzAuJ8Ln42yCRrEY9L6cVbmzkZ33OZ8yZ2JtQ7+3CMabpCL8qru839Ql1aabXddb7DlVG9qcVfjFoGtyPpZED9+K/FxW24Qs7IWMy++bnII2TVwA0nbfT8CaTB2HB3nf3l80DnUZsh7QPadb9ptCdrRE3daZxlsygPc6UMb1RBa77UE+N+l0zJ67AE7Ta9RUPA9IVABSd99PuE4v2R8O2lv7CsZXiPCFoH6+7Ak36CU7ra9EG5bgmIY3jXvPhoahDIK9X0/b6+U0PA9IVABSdd/POEsv21eG6Yd9prGagP3D+DbyIeZTs+XqTxrZpfVzp2h8F4xPScmP+Zt6ufrZINhO0fCmEX87iI9c22SfByQmAGk6sovZfW+uvPq3YRq6Vpj1LiZ3zNeDYTC39mEN03OL7abdAKXXzM/TQEuj8jCaPwEPZS17n6DYaVpazsCT9XrHITsktL9jIgIw3ADelNmuoI0n2j5DdOLkCNtrOabxZQDenHQZ11rdsqfJAI4Lc/C9PFxp6xeI+eBsueqtPgx8OabBgZ0kODDx1bmEVg4mIwCm8UsAyW+awPwZvVz9VpQ2dcyeFQAfGAVjbF++Rbeqx8rBjg9V1rqAwQoYF+tlO5QArzMNPQOMO78jLpaYqJArVZbEFW8kTuwCkJZ7MAK+krXsc6MQ3j9v32luxwTv103KWXoEnJu17K9EyTENvjUzX5Z4SOv9umWHFmDJbyp808/AH+udHYfsMM7kJt9gAQxjFYD+hfm9XJe8of9OAXIUbypoF1fHNI4C8CvxCQ4hukyHTilXlsvCjwu3r2h8gRjyhMytv11f8sfHwtaTll2MkthiPFYBcEzD28zixLANJcJP5J76TiF/AYikHQyRXe9MpNse3ySi7iQxJM+TADM+livbP4xSY8003s1AqGcJUeJu6xtkApqIuLEJQM3Mn8KgRF9niT5PzzENb423rMUdVd2yDRGNnDTG8EKpF+XlIWarNNkjOj/1M+jenFWJbR+MWASAjzmou9a18Q/DJ8j64UG8DdP1erkibF46z5nT0b9Tf42B7cQnC28DvO/pJVvK0mIp+TYArZnGmuH9/GSE/5tu2UKOJHNMwxuhJrrtmkv02Sk+16BEJTMWAXBMw3tK670uS+iixbpVEbo5Rc2ceSBL2vZqkCTik/VSVcrmIkk0glMwrgUh8CxLv7l2aDAmLbarfu3Hs+szjdMJ+J4IrJAYf+/IuAduvelJSJyGbtIFYHhXX2+dfEIrsqgy0JmZK/rpquz975t9AtC2Pc8p5s8Ak7QNMgm8KGtVL2/Y430a9JnGOQRc6tNcuFlc04TlC0Ax/31mSu4gS+L366Wqt9RY6FUz8zcz6BihoP8Ca/oJQNvy0lvomaMR3yOJL2/PxDtygjfb6CsaPyDGabJyboBbh6YdqC9etUpmfKkC0G/mD3NBoabYiiha5j56jmn0AsiJyHMUjKY6XcYPB/IfBGKzbtlCZ5Z6OTO0uxjY10+Nom2YcWOubEt9ayZVAJxkZ/zdrlv2+0U3iodXM3v2YPBfZGB7mMz4aq5sp3FfxEglO2b+AYBmRQIZx1nGvIl1hfzRGSJv5moiFzEdly1XpOw05RUkTQASXudfY9edm1uyuiKj1WTu/juYb5McABKUW6krA73OTDg7W7KFn0voFIyLQDg/aL0i7An8u6xVnSMCazQMiQIgV+3HJSTC0l4/RPcXe77pMv+XH9swNhnN3X/y4tV/CuObZh+nYHwKhO/Ky1H8256RXCXP+WjQnem0nFWRsrOSFAHoL+Tnu0SxL2wYZvHnumWfJK+TAX2mUSFA1iSd/ix2m+J3pxuZdYrGlv0gEMCTumXL2IQUfWbeINBdEp/7jEm3zFGAFAGQvPhjvH75FCMzN2c98JTozrs1nuRlpA/olj1bZv5JYQ8/CHwSwGRZOeiWLaVPe/kmOT+AmD+YLVeFrzsRTtaGBTN7BjRN6quLcTrPSbplextASrvWmcY+GZnHX4fclkxawYKBa6ZxDwPS7mmh8YH64ur9gtN+FU72hKax8magnNvqSDRR9QkXAMc0vPX1nxaVoG8cwpV6yT7Lt31Iw1oh/xEm+nFI94ZuDJyba4ElwGMVKvtBoMv4/JSy/fWGRIc02HD8zDcN1DXvVmCvkBCh3TS4M7qt1Q+HBhjFUagAyF4fP1bhBDybqaMnyE6+YUnsMw3rla2oCmH9G/nJfu3TKL7sz2U/CCTQ0qxVWSCzjlrROI4Zy2TGGA1bA77dbdlCHz4LFYBa0fgCy1z3PQbjMif8bBuyzzQ2yDqJloA6g/fUrap3ok5LXrIfBBLwTNayhZ/OvHVjrD3moO6uro0PM7BLzI3Un53UPY2uXb5RVFyhAtBnGs8Q8GZRyfnGkTTdd7T4kh8ArtEte2/fdTeh4fCDwDUyN4WR+SBwhHKnYPwchBNibwLCp/WSLezQVWEC4Cl77GQMB3S7MlXRi31GqyWOGlthB6BG/cB7ENjIJsrnrobTZO+kHEdfGIsDkX1EmABEaTDlqxhQDCTDgBKAZHhXURUDqWBACUAqmkEloRhIhgElAMnwrqIqBlLBgBKAVDSDSkIxkAwDSgCS4V1FVQykggElAKloBpWEYiAZBpQAJMO7iqoYSAUDSgBS0QwqCcVAMgwoAUiGdxVVMZAKBpQApKIZVBKKgWQYUAKQDO8qqmIgFQwoAUhFM6gkFAPJMBBaANYt7Nk74/Kfk0nbV9S/AniYGA+7Gp4AtMdzpVXeTi6pvKJsldVZd9+23dLVf4uzsN5C/kKN6IIwMWXs398oj6HVe25iK1Yb5Rfl8wGXrt5pqf1cGIzQAtBv5he6oJvCBE3Kh0C/BLvXyNhcMWpNUQSAgB9lLTvWI6yaUQBkHk0Wtf0j+RMdpZcqvw6DEVoAnKJxMRjnhQmatI8nBOzyJfoSe2XSuYzEjyIAgxhEJ+qlyo1x1aMEIC6mG8fRQOd1W5VLGlu+3iK8AJjGbwAcESZoSnzWgekMvVxJxSgmsgAAj2hwD+m2Vq+Ng18lAHGw7C8Gg5bmQu6DGEoA+MjpXc5kfZ2svfH8lS3GKi278AoQAO+gt1h2RvaYVwIgpv8JQnlKt+zdwmCFEoDhU1KknLsXpggBPkfrln2rAJzQEEIEYPCwRzo2a1VuCZ2IT0clAD6JismMNUwPsw1aKAFwCvn/AtE3Y6othjD0h+zayQfT8uUDMQQbNYQoAQCosmEjH/KmX9r/lFmLEgCZ7IbAZjohzO1sKAHoM40bCJB6bnkICiK5xLm1+GiJihOAeI4XVwIQqbsJdybQ5VmrsigocCgBcEzDO50k9pNRghYX0P6pgc6O/ePYXVi2AHj4TNrhMuc9KAEI2Lukm/NtulX9QNAwgQWAT5kzsbah/+WggZrCXvKx4uNxIHIEMCgAoHtzVuUQWbwrAZDFbGjcp3XLfktQ78AC8FJh1rs6yL0vaKAmsV+pW/Y7k8hVtAB4NWiEL3WX7Itl1KMEQAar0TDDHIgSWACcYv4MMH0nWqrp9d6i8Tt2XFx9JO4MZQgAAVvA2pxsedUK0fUoARDNaHQ8zdX27l6yyjt1yfcVWABqpvFDBj7qO0KzGQo+eslv+TIEYCg2/Ua3Kkf6zcOvnRIAv0zFaBdiNmhgAegzjSoBM2MsK95QhO/pJfuMeIMC8gQAIMbns4KPzFYCEHcPaRyPCJdmS/YXG1v+yyKwAIQ5HNN7xRYkKVG24Var8S26VT1WVA5+cWQKAAAn4/LBk5dUH/SbTyM7JQCNGErk81t1yz46SORAAvDP42ftuqXu/j1IAM82zMOJoDG2tQ/bQQlYnrXsQ6PGD+ovWQC8twKh54uPVktYfj2spJYDh10NmET/Ddp/wtoHEoBaYda7OMQbgCQIdAr5C0B0YVBiWlUAPB4Y+FTOsq8KyokSADvQ90QEv3FhBCos7B4ASQhA2F+oVhYAAM+xhveEmTMuaoSlRgBxfbX9xQkkAH1m/mwCXeYP+l9WSQiAGgGM1Ur8M92qfihoGyoBiMpYOv0DCYBTNK4A48ygpSgBaMyY7GcAr8mA6cN6uXJd46zGtgg7wlIjgCisi/cNJAB9prGMgOOCppGEAITtoC1+CzDSdE9kOjoOmnzjyheCtuWIfVh+lQCEZVyOXyABcEzD2wPACJpKEgKgbgHGbyUivjpbqn4yaFsqAQjLWDr9ggqA94sxLWgpSQhA2F+oNhkBDDYhExVypcqSoO3p2YflV40AwrAtz8e3APCF0GprjHqYVJIQADUCaNxSBDy4ERsPmmatWd/Y+rUWSgCCMpZOe98C8LR54HZZbA61y0wSAhC2g7bTCGBoGMDf1MvVzwbtnmH5VSOAoEzLtfctAL3H7Z/TJmR6w6SThACoEYD/lsoQv39yqXq7fw91CxCEqzTb+haA/nn7TnM7JoR6apyEAIT9hWq7EcBQ77w/a9nvosHJgv6usPyqEYA/fuOy8i0AYdcBeIUkIQDtNQLgFQC9K1KnIfyPXrLP94uhBMAvU+m28y0AjpmfDtBjYcpJQgDCdtBmHAEweC6Bfhumbbb2IeA9Wcv+Pz84YflVIwA/7MZn41sA+hfMmuFq7kNhUktCANppBODx21cwLifC58O0z4gPAXdnLXuuH4x2EoCklrP7aYfRbDJEd/kVct8C0LfQyJMLO0xSSgAasxZlKrDH71OnzJk4dUO/N1FrRuNoY1sQ4Zxsyf5qI4x2EoBGXKTtc02jfboXV3z9WPsWgJo580CGFmpvuSQEIGwHbcZbgBF+e838PA20NEqHJODluksHTVlSWT0eTlh+m/EWIAqfSfgOZLS37HDTqqf9xPYtAN756s20oUK73QKMNHZfwbiGCB/z0/jj2PxKt+wPKgGIyGJC7gOdHbrf8y18C4AaAchtzai3ACPZrT9h9s7uwECFgV2iZUxn6lZlzN2f1QggGrsyvYOMuH0LQJQDQYMkJIqYdh0BePzVzPwpDPpJRC5fgls/UF/yx1Hf/CgBiMiuJHcCNmctu8svvG8B6F/Ys7fr8p/9Am9tpwSgMWuiRgAjkZyCsRiEYuPIY1swaHHOqhw/moUSgCjMSvVdq1u27wV7vgWgtvCAt7NbfzRM6kkIQNgO2swPAbdum+H28t4KdIdpsxEfl/nUKeXq60YTYfn1cJttU9Ao/CXg+5hu2W/3G9e3APTOn/lWLaP91S9w0iOAsB20VQTA498xjU8D+FaYNhvxeeUQmKe3ZNx37nTT6me3xgnLrxKAKK3hx5cqulWZ5cfSs/EtAGvnG2/szOA1ncBvEDUCaMyU6FuAV28FTOM3AI5onMHYFgT8KGvZpykBiMJiXL58l25VD/cbzbcAOOaBU4HNL/kFViOAYExJE4CFs2bBdR8Ils3rrTVGsbtsWyOfqBFAVEbl+DN4Sc6qFvyi+xYAPnnfSbWNEwJvHOElokYAjZtDlgAM3wp86ZXRXtTTmR7NdnYcQDesrHmYSgAat2kSFqON1sbLw78AfNyYUOvF5jBFKQFozJpMARgWgT8AiHb0OeMKvWx7zxWUADRu0qQsvqFb9uf8BvctAMOdaBOATr/gI3ZKABozJlsA1hdnvbfO7p2NM2lgQXSUXqr8Wo0AIjMpC+AC3bIv8gseVAC8twBv9QuuBMA/U7IFYFjAv/7KPKHA239tU4WdxW6z+/iJ88MdvqpeA/rvFSEsAx5vH1QAQg0j1QigcUPGIQAvnTQ727F54H4AezXOaGwLYvrfOtwtzSYAGeILotQdty8Dc4LGdAmnTCnZP/XrF0gAaqaxlIF5fsHVCMA/U3EIgJdNn9lTIPCrT/P9Z/haS2+NfDMJQNg6k/RzTMP3Fm0jeRLTcdly5Wa/eQcSAKdofBeMT/kFVwLgn6m4BGBIBIwfEvBR/9m93pJB9xL44DAYScwEDJNn0j5hBCAot4EEoL9gnOcSLg5KjLoFaMxYnALg7e84UHfvZ+BNjTMTbxG0k4rPoDkQwwjAhHrHrtsvXfmM3woDCUBfwTiNCD/wC65GAP6ZilMAhm8FPkrgH/rPUJylEgB/XIYQgE26ZU/0hz5kFUgAHNM4CsCvggTwbNUIoDFjcQuAl1HNNCwGfM8aa1yFPwslAP54CioABKzJWvbe/tBDCEDYfQGVADRukiQEYHiJt/dWYFLjDMVZKAHwx2VQAQD4Ft2qHusPPYQAbJhvvHEgxIIgJQCNmyQJARgeBXyWAW9+QGyXEgB/VAcWgBDHvAW6BfDSDpyUugXw1dpJCcBwm94BwPcKMl8FjWOkBMAfg4G/a4wz9LL9PX/oIUYAw53FGzLODhJEjQAas5WkAKwzjXdngN83zlKMhRIAfzwGFgDi9+sBz3gMPgIoGleAcaa/EoaslAA0ZitJARgWdm+1oLdqUPqlBMAfxUEFgDVMzy22n/CHHnYEUMifBKLrgwRRAtCYraQFgIdWe3rHgh3QONtoFkoA/PEXVADCfM+CjwBCnBEYJjF/FI1tFXa1WittCRaUw7CveYPGUQLgj7GAArBSt+zAy70DC8DwcNHbGWiqvzLULYAfnpIeAYzk6JiGt4fg4Jp/WZcSAH/MBhKArfZq8Ice8hZgSADyvwboSL+B1AigMVNpEYDnzJk7bQ/NeyC4R+Osw1koAfDHWyABAE56ZTfgn/tD/pdVqBFA0OG1N6wOmpgI+zDLKQm0NGtVFoiIHwQjLQIwPMI7EcANQfIPYpuEAHhH2wXJMQ22QY7i63K13ScuWfVk0LxDCYBT6DkSxL8OGqwp7Anf00v2GXHnmiYBGBSBgnEtCB+WwUNSAhDkCyWjbomYT+mWvVsY/HACEGGH4DBJxurDOF8v2/8Ta8yhefn3hBmxeHnKuMVyzPx0Av2egTeI5kIJgFhGiWBlS3aoU6BCCcDwMNE7M2662FKSR2PQaTmr8qO4M0mbAHj195nG6QQEmlnmhzclAH5Y8m/DTF/IlSuX+ff4l2VoARB0DHWYnOX6MH1AL1dukxvk9ehpFIBhEVhGwHEi+VACIJJNQCMc1l2y7wmDGloAaoWeY5n4F2GCptjH1i27J4n80isAeUMbuhXYThQvSgBEMTmI84/NmybuttMt9/WHQQ0tAMO3AYH3LAuTZFw+DP5EzqpeE1e8reOkVQC8HGumcQ4Dl4riRQmAKCYBBn6U2+bYtiDoUQXgdgDvCxIwxbaJ/foPf8lS9RBw23bqM427CThURPspARDB4hAGMX8wW64G3qRnJINoAlA0zgLj2+LKSRQp1EQKURmneQTg1dhv5g9zQb8VUa8SABEsDm7n9WzWst8cBS2SALA5Y3INE0Pde0RJWrQvA+fmLPsronGD4KVdALxa+grGV4jwhSB1jWarBCAqgyO//vS/2XLlv6OgRRIAL7BjGn+ROW00SnF+fJn5x7lyNdIW2X7iNLJpBgF40ZwxuQsTfwcg36ie8T7pXfStAAAPeklEQVRXAhCFva19abZuVSKd/BxdAIrGxWCcJ6qkuHAIeNkFXZKzKpfEFXO8OM0gAF7+NTM/j0FLo3CmBCAKe8O//gKG/x5SZAHoMw/4N0I98Bzk6BREQrgZmnaJvnjVqkgoAp2bRQAGR30F4yoQPhm2fCUAYZn7l593MtOUcvXCqEiRBWDoV8F4mYFA+5FHTTyUP+E6Zv5pzqreHcpfolMzCcA/zf3evAUd3q3A7mEoUQIQhrXX+rh1921Tlq7+W1QkMQJQzH8fTNKWj4Yp0gV6wXiBwS8QaEXHhI4/Tb5x5QthsOLw8QQgbJysZQt5PRckvrciNEN0SBCfEds605enlCuxrhD1VgM22+Gg43Erqs2FCECYTqB8FAOKgeQZUAKQfBuoDBQDiTGgBCAx6lVgxUDyDCgBSL4NVAaKgcQYUAKQGPUqsGIgeQaUACTfBioDxUBiDCgBSIx6FVgxkDwDSgCSbwOVgWIgMQaUACRGvQqsGEieASUAybeBykAxkBgDSgASo14FVgwkz4ASgOTbQGWgGEiMASUAiVGvAisGkmdACUDybaAyUAwkxoASgMSoV4EVA8kzEIsA9BZ7Ts0wn5xYuYS1Yc9OGyvn3oLxuQzhaFk1iVrvLSu/oLiOaZxIwMeC+vm1H2D+0tRy1TvWPNK1dr7xxq4MAh+zHSnoaM7M12XL1Z8Ix90GMBYB8GI6BePnIJwgu6Cx8KMcoDgaprfBhKzTZhmoQUM+t9h+Iim+RMd1CvlvgOgzonE9PAIe6p5h70cXwo2K32cat1PSZ10QbtBL9n9ErcWPf2wCsM409skA3r7yO/lJTIaNSBHgI6d31SbrDwJ4u4xcNZDZbVXKMrCTwKyZPb9j8MEyYhPomqxV+URU7FrBuIZJ3ijFZ34v1jWaO3Vx5SGf9pHMYhMAL8te0/isBnw9UsYRnUWKgMxRDRMuzZXsL0YsNxXu/ebMd7jQ/gSgQ0ZCRDglW7J/GgXbKRrng3FRFAxBvv+lW3Zsh+3EKgCDtwJmz20Av18QWSFhaLFuVY4P6fyqm/ccQCN8LSrO6P70G92qHCkHO15Up9DzIRBH+oKOk3Ed4D11q/p42KpqxfzHmCmRMyG3yflW3bKlPVcajZ/YBWBdseegDLO3IaSUXwPfnYDpu3q58p++7UcxdBbm3wmX/hAFYyxfgrehaec7dOsP62Tgx4npFI0rwDhTRkwClkd5YFoze45h8M0ycguIOUBwD85aq6X0p3H6WcA0BZh7O8pqRBcIgIoEIWJvdcc0HpX1HIAZR+TK9h2RikyBs2MaVQAzZaTiEv5nSsk+Pwx2rZA/mol+GcZXtI+Ivhgmp9hHACNJOqbhnWh6VJikhfpEHAk4ReN6ME4SmtMwGIPOS8vJRWHrW78gv29dI+/+X8qVYRwxOYRIOuk62Db2of9IYyQmAOtNYx8XuJOBnaX0jECg4Z8J9JvG6S7wvUDhfBoz8IucZc/zaZ5KM8n312s3YeNu06w164MU328a33rl3IhPB/GRZevd6mnA4ZMt+8+yYoyHm5gAeEnVCvmPMNGPkyh825gM3F3v7Ji3ww0ra0Hy6V04cz/N1f4YxCeA7d90y35bAPvUmTpF46dgfEhGYgRamrUqC4Jg95k9VxP440F8ZNoS86lxTPgZq4ZEBcBLyjEN79fzdJkk+8Um4EHS+PjuxdVH/PoMCplprGHgHUF8fNtq2gFpOsPQd97Dho5peJOZdgvq58ue8Gm9ZF/hy3ZoMtq1IHzYr30Mdlfplv2pGOKMGSJxAVhnGnoGfCdAs5IkYiQ2Ac+6oFNyVuVOv/k4ReO7YMhpSMYZetmWcovht76wdjLfkng5bdH4HTv6EOvnT9530nabOn4IpsivfsNy8Xo/XlUHHT7Vsh1xmMGREhcAL+X1hZlz66TdFTx9aR5bNMJZ3SX7+34iiDgye8whGtFPsqXKqX7ySJtNn5k/m0CXycjL7+s/Z+GsWXDdbwB4t4w8wmJm2H3v5PJqb2ZsolcqBMBjIGVPZQcbhRnf30wbz/bzkMkxjbUAdpTQmn/RLXsvCbjSIR2z5xaAPygjEBP/d65U/d/xsHvN/CkayJt5OlVGDqExA966hI7jwzE1AjAoAoWe74D4DB95x2jCK4gzZ2fLq1aMF9Qp5m+UN8Sk2bpVeSDGoiOHeumk2dmOzQN/BTAlMtgoAOy6s3JLVlfGwq6ZPZcx+GwZsSNhRnztHCn2KM6pEgCeM6ejtlP/rwEcLrrQiHjrNcLZ490S1MyejzL4hxHjjOpO4EVZq3q5DGxZmE6x5wNgvlUS/tO6Zb9lNOya2bMHg70h/wckxY4Ce2d2bfcHaPnygSggIn1TJQBeYd7CkTq02wgYtYFFFh8Uq9EtgWMadQBaUFwf9r/WLTv5SVM+Eh0xqZnGpQycE8DFvynjCr1sv+49/vCzGO/Ln7pXpwz8PQP3yG5r9cP+C5VvmToB8EquFY3jmLFMfvlhIvAKEC7SS9Xbt/V2TMP7v/eFQR3Ph4ENWgfelr3R/odobFl4jmn8H4CDZOC7TIdOKVe89SSDl/er77K7iIhS+7CUCPOyJfsXMviIgplKARhs1ELPIib+apTiZPoy8CNNy1yWXfzA/xuJ02fmP06gq2XE1YgK3aXKEhnYojF7j9//bVo985Ro3BE83bJf7bd9hZ5FIL6AgO1lxYuKS0xfyJYrUt6GRM4tKoBM/1rBuJwJn5cZIyJ2Dczf0MvVL4/gOKbBETFHdydcqZfss6RgCwZ1zJ6TAb5OMOwI3OC8+d5Cfj4RfZmAvSXFEQKb1CIfv8mndgQwUkCtaPyAGaf5LSgJOwLWMNEleqlyo2P2rAK4R3Qe3izFrGXvJxpXBl7N7LmaJU23ZdBpBPcYgI6RkbtIzLR/+b1aUy8AXpI107AYKIhsHDlY9BuGu0zWbYDrUn7KkspqObmLQWWAaqbh3RZNF4PYnCjN8OVvGgHwEnXMvDdd+L3N2R0EZc38Gb1c/ZYgNCkwaVpjL6VAH6BMfHWuVP2kD9PETZpiBPDq7YBp3MPAnMRZSygBAt2btSqHJBTeV9g0Le7ylbB4o5t1yz5OPKwcxKYSADUSGJyenNpdgh47cnrXtMm696pyspzumnZUvku3qmmbxDYuaU0nAF41faaxjICmUVmR3ZZSvDhI5qIokRzKwGrWzVuaUgAGRwKFnp+BOJbDE2R0mLCYBLzcPal7Kl27fGNYDFl+jtlzE8ALZeGnFpfper1cSe7kqwjENK0ADImAcRUITfGwJUIbvc6VCefkSnaqJkm9aM6Y3IWJ/SLrbAosxvf1sp2KDW3C8NXUAuAV3ASThcK0y7g+r7wSfShn2fsIB44AKHnyT4TM5LkS42vZsp2+FYcBSm56AfBqTcs24wF4j2zK4J6cVbUjAwkCcMz8A2nZ1UlQSePDMF+49QzQWGJKCNISAuDx0l80DnUZd0vgKJWQRLguW7JTsb9dbd4BO3BHvWkWKkVuUOKT9VL1+sg4KQBoGQEYfCawYP9/Jy1zNwO7pIBb+SmQt7U1Pc7Ej8Z9kvALJ8zeuWOLu7tGvDvY+zf5g17kE4510PgofXH1/hhixRKipQTAY2xoJ5r6NW34NLpvSAzcxzOgh8H0iKu5z2iAoxE720+oO/SzBzc06lX8cWNC/9pM1u1AlrUt2YyrdfPQ3gzTQdgdzNMB2h2pOM+hUTUiP+cVGvi4bmu1t/Vby1wtJwAjLeMUjG+D0BSr52LsTd5ONN4utIN/BDgMZDH8R4D3Zd8uxnyaIhQx/zhbrn60KZINmGTLCoDHQ61ofJ4ZTbWVVsD2U+YSGSBgM4Bzs5bt7TLUkldLC4DXYn0F430gXE7Avi3ZgqooSQzwCpf43Cml1fdKCpAK2JYXAI/l9SfM3rk+sOVygJpytlYqekp7JfHtLDrPJesPL7d62W0hACONqG4JWr07R6uPgWeI+NxWecXnh422EoCRWwIieNNo9/dDkLJpDwYI3ia0dG7WqjzaHhUPVdl2AuAV7Z1H2EE4nxmfa6fGVrWOysA/wLhIL9tXtiM/bSkAIw09fHjFlwDMbsfGVzXTYg31i9K2V3+c7dLWAuARzUdO7+qflPsSE38xTuJVrOQYIOAZF3xxzqpek1wW6Yjc9gIw0gx9hZlzNaLzGZTqLbfS0W2aOAvCdUy4KO6p02llTAnANi3TZxre2u7TCUjVctu0dqAmyut2l+mqKeXKzU2Us/RUlQCMQrF3W1CblD2diE5n4O3SW0EFkMYAAcuJ+KruUrUkLUgTAysBGKfxvLcF2tBowBsVpO6w0ibud3Gkfj+YrtLLFVknFMVRg/QYSgB8UNw/b99pA5mOT2WIPsbAm3y4KJPkGLCJ+OpsqfqD5FJonshKAAK01Yb5xhs3a/wJJQQBSIvP1GbwNerJfjDClQAE42vQWglBCNLkuagvfgRulQBEIE8JQQTyoruqL350DttzKrAA3l4DUTvB2NEd4PkEbR7A7xeNr/BeZWADmJYRuUuzVnWZ4iU6A2oEEJ3D1yD0LTTyxJjn/TEwQzB8W8IR+HcMWlYHlk217L+3JQmSilYCIIlYD7ZW6DmWNZ4PhjcqmCYxVCtCP0qEXwG0LFuq3NeKBaahJiUAMbTC8yfvO6lrY+dcDXwYA3MJ2DuGsM0Y4vcu890Z4LfZcvX3zVhAs+WsBCCBFnMWGLM5w3OJtcMAnptACmkJ2cvwvvD0Wwbd3W5r8dPQCEoAEm6F3vkz36plMgcz8cHEeA+APRJOSWp4At3LxPfCpRV14hVTLdvboVhdCTGgBCAh4scK278wv5fLOIyHRgeHEZBLWYpB03kChNsJuJO2bFnRvezBF4MCKHt5DCgBkMetEOR1pvEWjbEnadjTGx0QD/67ZwqnJD8N4BHvj5keYa3+yEbGI29ssYM0hDRqikCUAKSoMYKkMnwC0p4uu7tooDeAsDN5/8J9Aw/+i5G/ziC4o9h6e+M/7/0R+HlAe569fxkvuODnOzOZp7d3//kIWWvWR4yj3BNgQAlAAqTHGXKNOaPzDZ2TJ3Zu3ty1OdMxsWPLlolaR0dXfaA+UdO0iV4urutuzHRkNroDA5sGJkzY2Fkf2Li5s3PT85vXb5xhrfEEQF0tyoASgBZtWFWWYsAPA0oA/LCkbBQDLcqAEoAWbVhVlmLADwNKAPywpGwUAy3KgBKAFm1YVZZiwA8DSgD8sKRsFAMtyoASgBZtWFWWYsAPA0oA/LCkbBQDLcqAEoAWbVhVlmLADwNKAPywpGwUAy3KwP8HlfkEHou4hpoAAAAASUVORK5CYII=;rounded=1;textShadow=1;" vertex="1" parent="1">
          <mxGeometry x="310" y="70" width="70" height="70" as="geometry" />
        </mxCell>
        <mxCell id="vqLbyj1tlcazgdX1yOUi-30" style="edgeStyle=orthogonalEdgeStyle;shape=connector;rounded=1;orthogonalLoop=1;jettySize=auto;html=1;exitX=0;exitY=0.5;exitDx=0;exitDy=0;entryX=0.5;entryY=0;entryDx=0;entryDy=0;strokeColor=#ffffff;strokeWidth=3;align=center;verticalAlign=middle;fontFamily=Helvetica;fontSize=20;fontColor=#ffffff;fontStyle=1;labelBackgroundColor=none;endArrow=classicThin;endFill=1;flowAnimation=1;textShadow=1;" edge="1" parent="1" source="vqLbyj1tlcazgdX1yOUi-5" target="vqLbyj1tlcazgdX1yOUi-25">
          <mxGeometry relative="1" as="geometry">
            <Array as="points">
              <mxPoint x="295" y="243" />
              <mxPoint x="278" y="243" />
              <mxPoint x="278" y="175" />
              <mxPoint x="187" y="175" />
            </Array>
          </mxGeometry>
        </mxCell>
        <mxCell id="vqLbyj1tlcazgdX1yOUi-5" value="缓存" style="rounded=1;whiteSpace=wrap;html=1;strokeColor=#b85450;align=center;verticalAlign=middle;fontFamily=Helvetica;fontSize=20;fontStyle=1;labelBackgroundColor=none;fillColor=#f8cecc;glass=1;textShadow=1;" vertex="1" parent="1">
          <mxGeometry x="295" y="225" width="100" height="40" as="geometry" />
        </mxCell>
        <mxCell id="vqLbyj1tlcazgdX1yOUi-22" style="edgeStyle=orthogonalEdgeStyle;shape=connector;rounded=1;orthogonalLoop=1;jettySize=auto;html=1;exitX=0.25;exitY=1;exitDx=0;exitDy=0;entryX=0.5;entryY=0;entryDx=0;entryDy=0;strokeColor=#ffffff;strokeWidth=3;align=center;verticalAlign=middle;fontFamily=Helvetica;fontSize=20;fontColor=#ffffff;fontStyle=1;labelBackgroundColor=none;endArrow=classicThin;endFill=1;flowAnimation=1;textShadow=1;" edge="1" parent="1" source="vqLbyj1tlcazgdX1yOUi-7" target="vqLbyj1tlcazgdX1yOUi-9">
          <mxGeometry relative="1" as="geometry">
            <Array as="points">
              <mxPoint x="489" y="151" />
              <mxPoint x="450" y="151" />
            </Array>
          </mxGeometry>
        </mxCell>
        <mxCell id="vqLbyj1tlcazgdX1yOUi-7" value="TCP" style="shape=image;verticalLabelPosition=middle;labelBackgroundColor=none;verticalAlign=middle;imageAspect=0;image=data:image/png,iVBORw0KGgoAAAANSUhEUgAAAQAAAAEACAYAAABccqhmAAAAAXNSR0IArs4c6QAAFpNJREFUeF7tnQ3QdVVVx//GZFmQMRYQptaoZWWahVommDYKaJplfqQD5jf4mYyaOFqJmhogfgSYhoal5keGGoqSKaOJFuNHKVajmZCYKVlGYRbV+dN53rm+3ue555y99jl73/3bM3eel+Hstdf+rXP+99xz9l7rOqJBAALNErhOszNn4hCAgBAATgIINEwAAWg4+EwdAggA5wAEGiaAADQcfKYOAQSAcwACDRNAABoOPlOHAALAOQCBhgkgAA0Hn6lDAAHgHIBAwwQQgIaDz9QhgABwDkCgYQIIQMPBZ+oQQAA4ByDQMAEEoOHgM3UIIACcAxBomAAC0HDwmToEEADOAQg0TAABaDj4TB0CCADnAAQaJoAANBx8pg4BBIBzAAINE0AAGg4+U4cAAsA5AIGGCSAADQefqUMAAeAcgEDDBBCAhoPP1CGAAHAOQKBhAghAw8Fn6hBAADgHINAwAQSg4eAzdQggAJwDEGiYAALQcPCZOgQQAM4BCDRMAAFoOPhMHQIIAOcABBomgAA0HHymDgEEgHMAAg0TQAAaDj5ThwACwDkAgYYJIAANB5+pQwAB4ByAQMMEEICGg8/UIYAAcA5AoGECCEDDwWfqEEAAOAcg0DABBKDh4DN1CCAAnAMQaJgAAtBw8Jk6BBAAzgEINEwAAWg4+EwdAggA5wAEGiaAADQcfKYOAQSAcwACDRNAABoOPlOHAALQxjlwiKTvl/R9kr5H0oGSDlr5XFfSVWs+fyPpb/vPv7WBqq1ZIgDbF+/DJB3Zf27fX/TfHjDNK3oheIekiyRdHGATEwsTQAAWDkDA8P72vqukn5Z0R0m3DbA5xMQXJL1H0vskXSjpE0M6cUxZBBCAsuIx1JuDJd2tv/D990ZDO2Y8zmJgIXinpEsyjoPpQAIIQCDMGUx9l6RHSXqEpMNnGG/qEBaB35f0e1MN0G8eAgjAPJxTR6nlwt9/nn/Zi4CF4POpEOgfTwABiGcaafF6kn5Z0mML/8bfNOfLuzcPp0l68aYD+f/zEkAA5uU9ZrRf6i/+W4/pVPixfk5gITi/cD+bcQ8BKC/UR0k6WdIx5bkW5tE5kk6RdFmYRQxNIoAATMKWrdPT+gvjgGwjlGP4k5J+tVug9NpyXGrPEwSgjJj/qKRnSbp7Ge7M6sWZvRD886yjMti1BBCA5U+EB0o6S9L1l3dlMQ8+2j/v8DMC2owEEIAZYa8Zyu/zX7asC8WMfrWkR/brB4pxatsdQQCWi/CvS/q15YYvduQn8LpwvtggAPOxXh3pgm4zzdHLDF3FqM/svLRA0jITQAAyA15j/t3dJpqfmn/Y6kZEBGYIGQIwA+SVIZa8+K/sfmN7S+/n1vz1Xn/vLfCS43V/veNwiYYIZKaOAGQGvPDF/y5Jb5L0Bknevju1/aSkn5V0b0k3n2pkYj9EYCK4Id0QgCGU0o95i6R7ppvZaMHf5N6S+yeS3ph40e82mJOMHNuvVPS/52j360VsjrGaGgMByB/u0yWdlHkYp+16UcA3/Vg3LQDenvyQsR0nHH/nPgHJhK502Y0AApD33PCGnldmHOLLkl7YX/xLrqS7S79j8ecyztWmne2IZCOBkBGAQJj7mfIuPifGcELOHM0LiPytf2kO4xNtWgC8ddmCkKM57dg9JH06h/EWbSIA+aKe63e/7frC/9N8ridb9k+CJ0r64WRLX2/AmYaOy2C3SZMIQJ6w/4qk52Uw/RxJT89gN4dJpx/3XYoTlka3EyW9NNpoi/YQgPio+5WZv52j350/qEvx/Zp4d7NbfFWGb2y/0vTPjI9l937LB0AA4gPsi99PrKPaNZKO6N7BfyTK4AJ2vNU5+s7lPEm5HzougGreIRGAWN5PknRqoMm/luSHiV8NtLmUKYti9HOLX+ieM/zhUhPahnERgLgo3rT7vftnkg4NMumyXLcIslWSmf8NdMZLq3O9cQh0s1xTCEBcbM6WdEKQua9IckbgbWw/KOnjgRPzWotzA+01ZQoBiAm3q/O4Zl5Uc4kv301sa/Otu/cnRLS/kHS7CEMt2kAAYqLuDTdRD6SeEvwcIWaG8Vae0SdAjbB8PFWIpmFEAKZxW+11h8Bv6zNm2DeQPuM4C84I/IAAc15xSYKVCSARgAnQ9usS9dvfF4MThLbUnH/A2ZFuFTBpC4CFgDaCAAIwAtaaQ/3k3+/nD0wzIz/0884619JrrXnZ8CsCJu36g/4pQBtBAAEYAWvNoVGJPV0u68lprlTd24lLIl7n3axbdfipqknM7DwCkAbcT+r9DCCluWquv/0/k2Kk8r5+gOoHqamNPQIjCSIAI4GtHO7frS5okdr8NPzZqUa2oH/Em5Q/6n5G/fwWsJhtCgjAdNQRy3692s/f/v863Y2t6emfAP4pkNKu6gqL+GeA76poAwggAAMg7XKIF/54AVBKe5yk30oxsGV9/TAwNb0YawJGnBQIwAhYK4d+t6TLp3Xd18vVcefOsJvocvbuvhv6QOIovxsgIoku1NMdAZgWq/tKev20rvt6vUTS4xNtbGP3D0v6kYSJ/V23KtCvZ2kDCCAAAyCtOeQFfcqrab3/v5dLgb89xcCW9vV2aj9fSWm3qTx/QsrcR/VFAEbh2newM9H80LSu1/b6p8BtwwluFNnVZdO8zTelOR+hsyXTNhBAAMafIhG//1/el8IeP3obPZz11zkFpzayBQ0khwAMBLVy2L0kvXl8t6/p8TNdjvvzE21sc/czu7ukRydMcFuTqSQgWd8VARiP1CemT9Cp7b8lfePUzo30S/0Z4BRqB21JKrWsIUcAxuN1au6nje+2rwdbV4fB+8/EzMrOPORCIrQ9CCAA408P57p/xPhu+3rwnnoYvNTnAPzMGsAZAVgP6WBJN+wq8Pivl5d6qe7Ox6msXCZ7antu4h3E1HFr6/f+Ls3aTyQ4/YRuWbCrCHmx1b93ov1ZSV9KsLeVXVsVgFv2GXd9kftzeP9357+/JWO0Wf47DK7Lm99n2KGDj/qPXggsBv5csfLfrrFYUp3FwZNKObAlAfC2XX9ze+upN4ws1chlP4y8V0q60OiczdmKfYf3VkkfmnPgpcbadgE4VtLOZ8mLfjW+FqKLlwp4ReOe3D0E/I0F/bUYeD3BhV2lp4sW9CPr0NsoAK6k87D+wi/lol8N4vdK+vusUd0O4873/8pCpuK3CRYC71aMyAFRyLSkbRIAbwB5TP+JLswZGbBv4v30IJzRtRYGDbrhIK8v8BoQf7Yi9dg2CMAhKxf+DSKinNmGE4j6qTRtbwJ+jeff4iW2K1eEwPs6qm01C4BLZ/kb3w+KblJRBPzG4XMV+buUq8dJcmnxkpvzODqhi+8Iri7Z0d18q1UAXIPPF79f59XWXPDTa9VpexNwroQXVQLJu0MtAi+txN99btYoAEu8HoqMq+vYuZ4dbW8CUSnX5+Tsh5YPnXPA1LFqEgD/1rfCRtXgS2U3tf+dJb1naueG+tUoAA6PU5q5wpOXMhffahEAp4hy9pzDiie62UEEYDMjH1GrANh3Lxu3CLxt2FSXO6oGAbiHpD9eDlH4yD/WyiqzRHLeB+D9ADU3pzY7veQJlC4A3jjz1JIBjvTtHyW5ICZtGIHUDUHDRsl71DmSHp53iOnWSxaAiLz708nk6XlW//Yij/XtsxqRfbkEKv756iSwxbVSBWDbvvkd+C/021u3YgXZjGfyiyV5B2Xtza81/QarqFaiAJSg+t426kUe3j/uW3Y/fPTCo5R2v36nWYqNVvv+Tr+/Y+z8/ZPL+y6u3y8Wy7nNe4hvP97tUfngkAPnOqY0AfB6flfMmav5QndyTv/WvKy/6H3hf3GNAz6JLAQWBO8wPKaraOsCoZuad5U9k4t/E6aN///o/ufTPdcc+Vdd7oDVj++yfOF/Zb9jv6MXAq8cvXH3lN5rMpzk9Vs3jh53gM+hYmoXliYA3mk15KJKCYdLerkIpV/ReO93SnNtAG9a8ceJLL95xZhPwHMluYjIl1MGoe/XEPBKyp3Xwf8Q9IWxs2Xc+w+8WzNnK+p5QEkC4HXfXv+dq10gyQ/hcm0w8S6/1RRWLPbJFcm8dn2H4czPvsPL1U7rNoQ9OZfxMXZLEYCIUtu7zdvJHM6W9LoxYDi2eQL3727VT+yqFN0pEwlvYktJLx/iVgkCEFERdh0Mr7f3N76z8NIgMJWAE5P4juC2Uw3s0W/xh4IlCMCr+2WTkXxdF8714WgQiCLgBT3RG31eI+lBUQ5OsbO0AHhxRHSJrEd1WX6du58GgWgCz5f0lGCjXuq+2J6BpQXAD+b8eieqHSXpvVHGsAOBNQSicxV6xWvOB457BnFJATi+f00WdZZ95y7v76PsYwcCOwRcuThyu++Dl8p+tJQAHNDvmz4i6JyiDlwQSMwMJuDUbi4uEtEukeQHgtdEGBtjYykB8AM6L5CJaE/vqu26YCcNAnMTiCgVv+PzSd2S5TPmnsASAnBo/+3v26jUtvhT1NQJ0L96Aqd039zPCJiFV476LmDWZcJLCIDfqUYsgHhft6T3yADwmIBAKgE/xfdy4tQ2e93IJQTgTQF5/byJ546SPpxKnP4QCCBwG0n+QkrdbejMV+s2OwW4uN7E3ALg3Vh+cJJauce765wzjgaBUghE5DD8L0k3mvNnwNwC8ABJr02MmL/1/e3vuwAaBEoh4G9/3wX4biClPbIrVf/yFANj+s4tAM6b7oUUKe0XJf1BigH6QiATgYgvOP9Evk8m/77O7JwC8A2S/qXLknpQwuR84VsAaBAolYDvcC0EU5vrRn6bpP+ZamBMvzkF4K6S3jnGuTXHLr57KtF/um8/AZ+jFydO08Vvzku0Maj7nALgqj7eqDO1fSTg99XUsekHgTEEnAbOq1OnttlKjM0pAC6j7PX6U9vzJJ08tTP9IDAjAVcMdvHaqc3lx/3GLHubSwB84afWUb9Ll53l3dmJMAAE0glEVLNyLUynks/a5hIA1/ZLWbTjh4cHZyWBcQjEEnB9QD/Mm9r8OtE/e7O2uQTA2VZTknGy5j/raYDxDAT8xsp5Bac2rwjMXhNzLgHwwz8/BJzanIXl1Kmd6QeBBQg46+9vJox7QleD4rcT+g/qOpcAPEuSt+1ObQ8huedUdPRbiEBq5qBnB+0y3HP6cwlA6grARfOmLXQCMWzdBFLzXTqbtb/4sra5BMALgLwQaGpzCSen+aZBoBYCTiP+5wnOXthXnEowsbnrXAJwaVeY4wc2u7PrES7X5IQJNAjUQiA1b+AnEhcTDeI0lwCkvhI5sCul5DXSNAjUQsAFR69KcNb1JF2QNmtDALLixXjDBBCAleDzE6DhK6HRqfMTYCXwPARs9CpoeNo8BFwJPq8BG74SGp06rwFXAs9CoEavgoanzUKgleCzFLjhK6HRqbMUeCXwbAZq9CpoeNpsBloJPtuBG74SGp166tqXrdoOTEKQRq+CRqdNQpA1gSclWKNXQ4PTJiXYmqCTFLTBK6HRKZMUdE3gSQve6NXQ2LRJC75LwCkM0tiV0Oh0KQyyR+BTVwTaNKXBGr2yKpg2pcE2BCkCEMVBK7gSGnSR4qADgk558AGQOKRKApQHHxg2Vz917bOU5tLgLhGeUmsgZXz6QmCVgBftuDS47wJSmtOAOx34bG2uhCCrE3p0VyLszIAZGviRAXYwAYFUAm+TdGyqEUmP60qCeQ3BbG0JAThU0ge6NN9OmJDaKBiSSpD+qQROCUrf7ZyXfoX4+VSHxvRfQgDs3xO7skkvGOPoHse63sBzgmxhBgJjCNyrq1j95jEd9jj2pC4H4BlBtgabWUoADujvAo4Y7OneB7oUs7Oo0iAwF4HDJX02aLBL+m//a4LsDTazlADYweMlnTvY080HesPRFzcfxhEQSCaQmu9vfwceLOlVyV5NMLCkANjdCyQdPcHv3bocJem9gfYwBYH9CaRm+tnf3ju6u+FjlsK8tACk5k1bx83Zh162FFDG3WoCz5fkQrWRbdGyd0sLgEG+WtIDI4lKemH/oDHYLOYaJnCOpIcGz3/xt1glCMDt+weCwWyvrSV4FlWFo7E2Z8+3/F674jTf0c2v/T4YbXSMvRIEwP4+SdKpYxwfcexFks7uahO+bkQfDoXA/bt38idKulMmFI8NWhCX5F4pAuBJ+CnocUmz2buzHzj6juCtGcfAdP0EvBTX3/g5H8yd1tW6dNbgxVtJAmAYH5V0q8xULu+WEL9LkpdvviHzWJivg4CX8frj7NWuRJ2zvb0rG+6H30W00gTgppI+OSMZbyo6v6vD/v7uAc9lkj7Tf1hPMGMQZhzKu1Fv0n9u3H0J3E6SV/O5kOdc7bC5l/vuNbHSBMC+3reri/76uaKxyzgWBovBrOuyF57zNg/v/Se+8FN366UyWvyh3/4TKFEA7ONzJT01lTb9IVAQgcdLeklB/lzrSqkCYN+8QupupQHDHwhMIFDU7/5V/0sWAO4EJpxpdCmOgBcQPbw4r3qHShcAuxlRZaVU/vi13QS8vuX0kqdYgwCYn2sL+jbKT1BpECidgOsCenm7XzUX3WoRAEM8pBMAVxdKzSdYdEBwrnoCznbli//TNcykJgHY4eknqV5GSYNAaQRc9yJ6w1DWOdYoAAZygqTHSLplVjoYh8AwAh/r1/X7DrWqVqsAGPL1ehHw3YAXedAgMDcBLxZzFl9nub567sEjxqtZAHbm72cDvhvw5wYRULABgQ0Eruwvel/4LntfbdsGAdiB730EO0Jw3WojguMlE/jqyoX/qZIdHerbNgnAzpxvLelh/e6umw0FwXEQ2IOAM05fKOkV/Y7VrYG1jQKwGpydbZ7+ixhszWk7y0Q+3q0/Oa+/8J1UZivbtgvAatDuIOne/ToCxGArT+fkSfmif6Okt3TbhD+UbK0CAy0JwGo4/PrwFpJu2H9c5GHn3/679LbRCk6dKl30Nm8X89j5XLHy70sl+dNUa1UANgX54F4QnECCVj8BJ3jxRf+l+qcSOwMEIJYn1iBQFQEEoKpw4SwEYgkgALE8sQaBqgggAFWFC2chEEsAAYjliTUIVEUAAagqXDgLgVgCCEAsT6xBoCoCCEBV4cJZCMQSQABieWINAlURQACqChfOQiCWAAIQyxNrEKiKAAJQVbhwFgKxBBCAWJ5Yg0BVBBCAqsKFsxCIJYAAxPLEGgSqIoAAVBUunIVALAEEIJYn1iBQFQEEoKpw4SwEYgkgALE8sQaBqgggAFWFC2chEEsAAYjliTUIVEUAAagqXDgLgVgCCEAsT6xBoCoCCEBV4cJZCMQSQABieWINAlURQACqChfOQiCWAAIQyxNrEKiKAAJQVbhwFgKxBBCAWJ5Yg0BVBBCAqsKFsxCIJYAAxPLEGgSqIoAAVBUunIVALAEEIJYn1iBQFQEEoKpw4SwEYgkgALE8sQaBqgggAFWFC2chEEsAAYjliTUIVEUAAagqXDgLgVgCCEAsT6xBoCoCCEBV4cJZCMQSQABieWINAlURQACqChfOQiCWAAIQyxNrEKiKAAJQVbhwFgKxBBCAWJ5Yg0BVBBCAqsKFsxCIJYAAxPLEGgSqIoAAVBUunIVALAEEIJYn1iBQFQEEoKpw4SwEYgkgALE8sQaBqgggAFWFC2chEEsAAYjliTUIVEUAAagqXDgLgVgCCEAsT6xBoCoCCEBV4cJZCMQSQABieWINAlURQACqChfOQiCWwP8BvkGYH0emowgAAAAASUVORK5CYII=;fontStyle=1;fontSize=17;fontColor=#FFFFFF;labelPosition=center;align=center;rounded=1;textShadow=1;" vertex="1" parent="1">
          <mxGeometry x="470" y="70" width="75" height="70" as="geometry" />
        </mxCell>
        <mxCell id="vqLbyj1tlcazgdX1yOUi-11" style="edgeStyle=orthogonalEdgeStyle;shape=connector;rounded=1;orthogonalLoop=1;jettySize=auto;html=1;exitX=1;exitY=0.5;exitDx=0;exitDy=0;entryX=0;entryY=0.5;entryDx=0;entryDy=0;strokeColor=#ffffff;strokeWidth=3;align=center;verticalAlign=middle;fontFamily=Helvetica;fontSize=20;fontColor=#000000;fontStyle=1;labelBackgroundColor=none;endArrow=classicThin;endFill=1;flowAnimation=1;textShadow=1;" edge="1" parent="1" source="vqLbyj1tlcazgdX1yOUi-9" target="vqLbyj1tlcazgdX1yOUi-10">
          <mxGeometry relative="1" as="geometry" />
        </mxCell>
        <mxCell id="vqLbyj1tlcazgdX1yOUi-12" value="SYN" style="edgeLabel;html=1;align=center;verticalAlign=middle;resizable=0;points=[];strokeColor=default;fontFamily=Helvetica;fontSize=10;fontColor=#000000;fontStyle=1;labelBackgroundColor=#e4f500;fillColor=default;rounded=1;textShadow=1;" vertex="1" connectable="0" parent="vqLbyj1tlcazgdX1yOUi-11">
          <mxGeometry x="-0.1" y="1" relative="1" as="geometry">
            <mxPoint as="offset" />
          </mxGeometry>
        </mxCell>
        <mxCell id="vqLbyj1tlcazgdX1yOUi-9" value="Client" style="rounded=1;whiteSpace=wrap;html=1;strokeColor=#9673a6;align=center;verticalAlign=top;fontFamily=Helvetica;fontSize=14;fontStyle=1;labelBackgroundColor=none;fillColor=#e1d5e7;textShadow=1;" vertex="1" parent="1">
          <mxGeometry x="420" y="180" width="60" height="30" as="geometry" />
        </mxCell>
        <mxCell id="vqLbyj1tlcazgdX1yOUi-10" value="Server" style="rounded=1;whiteSpace=wrap;html=1;strokeColor=#9673a6;align=center;verticalAlign=top;fontFamily=Helvetica;fontSize=14;fontStyle=1;labelBackgroundColor=none;fillColor=#e1d5e7;textShadow=1;" vertex="1" parent="1">
          <mxGeometry x="540" y="180" width="60" height="30" as="geometry" />
        </mxCell>
        <mxCell id="vqLbyj1tlcazgdX1yOUi-13" style="edgeStyle=orthogonalEdgeStyle;shape=connector;rounded=1;orthogonalLoop=1;jettySize=auto;html=1;exitX=0;exitY=0.5;exitDx=0;exitDy=0;entryX=1;entryY=0.5;entryDx=0;entryDy=0;strokeColor=#ffffff;strokeWidth=3;align=center;verticalAlign=middle;fontFamily=Helvetica;fontSize=20;fontColor=#000000;fontStyle=1;labelBackgroundColor=none;endArrow=classicThin;endFill=1;flowAnimation=1;textShadow=1;" edge="1" parent="1" source="vqLbyj1tlcazgdX1yOUi-16" target="vqLbyj1tlcazgdX1yOUi-15">
          <mxGeometry relative="1" as="geometry" />
        </mxCell>
        <mxCell id="vqLbyj1tlcazgdX1yOUi-14" value="SYN&lt;div&gt;ACK&lt;/div&gt;" style="edgeLabel;html=1;align=center;verticalAlign=middle;resizable=0;points=[];strokeColor=default;fontFamily=Helvetica;fontSize=10;fontColor=#000000;fontStyle=1;labelBackgroundColor=#e4f502;fillColor=default;rounded=1;textShadow=1;" vertex="1" connectable="0" parent="vqLbyj1tlcazgdX1yOUi-13">
          <mxGeometry x="-0.1" y="1" relative="1" as="geometry">
            <mxPoint as="offset" />
          </mxGeometry>
        </mxCell>
        <mxCell id="vqLbyj1tlcazgdX1yOUi-15" value="Client" style="rounded=1;whiteSpace=wrap;html=1;strokeColor=#9673a6;align=center;verticalAlign=top;fontFamily=Helvetica;fontSize=14;fontStyle=1;labelBackgroundColor=none;fillColor=#e1d5e7;textShadow=1;" vertex="1" parent="1">
          <mxGeometry x="420" y="230" width="60" height="30" as="geometry" />
        </mxCell>
        <mxCell id="vqLbyj1tlcazgdX1yOUi-16" value="Server" style="rounded=1;whiteSpace=wrap;html=1;strokeColor=#9673a6;align=center;verticalAlign=top;fontFamily=Helvetica;fontSize=14;fontStyle=1;labelBackgroundColor=none;fillColor=#e1d5e7;textShadow=1;" vertex="1" parent="1">
          <mxGeometry x="540" y="230" width="60" height="30" as="geometry" />
        </mxCell>
        <mxCell id="vqLbyj1tlcazgdX1yOUi-17" style="edgeStyle=orthogonalEdgeStyle;shape=connector;rounded=1;orthogonalLoop=1;jettySize=auto;html=1;exitX=1;exitY=0.5;exitDx=0;exitDy=0;entryX=0;entryY=0.5;entryDx=0;entryDy=0;strokeColor=#ffffff;strokeWidth=3;align=center;verticalAlign=middle;fontFamily=Helvetica;fontSize=20;fontColor=#000000;fontStyle=1;labelBackgroundColor=none;endArrow=classicThin;endFill=1;flowAnimation=1;textShadow=1;" edge="1" parent="1" source="vqLbyj1tlcazgdX1yOUi-19" target="vqLbyj1tlcazgdX1yOUi-20">
          <mxGeometry relative="1" as="geometry" />
        </mxCell>
        <mxCell id="vqLbyj1tlcazgdX1yOUi-18" value="ACK" style="edgeLabel;html=1;align=center;verticalAlign=middle;resizable=0;points=[];strokeColor=default;fontFamily=Helvetica;fontSize=10;fontColor=#000000;fontStyle=1;labelBackgroundColor=#e4f502;fillColor=default;rounded=1;textShadow=1;" vertex="1" connectable="0" parent="vqLbyj1tlcazgdX1yOUi-17">
          <mxGeometry x="-0.1" y="1" relative="1" as="geometry">
            <mxPoint as="offset" />
          </mxGeometry>
        </mxCell>
        <mxCell id="vqLbyj1tlcazgdX1yOUi-19" value="Client" style="rounded=1;whiteSpace=wrap;html=1;strokeColor=#9673a6;align=center;verticalAlign=top;fontFamily=Helvetica;fontSize=14;fontStyle=1;labelBackgroundColor=none;fillColor=#e1d5e7;textShadow=1;" vertex="1" parent="1">
          <mxGeometry x="420" y="280" width="60" height="30" as="geometry" />
        </mxCell>
        <mxCell id="vqLbyj1tlcazgdX1yOUi-23" style="edgeStyle=orthogonalEdgeStyle;shape=connector;rounded=1;orthogonalLoop=1;jettySize=auto;html=1;exitX=1;exitY=0.5;exitDx=0;exitDy=0;strokeColor=#ffffff;strokeWidth=3;align=center;verticalAlign=middle;fontFamily=Helvetica;fontSize=20;fontColor=#ffffff;fontStyle=1;labelBackgroundColor=none;endArrow=classicThin;endFill=1;flowAnimation=1;textShadow=1;shadow=1;" edge="1" parent="1" source="vqLbyj1tlcazgdX1yOUi-20" target="vqLbyj1tlcazgdX1yOUi-7">
          <mxGeometry relative="1" as="geometry">
            <Array as="points">
              <mxPoint x="620" y="295" />
              <mxPoint x="620" y="160" />
              <mxPoint x="520" y="160" />
            </Array>
          </mxGeometry>
        </mxCell>
        <mxCell id="vqLbyj1tlcazgdX1yOUi-20" value="Server" style="rounded=1;whiteSpace=wrap;html=1;strokeColor=#9673a6;align=center;verticalAlign=top;fontFamily=Helvetica;fontSize=14;fontStyle=1;labelBackgroundColor=none;fillColor=#e1d5e7;textShadow=1;" vertex="1" parent="1">
          <mxGeometry x="540" y="280" width="60" height="30" as="geometry" />
        </mxCell>
        <mxCell id="vqLbyj1tlcazgdX1yOUi-41" style="edgeStyle=orthogonalEdgeStyle;rounded=1;orthogonalLoop=1;jettySize=auto;html=1;exitX=1;exitY=0.5;exitDx=0;exitDy=0;strokeColor=#E07A5F;fontColor=#393C56;fillColor=#F2CC8F;strokeWidth=3;endArrow=classicThin;endFill=1;flowAnimation=1;shadow=1;textShadow=1;" edge="1" parent="1" source="vqLbyj1tlcazgdX1yOUi-24" target="vqLbyj1tlcazgdX1yOUi-40">
          <mxGeometry relative="1" as="geometry" />
        </mxCell>
        <mxCell id="vqLbyj1tlcazgdX1yOUi-24" value="三次握手" style="text;html=1;align=center;verticalAlign=middle;whiteSpace=wrap;rounded=1;fontFamily=Helvetica;fontSize=16;fontColor=#ffffff;fontStyle=1;labelBackgroundColor=none;textShadow=1;" vertex="1" parent="1">
          <mxGeometry x="529" y="90" width="101" height="30" as="geometry" />
        </mxCell>
        <mxCell id="vqLbyj1tlcazgdX1yOUi-31" style="edgeStyle=orthogonalEdgeStyle;shape=connector;rounded=1;orthogonalLoop=1;jettySize=auto;html=1;exitX=0;exitY=0.5;exitDx=0;exitDy=0;entryX=0;entryY=0.5;entryDx=0;entryDy=0;strokeColor=#ffffff;strokeWidth=3;align=center;verticalAlign=middle;fontFamily=Helvetica;fontSize=20;fontColor=#ffffff;fontStyle=1;labelBackgroundColor=none;endArrow=classicThin;endFill=1;flowAnimation=1;textShadow=1;" edge="1" parent="1" source="vqLbyj1tlcazgdX1yOUi-25" target="vqLbyj1tlcazgdX1yOUi-26">
          <mxGeometry relative="1" as="geometry" />
        </mxCell>
        <mxCell id="vqLbyj1tlcazgdX1yOUi-25" value="&lt;span style=&quot;text-wrap: nowrap;&quot;&gt;域名对应ip？&lt;/span&gt;" style="rounded=1;whiteSpace=wrap;html=1;strokeColor=#82b366;align=center;verticalAlign=top;fontFamily=Helvetica;fontSize=17;fontStyle=1;labelBackgroundColor=none;fillColor=#d5e8d4;textShadow=1;" vertex="1" parent="1">
          <mxGeometry x="110" y="208" width="154" height="34" as="geometry" />
        </mxCell>
        <mxCell id="vqLbyj1tlcazgdX1yOUi-32" style="edgeStyle=orthogonalEdgeStyle;shape=connector;rounded=1;orthogonalLoop=1;jettySize=auto;html=1;exitX=1;exitY=0.5;exitDx=0;exitDy=0;entryX=1;entryY=0.75;entryDx=0;entryDy=0;strokeColor=#ffffff;strokeWidth=3;align=center;verticalAlign=middle;fontFamily=Helvetica;fontSize=20;fontColor=#ffffff;fontStyle=1;labelBackgroundColor=none;endArrow=classicThin;endFill=1;flowAnimation=1;textShadow=1;" edge="1" parent="1" source="vqLbyj1tlcazgdX1yOUi-26" target="vqLbyj1tlcazgdX1yOUi-27">
          <mxGeometry relative="1" as="geometry" />
        </mxCell>
        <mxCell id="vqLbyj1tlcazgdX1yOUi-35" value=".com" style="edgeLabel;html=1;align=center;verticalAlign=middle;resizable=0;points=[];strokeColor=default;fontFamily=Helvetica;fontSize=14;fontColor=#000000;fontStyle=1;labelBackgroundColor=#e4f502;fillColor=default;rounded=1;textShadow=1;" vertex="1" connectable="0" parent="vqLbyj1tlcazgdX1yOUi-32">
          <mxGeometry x="-0.0244" y="-1" relative="1" as="geometry">
            <mxPoint as="offset" />
          </mxGeometry>
        </mxCell>
        <mxCell id="vqLbyj1tlcazgdX1yOUi-26" value="&lt;span style=&quot;text-wrap: nowrap;&quot;&gt;根域名&lt;/span&gt;" style="rounded=1;whiteSpace=wrap;html=1;strokeColor=#82b366;align=center;verticalAlign=top;fontFamily=Helvetica;fontSize=17;fontStyle=1;labelBackgroundColor=none;fillColor=#d5e8d4;textShadow=1;" vertex="1" parent="1">
          <mxGeometry x="110" y="260" width="154" height="34" as="geometry" />
        </mxCell>
        <mxCell id="vqLbyj1tlcazgdX1yOUi-33" style="edgeStyle=orthogonalEdgeStyle;shape=connector;rounded=1;orthogonalLoop=1;jettySize=auto;html=1;exitX=0;exitY=0.5;exitDx=0;exitDy=0;entryX=0;entryY=0.5;entryDx=0;entryDy=0;strokeColor=#ffffff;strokeWidth=3;align=center;verticalAlign=middle;fontFamily=Helvetica;fontSize=20;fontColor=#ffffff;fontStyle=1;labelBackgroundColor=none;endArrow=classicThin;endFill=1;flowAnimation=1;textShadow=1;" edge="1" parent="1" source="vqLbyj1tlcazgdX1yOUi-27" target="vqLbyj1tlcazgdX1yOUi-28">
          <mxGeometry relative="1" as="geometry" />
        </mxCell>
        <mxCell id="vqLbyj1tlcazgdX1yOUi-36" value="mypage.com" style="edgeLabel;html=1;align=center;verticalAlign=middle;resizable=0;points=[];strokeColor=default;fontFamily=Helvetica;fontSize=14;fontColor=#000000;fontStyle=1;labelBackgroundColor=#e4f502;fillColor=default;rounded=1;textShadow=1;" vertex="1" connectable="0" parent="vqLbyj1tlcazgdX1yOUi-33">
          <mxGeometry x="-0.1739" y="1" relative="1" as="geometry">
            <mxPoint x="35" y="3" as="offset" />
          </mxGeometry>
        </mxCell>
        <mxCell id="vqLbyj1tlcazgdX1yOUi-27" value="&lt;span style=&quot;text-wrap: nowrap;&quot;&gt;一级域名&lt;/span&gt;" style="rounded=1;whiteSpace=wrap;html=1;strokeColor=#82b366;align=center;verticalAlign=top;fontFamily=Helvetica;fontSize=17;fontStyle=1;labelBackgroundColor=none;fillColor=#d5e8d4;textShadow=1;" vertex="1" parent="1">
          <mxGeometry x="108" y="312" width="154" height="34" as="geometry" />
        </mxCell>
        <mxCell id="vqLbyj1tlcazgdX1yOUi-34" style="edgeStyle=orthogonalEdgeStyle;shape=connector;rounded=1;orthogonalLoop=1;jettySize=auto;html=1;exitX=1;exitY=0.5;exitDx=0;exitDy=0;entryX=1;entryY=0.5;entryDx=0;entryDy=0;strokeColor=#ffffff;strokeWidth=3;align=center;verticalAlign=middle;fontFamily=Helvetica;fontSize=20;fontColor=#ffffff;fontStyle=1;labelBackgroundColor=none;endArrow=classicThin;endFill=1;flowAnimation=1;textShadow=1;" edge="1" parent="1" source="vqLbyj1tlcazgdX1yOUi-28" target="vqLbyj1tlcazgdX1yOUi-29">
          <mxGeometry relative="1" as="geometry" />
        </mxCell>
        <mxCell id="vqLbyj1tlcazgdX1yOUi-39" value="www.mypage.com" style="edgeLabel;html=1;align=center;verticalAlign=middle;resizable=0;points=[];strokeColor=default;fontFamily=Helvetica;fontSize=14;fontColor=#000000;fontStyle=1;labelBackgroundColor=#e4f502;fillColor=default;rounded=1;textShadow=1;" vertex="1" connectable="0" parent="vqLbyj1tlcazgdX1yOUi-34">
          <mxGeometry x="0.1522" relative="1" as="geometry">
            <mxPoint x="-16" y="-9" as="offset" />
          </mxGeometry>
        </mxCell>
        <mxCell id="vqLbyj1tlcazgdX1yOUi-28" value="&lt;span style=&quot;text-wrap: nowrap;&quot;&gt;二级域名&lt;/span&gt;" style="rounded=1;whiteSpace=wrap;html=1;strokeColor=#82b366;align=center;verticalAlign=top;fontFamily=Helvetica;fontSize=17;fontStyle=1;labelBackgroundColor=none;fillColor=#d5e8d4;textShadow=1;" vertex="1" parent="1">
          <mxGeometry x="108" y="364" width="154" height="34" as="geometry" />
        </mxCell>
        <mxCell id="vqLbyj1tlcazgdX1yOUi-37" style="edgeStyle=orthogonalEdgeStyle;shape=connector;rounded=1;orthogonalLoop=1;jettySize=auto;html=1;exitX=0.5;exitY=1;exitDx=0;exitDy=0;entryX=0.5;entryY=1;entryDx=0;entryDy=0;strokeColor=#ffffff;strokeWidth=3;align=center;verticalAlign=middle;fontFamily=Helvetica;fontSize=20;fontColor=#ffffff;fontStyle=1;labelBackgroundColor=none;endArrow=classicThin;endFill=1;flowAnimation=1;textShadow=1;" edge="1" parent="1" source="vqLbyj1tlcazgdX1yOUi-29" target="vqLbyj1tlcazgdX1yOUi-5">
          <mxGeometry relative="1" as="geometry" />
        </mxCell>
        <mxCell id="vqLbyj1tlcazgdX1yOUi-38" value="123.99.88.xx" style="edgeLabel;html=1;align=center;verticalAlign=middle;resizable=0;points=[];strokeColor=default;fontFamily=Helvetica;fontSize=14;fontColor=#000000;fontStyle=1;labelBackgroundColor=#e4f502;fillColor=default;rounded=1;textShadow=1;" vertex="1" connectable="0" parent="vqLbyj1tlcazgdX1yOUi-37">
          <mxGeometry x="0.2727" relative="1" as="geometry">
            <mxPoint x="-77" y="70" as="offset" />
          </mxGeometry>
        </mxCell>
        <mxCell id="vqLbyj1tlcazgdX1yOUi-29" value="&lt;span style=&quot;text-wrap: nowrap;&quot;&gt;三级域名&lt;/span&gt;" style="rounded=1;whiteSpace=wrap;html=1;strokeColor=#82b366;align=center;verticalAlign=top;fontFamily=Helvetica;fontSize=17;fontStyle=1;labelBackgroundColor=none;fillColor=#d5e8d4;textShadow=1;" vertex="1" parent="1">
          <mxGeometry x="108" y="416" width="154" height="34" as="geometry" />
        </mxCell>
        <mxCell id="vqLbyj1tlcazgdX1yOUi-45" style="edgeStyle=orthogonalEdgeStyle;shape=connector;rounded=1;orthogonalLoop=1;jettySize=auto;html=1;exitX=0.5;exitY=1;exitDx=0;exitDy=0;entryX=0.5;entryY=0;entryDx=0;entryDy=0;strokeColor=#E07A5F;strokeWidth=3;align=center;verticalAlign=middle;fontFamily=Helvetica;fontSize=11;fontColor=#393C56;labelBackgroundColor=default;endArrow=none;endFill=0;flowAnimation=1;fillColor=#F2CC8F;" edge="1" parent="1" source="vqLbyj1tlcazgdX1yOUi-40" target="vqLbyj1tlcazgdX1yOUi-44">
          <mxGeometry relative="1" as="geometry" />
        </mxCell>
        <mxCell id="vqLbyj1tlcazgdX1yOUi-40" value="Http Request" style="rounded=1;whiteSpace=wrap;html=1;strokeColor=#6c8ebf;fillColor=#dae8fc;fontStyle=1;fontSize=14;textShadow=1;" vertex="1" parent="1">
          <mxGeometry x="716" y="85" width="112" height="40" as="geometry" />
        </mxCell>
        <mxCell id="vqLbyj1tlcazgdX1yOUi-42" value="服务器响应&lt;div&gt;Server Response&lt;/div&gt;" style="rounded=1;whiteSpace=wrap;html=1;strokeColor=#6c8ebf;fillColor=#dae8fc;fontStyle=1;fontSize=14;textShadow=1;" vertex="1" parent="1">
          <mxGeometry x="712" y="432" width="121" height="40" as="geometry" />
        </mxCell>
        <mxCell id="vqLbyj1tlcazgdX1yOUi-46" style="edgeStyle=orthogonalEdgeStyle;shape=connector;rounded=1;orthogonalLoop=1;jettySize=auto;html=1;exitX=0.5;exitY=1;exitDx=0;exitDy=0;strokeColor=#E07A5F;strokeWidth=3;align=center;verticalAlign=middle;fontFamily=Helvetica;fontSize=11;fontColor=#393C56;labelBackgroundColor=default;endArrow=classicThin;endFill=1;flowAnimation=1;fillColor=#F2CC8F;" edge="1" parent="1" source="vqLbyj1tlcazgdX1yOUi-44" target="vqLbyj1tlcazgdX1yOUi-42">
          <mxGeometry relative="1" as="geometry" />
        </mxCell>
        <mxCell id="vqLbyj1tlcazgdX1yOUi-47" value="http://www.mypage.com" style="edgeLabel;html=1;align=center;verticalAlign=middle;resizable=0;points=[];rounded=1;strokeColor=#E07A5F;fontFamily=Helvetica;fontSize=14;fontColor=#393C56;labelBackgroundColor=#e4f502;fillColor=#F2CC8F;fontStyle=1" vertex="1" connectable="0" parent="vqLbyj1tlcazgdX1yOUi-46">
          <mxGeometry x="-0.0968" y="1" relative="1" as="geometry">
            <mxPoint as="offset" />
          </mxGeometry>
        </mxCell>
        <mxCell id="vqLbyj1tlcazgdX1yOUi-44" value="" style="shape=image;verticalLabelPosition=bottom;labelBackgroundColor=default;verticalAlign=top;aspect=fixed;imageAspect=0;image=data:image/png,iVBORw0KGgoAAAANSUhEUgAAAQAAAAEACAYAAABccqhmAAAAAXNSR0IArs4c6QAAIABJREFUeF7tfXmcHFW1//dUTyYJILig8jDwkq6OJOnqIBAICCKKCW4EBVkEfSagKCgqoMl0dXgMP9LVybigIouAgA9FEEUT9CmgEBGUJYhMV2eC6epEQFxAnyghmaXr/HJnJjHLzHT1vbd6m6p/+JC533PP/d6qb9/1HEL0NDUDaw47d8LEv+87E4Y/E2zMBGEPYuzBBu1hMPYA4xUM3p+J9ybQngAmA5gIYAIAY7jxPoB+AL0ANjN4EzH9k0DPgfAvn/Ay+fwyE14G42WQ3wPf6Ol99Qs9cx6/TuCip0kZoCb1e9y57cWX7NNrtM1k35/pE80kxgwQZgJI1JmMIhg9TFhnMPeQYfRM9Ad6zNKKF+vsV1R9AAYiAQhAUq2LPDG1Y2osZhxnMOaAeCaBZjCwf639UKmPgOcYvA5MPT5hTbnsrz5k4/KNKjYjrH4GIgHQz2nVFvPTl4pf9rkG8FYAxwGYWrWR5gAIAVjtA78kw3gktX5ZT3O43bpeRgJQh75dm7APLfs8l4iOaPEPvhK7g4LAzI/GDHpkVtH5bSVA9He9DEQCoJfPEa258SUHErUtAHAMg+e28C+8KpsbCfQIgAeZB1ZZpRVPqxqM8GMzEAlASG/In2d/bs+/vtR+EhEvAGgBDa2+R09ABhjYDPAqZlr1ur36Vu7X/cVNAaFRsSoYiASgCrKCFHUT9gnwsQAE8Ys/JQgmKlORgWfBWAUDq6yic3fF0lGBwAxEAhCYqtELuvGOw0GxBYD4tcdsDSYjE6Mz0A3QKnB5lVVa/lhElBoDkQBI8vdkYvGUmN92KoaG+GLlPnpqzgCvBtOqsjFwx8HFrmdrXn0LVBgJQJWdKLbsDN9fxMBCAK+tEh4VD4eB5wm42TeMm6KtxeoIjgQgIF+F6em5vk+LaOjDF0dpo6fxGOhl4GbD4JuS63NiNyF6KjAQCUAFgvLT7HlGDAuZcWb0NjUPA0S41S/j5tQG597m8br2nkYCMArnbjxzCgwsBPN7a98tUY3aGCD6MXzcbJWyP9Bms4UMRQKwS2cWTHuhz1hEhGNbqJ/HfVOY8YBBuCnpOTePezJ2ICASgGEy3ETmRDAvAXB09IK0NAMPgWiFVcze1dKtDNi4cS8ABbMjwTDEh//RgJxFxVqDgRsI/oqkt7zYGs2Ra8W4FoBCIn0RMy0G8Ho5+hoe9QKAfRW91GFD0YXQ4H8h4q5kMffl0GpocMPjUgAKpv0uBi9u5QM8xPRNYlzuG6x0B9/waSoTLmHicxr8XVZwj1cTqCvpOT9VMNKU0HElACLQRnubsZgZ5zVlbwVwmkAFBi+zPOc2Udw1bQ4AG7WI5TmD74hr2mcQaCmDkyr2GhlLhGv6Bvyu8RS4ZNwIQMG0L/CBJQS8oZFfQhXfCPjq5ljvsjm//5IYtg8+ugRA2Frzxov3nVyeuJSBz6j42chYBv5oACuSnnNlI/upy7eWFwDXTB+99Sewk0Dv0EWaop0tACYp2tgdznShVcp+Zdc/6BSA7aISz3wWxFdobwMQDjcSjjL451s/jk7Lyz0kAW8aSEsLwPCv/op638Xfenx4ow9eZQCzWLMQEbDFB52Z8rI/HOmtC0MARD15M/N+A3wraxYzAv/cB9YaoAVbj/XWNTSaiElgAEtaeTTQkgKQn2a/ngwsx9C5/fo8hE1gXsUwVu5VnrDyJaN3ERFdrdmZZ9raBpIznur612h2wxIAUd+6gxa/YmCgrQDgAJ3tYubz9/In3vRSrP8kgn8SiBaAIUKa1+u5mX10pDY4f6mXA2HV23ICMLTCP/jx1+dePuFRYrrFB1amvOwzg7+W0+zZhkG/YLDqltwO7wGvtrzc2yq9GGEKwPYpgZm+X+eOCoFe8H0+PrXB6R4ebRxgACcx8YfBEHEU6/F0bx1tdbTaTkFLCUDetDMELKvH28Hg1SDcmCrmbtl9Hp5eKcKC6fMr2Mcv6quFAAzVo1cERDgwy8udtCtn+URaiMDZVKcYDAwsTXlOVl9f1tdSSwjA8Gm+FQBOrjWdBPzEYL5xZil350h1u2ZanDcQvml6gn/8tRSAkERgieXlukYirieePtknOpuB92githozdxL8Ja1wirDpBSBvdpxOMMSQv9YLRncQjBuT3rKfjfbmiB0Ighj664ofwKu3sP++OVVk3anVCEBwsCa+ZJ9JZPxI13SAgF4GHz/WSnzBXPpOhn82gFOr+YI1lN3I8DtS3vLbNdiqm4mmFgDXTK8ABo/y1vDhb/m+cePsDdkHKlXqmvZ9ACrO0yvZEX9nwJ0Y80964++Xl4KU31amlgIg6vz9GzvivWVjJQFWNX6OUfZ+y3PeXslW97TMsYYhhIA+Uqms3r9zl+XlxF2SpnyaUgDWJy7du4/7/4eB3eaIIfbCbcz0pVQpuyZIHWILkoGvBSkboIxvsHHCrNKynwcou1ORWguAqHxtfOk7fPJF9N5tyUerdXun8gR8OuhWXD6emUPEF2/dpDhDqdIqwASsbKcJ/zW9eNk/q4A1RNGmE4D1iUun9HL/d0WSjVowyEC3wViRLDm3Bq2vMKXz1TyxT4Sk0pO4c5RDPkH8qYcACL9cvYeFitTbPjf5bOffg7RZlCnE7TN9Gjz5WavdoAcn0oQPTi9e1lTBSZtKAAqJ9Cxm4/sAi6y4YT/9YvGura2/a6x99pGcyMftTiJcqsNBcaknWcpKX1WulwAMfYSZG3RdImLGZamS01kNp0PnFCYsBgbjPIh06CE/1EPkfyBZzK0NuSJt5ptGALoT6aOIScwtQ4/Ey8Cdhk8rkhuyj1bL9OCOBBuPgPDqarG7lWc8MhnlE1RSbddTAERK882I3Q2CSIem9jD+TuTPlVl5L0zLHOEbLEYDoe8SMfA8E580u5j7jVqDa4NuCgEYzLbD+F9dc8oxqO0Rv/qWl/2WLP150/4aARfI4rfjGJtAfILqWfR6CsDgVMBMHw0mIQLKJ/kYuDLlOZ+W5dY1Mx8ZHg2EPYL0QXh3M2QxangBKCQypzLz92Q7PSjOB3fFeieuqGaeuavtJ6em58Zi9HDQOscux6PugVdjv94CMCwC2s5ClMt85MEb5UN+i/WZ8sTeJUYNdo+I6LRkMXtHNf1V67INLQD5RPocYrohVFIYv2PGYh3ho/Px9LeJ6CwN/j5keY6WRc5GEIAhEbAf1BFvkZm/kyrlPqTKsQj3ToQuEN6kamssPBN/NFXMfTPMOlRsN6wAuAn7QjDCDtV080TixdOLuedVSBTY4TsIYpqi/BAZJyWLy1YpG6rhUeBKvhYSSxcw+ysrlQvydwLereNM/vpE+rW9TOKkYbiXxggXWUUnjOvTQegas0xDCoDOVfSRW8/9YCy2Srnd7s/LMlow7TsZeL8sfhuOB+8TONrCbzXKCEC0L5+wRZgycWpP6SHgh0nP0bag58bTn4UYDYBC2ymQ2cVQIikguOEEoBC3z2ZCmEOmx5j8xani8tUBOapYLG9m3kxg5cAR4hZczKdjZmxY9lTFSgMWaCQBWDdt6UFlgx/UcSuSQUenvOyvA9JQsVg+0XEcsSFGA4dXLCxZgBjnJEvOjZLwUGANJQBrp9nzfAP3hNLSQaN0fX95wuJDNnb+Q2cdedO+hoBPqNvUs/C3ox+NJADCL12Xoxi4NuU5WmM7PjG185UTYv1dAH9MvS9HtmD4mD+rgdKVNYwArE1kjvSZw9k7FcE5QIutYlZ3QA7kE0tNYv93APZSeWkI9HjSy85RsTESttEEQPhYMDNrGHyYYltfYjLelCou8xTt7AZ3E5nzAe4KKwiJQXTUrGJW026RWusbQgDcaUsOhhETH5H+h/G7GNEnZ2ocLu7opK71CgJ9POllr9NNQIMKwLkM/oZqW8OcV/eYmTeXma8KbZfAL7/J2rDiSVUOVPF1F4C18aXTffLF0ck21cbsjufV/WVeFFaY50Kycy/e0ieEy1TxPaxf/6Eht56w4CrtGwmraRTg0aT2NyULnS/p9k/YE2HkJ8ToJl3Xm3fxccBgY9as0rL1Yfge1GZdBeDJxOIpbX7bA0yYFtThoOUI+FHSc5RX5ceqrxDPfIKJrwnq02jlwvr1b3AB0DIKIKbzkqXstap9MGY/m/YPGXif7jqIsWHAGDj24GJX3S4Q1U0AemakX+P30Z0cThbemy3PWaS7w3a155q2WPl/s0o9Yf76N7IACN80jQJ+bXlO6AldXdO+KYzzAiSyFrfzyTPX5f6m8h7JYusiAM9MuXDyPydO/gED75J1fFQc0VesYvZC7XZ3MSjCYhN4xDBg1dQd5q9/EwiAllEAg04eLSx6NX1RqaybyFwB5s9WKlft3wn46d69m0854NkrNleLVS1fFwFwTfsHYcTvE+GkU6Wc8pA8CKl5076dgNOClB1j6B/Kyv+O9TXqGsA2H3WMAhj4XspzTlfpi6DYfDx9Xgjh3UX1d1qec0pQP3SVq7kAhBXGyyc+bnYx90tdxIxlR9fCpcF8/qyQBavRBWBtPH2er54voaYLat2J9FsNJm0Hyf79rtU+vFhNBWA4gOdg0kqdTx/x6w7VcJ4/qE9u3F4CGsw9IP2IHHTc76dmP738/6SNBAA2ugB0H9jxKppg5JVzNjI6rJKjMfry2OT+NpF+bTvTXwN0QVVFGP4ZtQw0WjMBGA7dfa/u6L0v0b/2ObJ4ZU1jsblm+lGAlI6MEuiLSS/7+areDonCjS4AokkFM/MFBn9Oonk7QPgxy8vVNGnIw4kL9t6LX/Gimt+7oTcS/HkygU9k/KiZAIQx72djYFZqfVePTMNlMflEx3xiQwS8VHp8+HNme8sfVzISANwMAtBtdhxmwAgUbHWsJjP5J6SKy0M8Sr577fnpi2eS36Y7BFjN1gNqIgBhZOzx2Z83u7S86ii5Ab6ZMYsUTPtaBj6uaKdmHdwMAiC41PEDQcA3kp6j4U5Gdb3bHe94h0GGGN1qe2qVgSh0AdB5T/7f7PJCy8tJh+2S7aXheZ9IhqkUl7CWkWKaRQA0RX56vo84Wcv1oG3vkmumPwLQzbLv1kg4XXEPxvIpVAEYztIrhmTaQjMzcSZVzDk6iQ5qq9tMf9wAqZ06Y/zOKjmHBK1TtVyzCMDgKCBuP6F69t4Hf2K2l1O+ZyDDez6RtolJZ97AbvYxP8ysxKEKgPbTU4yrrZLzSZnO0YFx45m7QTxfyVaNV6ubTACUd1fAdI9Vyp6g1EcKYDduiwtE5yuY2BUa6qnW0ARAc2YciOwrSc/Rfh47aEe58UsOB5WrDhO+o30Gl0Gxg8K4wjpaO5pJAMTVanD5KQLFgvbLiOU4doRVuvwxJRsK4IJp/0hn1qpqMiNV63YoAiBCQW+N2HIvAZOrdWiU8muo3H5icmPnnzXZq9pMIZGxmVlpeFeLC0q7NqyZBED4XtBw8YaIMsliti7TxME2TO3cj2N9dwHQEt+Bgc1bI07NUw0RP8o6Q9XfQkVA3kzfS6B3VCwYpABhU4xpflj3+YO4MDg/NTO/ALhiksqx7NUjQmyzCYCeSNB0n+Vljw/at2GUG4wnQHyPrqAiDP55ysvN0+2r9hGA7qE/iD4ZRiSfaogcjvpTrAYzQtl/TEL7QQmvU/vpsbH8ajYBKJqdr9uCPhET8ZUqfDMZiVpOtUbydTCykAgqoukJYyqgVQBEAIW2mPGg8rHO7YTR9ZaXPVcTf9JmCmZG+dYaM76dKjkflnZCEthsAiCamY/btxBBKfZ/2Lcsg3aHa2au0xVjUBwfHyj7x+gMcKNVAAoJ+2pm6ArU+Fh/uX2+7gCeQTtux3Jabv4RTk8WndAzHDX7GsDgHDphn8aM22X6ahumljcEx/JzKNBon9gKVzo6vq0OIlyTLDradhm0CYDeAz/cz8TzdYbuln2Z1icu3buX+0sAXiNrA8AzWza3z5jzXOfLCjakoM04Alizf+cekyb3rQNwgFSjh0B/m0gT4tOLl9X0nshI/g6FHKd7dOUd0HlASJsAuGb6fm2x05gv1Jm0Q+Elgo7AH7pVu5r2NKMADI8ClEeTtQoUEqQ/hpKPkKbsQLza8nJvC1JvpTJaBKCQSF/ETF+qVFnAv4d68CGgD9uLuXH76yAoHT7SqdhV+9+gQUErtUPLiJJxlVVyPlWprlr9XefBOCK+OFnMKafOUxaA4Wu+IvHj62tFZFRPxEDEAP5C8I9RvTasLACuaV8P4KNRh0QMRAzUnIEbLM9RymKkJABuInMimLVksa05dVGFEQOtwADRAquYFacOpR41AdCU813K8wgUMRAxIBh4yPKcY2SpkBaAgmkvZEDESo+eiIGIgToyQMCipOdIxSKQFoB83P4lhZPUo45URlVHDDQfA8x4IFVy3irjuZQAuPHMKSD+vkyFESZiIGIgBAaYPmCVsiLfRlWPnAAkMneB+b1V1RQVjhiIGAiPAaIfW8XsidVWULUA5KfZ88hATSOvVtuoqHzEwHhkYDh8WFXBSasWgELC/g4zzhyPBEdtjhhoZAaIcGuy6JxVjY9VCUBhenou+/RwNRVEZSMGIgZqxwAZfGRyfe6RoDVWJQB5076W1GPiB/UtKhcxEDFQJQMMfCNVRW6EwAKQn750Jvn+EwAmVulTVDxiIGKgdgz0smEcklq/LFDGrMACUDDtLgZCz2VXO56imiIGWpMBAr6Q9JzFQVoXSACeTCyeEuO236pmxAniUFQmYiBiQJmB58s0cOjBxa5nK1kKJABu3L4QBOW7x5Wcif4eMRAxoIkBxkVWyakYgCSYAGiI9kPAT5Ke0/CHhwpx22FCWqEblC5nKNQ7IrRZIwKN1BhX8fIZMXLJkmPr5li3vYJp/5iB96jZDRY1qKIAuPGOw0GGUkYc0ZAY8ykzS7k71RoVPto1Mz8F+J3yNVGX5WWXyOP1IltLADIrAA40tx2ZRfqZ5WXfpZdh/dZ64umTy0RVH+vdzRP2j7BKy8fMkFRZAMzM5QAvVWkmg1enNMUwU/EjCNY1bZF9SDq6EZFxUrK4rGFiJLSSABQSSxcw+yuD9OMoZf5iec5+CviaQfNm+n4CHadWIS2zvOwlY9kIIAD2k6rZfZn4v1LF3C1qjQkf/duDFu/fPtD2R5Wa+sv+NJ1x21V8EdhWEgCRd2JCzNigwklf28AbDn2q6zkVG7XA5hPpDxPT/yjW1W15zsHSAuAm7BPA+JmSE4RHraIzV8lGjcD5uP0eIvxYujrCJqvo7CWNDwHYSgIwKGgJ+yWVdFvMeG+q5PwkBKq1m3QT9iNgHKFkmPBOq+jcPZqNMUcAOlIdE+iCpJf9ulIjagRea9oZH1imUN1jlueodZhC5SNBW04ATFusR0kn2TCApbM8RynJq+YuGtVcwcx8isFXKtXHuNoqOaNGtR5VAP48+3N7vrCpXSRnmCLtAGETM81MedlnpG3UEOgm7O+DcYpClQ0V0rzVpgDD7RFRqBZK9xHhB1bR+YA0vobAvJk5gIh7VEY8WwP2Prvvnn0z9uv+4qaRXB9VALrj9pkG4Ttq7eXvWl6uaW4OuqbtAYjLtpmBxSnP+YIsPgxcq40A8qb9eQK6FLgqWZ5jKuBrCnXN9K0AfVClUp9x1uySc2tVApA307cR6HSVihl0RsrLKuV4U6m/Guya+JJ9JlHsH9Vgdi1rsPGeWaVl/6tiQze21QRgbXzpu33ylebwW7j8yjmlFS/q5joMe3kzczqBb1OxzeDbU17ujMAC4MaXHMgUW0fAZNmKCdi4R7l95rSNnVtkbdQSN5S/zbhfpc5G2wFoxSmAjp0AJv9tjZB3Msi7tmFq56SXY309DEwNUn6kMgxsJi7PsEornt717yNOAXQsPjD4aykv9xlZp2uNc830RwCSiqw66GsD7gC0ogAMtklxJwDghZaX+1at3zHZ+vJm+qsE+rQsfuj1HHkxfkQBcE1bpLE+Va1C//ikt/w+FRu1xLrx9H+D6DKFOhtuB6BlBUBxJwDMl1ql3P9T6OuaQgtmx9sZxi8UK73D8pzTAo0A8mb6GQLJr/4DDfkxjEVgIWF/kxlnK5DccDsALSwASjsBRLgxWXTOUejrmkNdRdFj8LMpL7dbuvXdRgBrE5kjfebfqLWQL7G8nMp+ulr1EmjXTP8CoLdLQIcgRGmrmF0ujQ8J2GqLgENTgEwHmHPylPF9lpc7Xh5fe6RrppcCdLlKzQbRUbOK2Z1C+u0mAG7CvhCsdvXX5/Ls2aUVeRVna411TbsIQHp7iIg+lCxmFbdN9be6FQWgkMicxczfVmDLszwnoYCvObQ7viRlUKxbqWLCRVZx5yvCuwuA6vyf+R6rlDtBydE6gF3T7gfQJlu1YdBbZ63PPiCLDwvXigKwdnrmWN/nXypwNmB5zgQFfF2gbjx9N4jmK1S+2zrAbgKgOv9nsJPychkFJ2sOfeqNmTf0l7li9JSxHGtrM+IznlqmdFEljIa3ogCsO2jptIEBv6TC14QYTTno91mli18q9ctg82Y6SyDpeAYjrQPsJAD5afZsMiBu/0k/DDo55WV/KG2gDkDXTB8N0IMqVScPaJ9AqzsHVGyEgW1FAeDjOtsKz/SJEZvCw8dYXu4hBQM1h+bNzPsJrBRTg30cnNrgbJ9K7CQAbsL+JBhKF3eo3P4fyY2d4k590zyFuH0mKxx73hoq/U9Jz9m/ERvcigIgeC6Y9nNbQ2D/hyznxDgrOcrxWFmbYeMKUzv341jfn5TqIXzKKjpXbbOxkwAUzMxtDFY4/stPWF7uUCUH6wAuJOw0Mxzpqhv4ynOrCoDqVVki2Mmio7CTIP22KAFdM/1bgA6RNUKg25Nedvux4J2nAMr7/3y95eXOlXWuXriCaV/LKglPGviGWQsLgNLNTQK+kawigUa93s1d63XN9HUAfUzWn13XAbYLQMHsSDCM9bKGBY6Yz06WcuKQRlM9BTPzU1aJA0j0FauYvbARG926ApC5AsyfleWcQD9LNkF8wF3bV4inFzHRjbLtHvxO4U9PesvFtjf+LQCaDas4WGusa2Z+C7D8sIro4mQx25Bh01tVAAqJzEXM/CX5d4WesLxs801XNf9QbxcAN25/HYRRI4cEIPoZy3MODFCu4Yq4pi1uSe12TDKoo0R0WrKYvSNo+VqWa2EBOJWZxZ0V2Wfcvq9gXGWVnE/tNAJQPgoLjHjZQLZ3aolzTVtES9lDtk4GHZ3ysr+WxYeJa1UByJuZNxNYZRvvZctz9gyT+7Bsq1/W+/dR6B3WAOw/MiC9lUXAp5Oeoxa/LCzGxrC7Zv/OPSZN7hsxXFJQd3acUwXF1KpcqwqAjjWrLZvb95zzXOfLteoLXfUUTPsCBr4ma4+A55Ke84btIwAvvmSfzYrRcMCxI6zS5WMmIZB1OEzcYNw18G6BEqqpcyJN2Gd68bJ/VoOpVdlWFYD1iUv37uV+pag+DDqwWeJV7vi+uPFLDgeVlZL1TObyK83SihcHRwA6bgDSpPZXJAudL9XqxdZVTyHRcQizIRKfyj5bLM+RjpwkW2lQXKsKgGi/a9qbAUwKysWu5Yj8Q5PF5SLlfVM9hWTnXryl718qTm+7GTgoABq2Fp62POc/VRyqFzY/zZ5HBu6Rr5+ftrxcw7a9tQUg/QeApBee2cf81AbnXvm+rx/SNe0/AJBu+7Yt+0EByJt2FwGfV2jO3ZbnKOTTU6hZEeqatjgV9V0FMw0d/KS1BUAtRwCAD1qeoxRwU+G9UYK6pi0S9kjfumXgCynPWTwoAG7cXgXCidIeEa6wis5F0vg6AlXjHzZ61uNWFgDVLLrNlLRm10/ETdhfBkP+8BnjLqvkLBgSANMWJwAVAiTwuZaXu76O37F01fm43UmES2UNMNFNqWJWJZSYbNWBcK0sAPlE5kZiXhSIiBEKMeOyVMnplMXXE+ea6Y8BdJ2CD0XLc6bTmsPOnTDpH/v2KRgC0HxXK7e11zXTVwI0eChC6iGssIpOhxS2BqBWFgA3YS8HQyEVO3/d8nIX1KAbtFeh4wr7lle+0E46YgBQb/trks92/l17K2tg0DVtMf8fMWlCkOp94otnF3MNeQx4eHTHQdoxWhnLcypmkFaxr4LtTqQvMpgUjgPjNstzlLLuqPivgi1M6Xw1T+z7m4oNERuA8mbH6QRDYSGE/mx5Wel72SoN0IEtJOx7mDFP1lajxgL89wjHblkBUI0NSIR7k0VHJcSW7GujBeeamT8BvJ+sMYZ/BqnOgQHcb3mOfDRdWe814VzT/hWAY2TNGQbmz1rfuFtJrTwFWDvdnuf7Klu4eNDynLfI9n29ca5pi7wbb5P1Q6yBkPIW4A4XC2QdqSfOjdsPgzBX2gemt1ilrFI4Mem6AwBbWQDceOYYEAsBl3sYj1gl50g5cP1Rqhf4xFYgKRshzqSKOfloOnXmsWBm1jD4MFk3ymU+8uCNuUdk8WHjWlkAnpyanhuL0U5x7qvhk0CPJ73snGowjVQ2n0jbxJSV9olxFalupRDoM0kvK30xQdp5TUDXtEUQ1Nmy5ohihyaLlzfscdJWFoBC4pJDmMsqx7i7Lc85WLbv640rmJlPM/irsn6ILWxSjQPIxB9NFXPflHWi3jjXtNcCmCnrhwGkZnmOK4sPG9fKArDWtC0fUElA02N5zqyw+yAs+/lE+hxiukHWvogPKKYAaqcAZWuPcBEDEQP1ZYBxF2kIBFLfRkS1RwxEDEgywPeJXYDfENC0K6GSLY9gEQPjngEGHibVRbBxz2JEQMRA8zLQLQRA8SJQ87Y+8jxiYJwzUKSCqRYLcJwTGDU/YqBpGRCxAcUawD8I2KdpWxE5HjEQMSDFAAMviimAuArcdLnSpVocgSIGIgZ2ZKA/EoDohYgYGL8M9EdTgPHb+VHLxzkDg1OAaBFwnL8FUfPHLQODi4DRNuC47f+o4REDxeggUPQSRAyMXwa6o6PA47fzo5aPcwaGjwKnfwFQ04aS3r7CAAAdo0lEQVT0Gud9GDU/YkCBAb4vug6sQF8EjRhoagbEdeAoIEgUEGSsl7iRw4JHAUE0BASJQoJFIcGaVQCikGAaQoJFQUGjoKDNKgBRUFAdQUFVMwNHYcGjsOB1mghHYcHtr4PwSVn6B8OCR4lBosQgzToCiBKDaEkMEqUGi1KDjS4BjbwIGKUG05EabJo9mwyI2PjST5QcNEoOKv3yKACj5KAakoNG6cGj9ODNOgWI0oOTUkq6wfTgovPVLwTxuZaXu15BzOsGVV0DEdlVUsXs2XVrQIWKWzkxiOoWtkiOmSo5nY3ad2P55ZrpjwF0nYLvRctzpg8JgGpyEMIVVtG5SMGZukELZuZTDL5S1gECfpL0nPfK4sPGtbIAFEz7xwy8R5ZDAl2Q9LJfl8XXE+cm7C+DcaG0D4y7rJKzYFAAlDMEA3dbnvNOaWfqCHRN+wwA31Vw4THLc45QwIcKbWUBcE37UQCHKxD4QctzblPA1w3qmvbPAJwg64DYAkx5zuJBASjE04uY6EZZYwCetjznPxXwdYPmp9nzyFDJMc9PW16uYdve2gKQ/gNAB8q+POxjfmqDc68svp4417T/AEC67cR8drKUu2lQANYmMkf6zL9RaRBNan9FstD5koqNemALiY5DmA2VDLNbLM+ZXA/fg9TZ2gJgbwYwKQgPI5Uh8g9NFpc3bGbn0dpVSHbuxVv6/iXbboEziI6aVcw+PCgAXnzJPpsp9g8Vg+DYEVbp8seUbNQBnDczBxD4aZWqJ9KEfaYXL/unio2wsK0qAOsTl+7dy/0vqvDGoANTXvYZFRv1wLrxSw4HlcX0R/qZzOVXmqUVLw4KgHiUYwMSPmUVnaukPaoTcM3+nXtMmty3SaV6gj896S0vqtgIC9uqAlAwOxIMQ2S1kn62bG7fc85znS9LG6gT0E3YnwRDevFSxAJMes4bhPvbBUA5SzDhVqvonFUnTpSqdU1bCMAeskYYdHTKy/5aFh8mrlUFIG9m3kzghxS4e9nynD0V8HWDugn7O2CcKe8A32d5ueN3FoC42sUCABstz5km71T9kK5piynAAbIeENFpyWL2Dll8mLhWFYBCInMqM39PgbtnLM+RXkRTqFcZ6pr2BgBTpQ3tcIFv+wig27QXGsBN0kYBlAeM+MF/WCaca6rHNTO/BfgQWaeJ6OJkMftlWXyYuBYWgIuY+Uvy3NETlpc9VB5fH+ST/7l0WqzNL6nU7gOLZnvOzTuNAJ6Y2jF1QsxQ+ngZdEbKy96u4lw9sAUz81MGy59jIPqKVczKH8oIsdGtKgBuInMFmD8rSx2Bfpb0su+SxdcLlzczpxNY6exCf9mfdsjG5Rt3EgDxPxqGFldYpeY7EVgw7WsZ+Lh0pxJ+YBWdD0jjQwS2rgDY3wfjFFnqCPhG0nM+IYuvF86N218GKZwA3GWqvn0KMCwAYgqwULpxjEesknOkNL5OwELCTjPDka6e8KhVdOZK40MEtrAAPAKG9AlMItjJopMLkfpQTLtx+2EQVN61my3PWbTNuZ0EQMs6APpef7D3xb+G0vqQjBbi9plM+I6seQL+lPSc/WXxYeJaVQAKpv0cA/8hyx0xzkqWnFtl8fXAPWl+7nUxtP9Fpe4d5/+7TQHy05fOJN9fq1IBM5+YKuV+rGKj1ljXTB8NqF2tTB7QPoFWdw7U2vdK9bWiAPBxnW2FZ/r6K7V97L/zMZaXU9lGVKteAp2Pp99LRHdJQLdD2DBmpdYv6xlxBDA8DVDbYgAutzznv1WcrDX2qTdm3tBf5mdV6m1rM+Iznmq8HZBWFIB1By2dNjCgthI+IUZTDvp99o8qfV5rrGva/2/rZtslCvXutlW/0xRgWADU1gGa9Gaga9riF6VNllzDoLfOWp99QBYfFq4VBWDt9Myxvs+/VOBswPKcCQr4ukBVbwBuPTuw0/x/tymA+Id8PH0eEV2t0kKfy7Nnl1bkVWzUGuuatjjKa8rWS0QfShaz0usIsvVWwrWiAKjGAhTXXyzPSVTirpH+3h1fkjIo1q3iEzOfnyrlrtnRxm4jgLUJ+1Cf8bhKRQBfYnm5ZWo2aotWPwpNaauYXV5bryvX1ooC4CYyHWBWWMH/91HYygw2RgnXTC8F6HIVbwzCYbOKzk43X3cTgOFpgOo6QEMHyRiJxELC/iYzVEJ77Ta8UuksXdiWFADTVpqmEuHGZNE5RxfHtbCjIfjJiEf1RxQA1XyBQ3ML//ikt/y+WpCjow43nv5vEF2mYKshRa9FBUAtEhDzpVYpJxbUmuIpmB1vZxi/UHGWQLcnvayIfrXTM5oAKMXJEzUw+GspL/cZFadriXXN9EcAGjwfLfUQNllFZy8pbIiglhSAhP0SGAo3+Xih5eW+FSLtWk3nzfRXCfRpFaOjxT8ceQoQX3IgU2wdAdKRbgjYuEe5fea0jZ1bVByvFTaf6DiO2Lhfpb4dz1ir2NGJbTUB0HJnhfy3pYrLV+vkOSxbG6Z2Tno51tfDCrf/GNhMXJ5hlVbsFvhmRAEQjcmb6dsIdLpKw5rpctATUztfOSHW938q7TXYeM+s0rL/VbGhG9tqArA2vvTdPvk/UeGpv9z+qkM2dqpFwFJxoAqsjss/DL495eV2G/4LN0YVgO64faahcDx2qI38XcvLKQQuqIIpDUVVL0MxsDjlOV/Q4Io2E60mAHnT/jwBXQoENVXcCtdM3wrQBxXaC59x1uxRjj2PKgB/nv25PV/Y1L4OwBTpygmbmGlms8RdK5j2Dxl4n3R7RzhooWBLC7TVBMBV3QEAfpT0nPdrITdkI4PxKol71NY78Oy+e/bN2K/7iyOGvRtVAETb3Lh9FQjnq7SzmZIvFOL2pUxQyRTTcDsBLSgASjsAzZQNSDVpzdAgHFdbJWfUFOJjC0DCPgEMkYBA/mngq7K7NqrbTL/PAP1QurENuBPQcgKguAPgg98/28v9SLqPawh0E7bSledBVwnvtIrO3aO5PaYADI4CTFtkDp6t0m4m/q9UMXeLio1aYHWsMDfaTkArCUAr9s9o73U+kf4wMf2P4nvfbXnOwWPZCCAAmcsBXqriCINXp7zc21Rs1ArrmrbYCXilbH1EfFKymFsli9eNayUBKCTSC5hppQJH/7A851UK+JpB82b6fgIdp1YhLbO87Ji3BysLQLzjcJChlIRANCLGfMrMUu5OtQaFj3bN9P1QIJ4ZuVTJscP3NFgNrSQA+bjtECEdrOUjleLVVhP8EPXE0yeXiX4g385hJPtHWKXlYybrqSgAQ9MAtY9iaCrS2Fl0t5GtGmwSwP2W57xdufM0GWglAXBNWxwtlx9JNnDw1h27WzXr8ZCtYGIXTADi9oUgNGTYa03fSWQmYqC1GGBcZJWcKyo1KpAAPJlYPCXGbeIa4WsrGYz+HjEQMVB3Bp4v08ChBxe7Kka5CiQAojkF0+5i4PN1b1rkQMRAxMCYDBDwhaTnLA5CU2ABGA4YKlIpTwxiOCoTMRAxUBcGetkwDtkx8OdYXgQWAGEkb9rXbg2BLZ9Aoy58RJVGDIwfBraGSv9GqoqEJ1UJQGF6ei779PD4oTNqacRAczFABh+ZXJ97JKjXVQnA4FpAwv4OK6UmDupaVC5iIGKgGgaIcGuy6JxVFaaawoPTgGn2PDJwT7W4qHzEQMRAuAywj/mpDc691dRS9QhAGHcTmbvA/N5qKorKRgxEDITIANGPrWL2xGprkBOAeOYUEH+/2sqi8hEDEQMhMcD0AauUrfr4sJQADE4F4vYviXBsSM2JzEYMRAwEZIAZD6RKzlsDFt+pmLQAFEx7IQMiPnv0RAxEDNSRAQIWJT1HKqK1tAAMrgWY9oMAjq5j26OqIwbGOwMPWZ5zjCwJagKQyJwI5oa5+y5LQoSLGGhaBogWWMWsdMpwJQEYHgVcD+CjTUtg5HjEQPMycIPlOR9TcV9ZAApmR4JhiKnA61UcibARAxEDVTHwF4J/TNJbLrJaSz/KAiBqLiTSFzHTl6S92BnYUEk23bj9dRBGjaoapM0EvDvpOT8NUlZ3mWYNCFIw7XcxoJZkhXGVVXI+pZtTWXuqIc13rJeIL04Wc8oxOrQIwNBUQD1q0PYGMl9olXJfkSVaJy5vZt5PYKVQZkS4Jll0lMKry7apaQUgYV/NjPNk2y1wDDo55WXlozyrVL4L1o2nPwuiigE6glUZLNpPEFvaBECLYv9bAfqZeH4j5G9bn7h0717uLwF4TRBCRynzzJbN7TPmPNf5soINKWgzCsCa/Tv3mDS5TySlOUCq0UOgv02kCfHpxcv+qWBDC3Qo7yTdA9AEHQZ1jii1CcDQVEBdtXcg6LH+cvv8Rsjhljft2wk4TaXziHB6suh8T8WGDLYZBaCQsE9jxu0y7d2GYeB7Kc9Rym2pUv827HDOSXF35nAd9nSPJrUKgIjb3hYzHiTgDToaC9D1lpc9V48teSsFM3Mug78hbwFgxrdTJefDKjZksM0oAPm4fQsRPiTT3m0YAn086WWvU7GhA+uamesAVlqp30HU/jhQ9o85ZOPyjTp8Eza0CsDgKMC0L2Dga7ocBNEnrWL2am32JAzlE0tNYl9ptRXAPyah/aCE1/lXCRekIc0mAEWz83Vb0PeUSm4GQRaTkUgVl3nSxGkAuonM+WC+SoOpQRMEfDrpOVfqsheKAAijeTN9L4HeocVRwqYY0/yZXvbXWuxJGnHNzC8AVgr3zcQfTRVz35R0QQrWbAKQT6TPIaYbpBq7HUT3WV72eDUbaugeM/PmMvE9iok9tzvB4J+nvNw8Na92R2sfAYgqXDN9NIPuJWCyFocZv+v3/ffrHPpU61chkbGZOVstbsfyVIfMtM0mABoyNIOIMsli1lHpKxXsYAozw/ghCG9SsbMNy8BmAs+zvNxDOuzt8k7qNjlkT/tUIGCig3BaIzIlX3I4qKyUIYnBZVDsoFoOTZtJAMRUC1x+ikAxpX7k2BFW6fIxM+Io2a8A1rolHtLQf1sTQhkBbDOu8+CDsFmPX9Ad+9qNZ+4G8Xyll4fRYZWcFUo2qgA3kwC4cXsJCMuraN7uRZnusUrZE5RsKIB1jGB2qT7Ug3GhCkB+mv364fBhStmFa0nIWH3fbaY/boCuVXg/xOmU31kl5xAlG1WAm0wAnlAdNvvgT8z2cko7NlXQu1NR3T94ALqHw3z9RdanSrhQBWB4KqB+pHPXVtQpx9tvE+nXtjMVVDMkEdFpyWL2jkqdo+PvzSIAhUTmVGZWPSfxfB9x8tBi7nkd3FVjQ0NOyd2q03ngZ7S2hC4AouK8aWcIWFYNoZXKMvP5qVLumkrldP+9YNrXsnpuhDstzzlFt28j2WsWAXBNW4SzOlmFEwK+kawiJr5KXTti8/H0eUSkdauagaUpz1FadA7SvpoIgHBERwfv2iCf+LjZxdwvgzRUV5l8omM+sXG3qj0f/pzZ3vLHVe1UwjeDAHSbHYcZMNZUakulvzP5J6SKy2sasbo7kX6rwbS6km9V/r1mPxA1E4Dha8MiZPHUKskYs3gf8etqPeRzzfSjACkd7STQF5NeNvRci80gAAUz8wUGf07tveDHLC93hJqN6tDDU0LdB7s2Evx5qtd8g7akZgIwNBXoOJ1g3BbUuaDlXqJ/7XNk8cqaXfrQsVrNwB+530/Nfnr5/wVtp0y5RheA7gM7XkUTjLzy8fEa7648nLhg7734FS/K9MlYGIZ/RspbrnQPohqfaioAQ1OB9AqAAmUuraYhbAzMSq3v6qkGI1t2bXzpdJ/8tQDaZG0InMF8/qyQ1zEaXQDWxtPn+erz5wGDjVmzSsvWq/RHUGx++uKZ5LeJ/tf8cJfl5ZZoNjqmuZoLgPCmYNo/YuAk3Q312Z83u7T857rtjmRPyw1B0ONJLzsnTH8bXQAKZmYNgw9T4aCWN/+64x3vMMioKvtOkLYRsDLpOe8LUlZnmboIwPAd+58AkI5mOjoJvNDyct/SSdLIAqAeKETYDfvWWiMLgI5bloLDWgX+cM30RwCSCr9d4X18cCJNeE89YhfURQAEGesTl07p5YF7AJ6p+2Nl4kyqmAv9LLhr2uJs9ptV/KeQRwENLgDKv/4Afm15Tuih6fOJtE1MIWzLUc9Eaps/vXjZsyrvkSy2bgIwOBVIpGf5TKsJeK1sA0bFMa62So5SLL9KPhXimU8wsfJZhDBHAY0qALp+/YnpvGQpq3Y6s0JHu3H7KhC0h3Rj4HmD+LhkMRfCekKlt3fo73UVAOFAdyJ9lMEkogobwVwOXkrMq1Bu/0RyY+efg6OClywkO/fiLX2/A2AGR+1eMsxRQAMLgI5ff48mtb8pWeh8SYX/0bCFqZ37IdYnDn5pX68C4PvEx8wu5n4Thu9BbdZdAISjbsI+AYyfBXW6ynJrYqDPhBVPoBC3L2VCZ5U+7VY8rFFAIwqAvl9/dCZLzmWq3I+EH7zPD/4qgHAWaQnvtIqO8oEy1bY3hAAMTQe0nAUfmQ/CJrH1GEZkoeFoQWIUsJdKZ4Q1CmhQAdDx6/8Sk/GmMK5WD0byAXfpCuax63tRy7sgld7JhhEA4aieaDBjNZmu7y9PWKw70GjetK8h4BOVyK78d15iebmuyuWCl2g0AXDN9GKAlK9DM3BtynOUwobvyuJQAM/+Ll0x/EbqpXpEhRrziwj+KtWmpJuwLwRDOeHBGN4+xuQv1hlyPG9m3rw1YotytBYCvRDz6ZgZG5aJmHhankYSgHXTlh5UNvhBBu+r2ritEaeOTmkMEzcUutsQ4qt0xHvMdhEusoqOptwAqgwO4RtqBLCtSfm43UmES/U0cUQd7gdjsc7kIwXTvpOB96v6zIQbU0XnHFU72/CNJAD5hP1NYpyt2jYCfpj0HKWbgzv6MJS0A1264vaP+MYxLkuVHOW1IlXudsU3pAAIJwtx+2wmhB1A8+aJxIuna7g/rjMxCpFxUrK4TEvW5UYRgEJi6QJmf6WOF1jXPfn1ifRre5nEr/5CHX6NZoMY5yRLzo1h1iFru2EFQDRo7TR7nm8g3OudjN8xY3Fqg6N8vDMfT3+biM6S7YwdcEo533f6dTNtVvHH8hwt74hr2mKrV/nADjN/J1XKKeUMEHzkp9nzSPzqawrcORrHho/5szS8Wyp9OBZWS+eG5dygCCQyR/rMoe+V+uCuWO/EFclnO/8u254np6bnxmL0sCx+Z5yeBcFGGAHoWvgT/JTLfOTBG3OPyHJcmNL56vLE3iVGCBfSdvXJIDpqVjGr6X2QbfHYuIYXAOG+O23JwTBiImCE0u27ABT2iBVqy8tK3yXIm/bXCLggQF1jF2FsAvEJqqGg6y0AIkQ8mO4GYU9VThi4MuU5n5a145qZjwAsbttpP36+i08D8MtzrA0rnpT1tVa4phCAwZFAfOl0hn83E6aFTQ4Ddxo+rUhuyFYdBnww8Akbj4DwamU/GY9MRvkEs7RC+t55PQXAiy/ZZzNi4uOfq4GLvxP5c2UCZRSmZY7wDV5CiiHHgrSBGBsIxgm1upocxKemngLs6PyTicVT2vy27zDhWNWGB8D3i9FAW1t/14ynuv4VoPz2IrpOBwqDxPTNZCn70Wrq37FsPQWgEM/cwMRadjSIqz/1t+6gxa8YGJiwePhXX0tm3jE/JsYDA8bAWQcXu+pysUfmHWmaEcC2xvXMSL/G76dbGHiXTIOrxTDQbTBWJEvOrUGxYp7JE/vEPDURFDNmOaYLrVL2KzK26iUAbjzzWRDr2vMuUm/73GrWZwpx+0yfIH71dYakH7ULCPipMYE/PHNd7m8y/VQvTNMJgCDqmSkXTn5x4uRvq0aRrZL025jpS6lSNlDwSs2ZkXyDB4eVVQc7qYcArI0vfYdPvjjnruWCVzVJMfPxzBwivhjAGVX2r0rxO/fp3fyhA569YrOKkXpgm1IAthEVVnixsTuCv+X7xo2zN2QfqNRhrmnfB+BtlcoF+TuBCiD/tGqvjtZaAMQVb7DxPQYng7QrQJn7Lc+pmJS1e1rmWMPwzwboIwFsaixS+zBeGp1vzJOA1TRwONCoSCelNdpwAB/uIBg3Jr1lo95iFCvgBPoFAxMD2KtYRIjAREx4ezUpxmspACK1dy/679P18RPQy+Djx9oJKZhL38kQHz5OrUig3gIbGX5HLQN46nV/yFpTjwC2ETIcclxcMNF2PDQo2QT8xGC+cWYpd+dIGJ174EMdRoWkl7WC+ldLASiYGVfXxz/UvtHPQvTE0yf7RGcz8J6gXGgsdyfBXyKzI6HRBy2mWkIAtjERRgaioCwzeDUGz/HnbtkV45rplQAtCGqrUrlqRKBWAhDCx7/K8nK7BeLIJ9IfBuNsAh1Xiacw/l6rjD1h+D6SzZYSANHA4TP5YkpQk9Xf3UglPEpMt/jAypSXfUb8PT/Nnm0YYiqgfgtuh/oeszynYiKMWgiAa9rivIS2W3TiVqTv8/GpDU73IH9m5gADOImJxcdfsc0hfTzdBHQkPeenIdmvi9mWE4DhD05kJRYiEOoljzF7TAQhYV7FMFbuVZ6w8iWjd5Hu/HEEuHuU2w+ftrFzy2i+hCkAG6Z2Tno51vcYA4GnJEHecpH3cS9/4k0vxfpPIvgngWhBWME5gvizdX3pZvbRkdrghJalN6Af2ou1pABsY0lsxfnACgIma2euCoMEbPTBqwxgFoPeUQU0SNGXmOlto21PhiUAw9tt96tGQtq1gQT+uQ+sNUALuPYLuzu5w8BmA1iS9Jwrg3REM5ZpaQEQHSJW4rdeh+sk/R+eVH9vHUZuYWCSFHhM0Mj5EMIQgLDi44fHTfVsM/jnWz+OTtW7GNXXXFtEywvALqMBcTLsDbWluHa1EfDVzbHeZXN+/6UXttWqUwDWvPHifSeXJy5l4DO1a1VtaxI5Gw1gRSv/6u/I6LgRANHoJ6Z2TG1vMxYzQ2ssudq+omPXJnYIGLzM8pzBJKy6BMA17TMItFTvNl8jMQcQ4Zq+Ab/rkI3LNzaWZ+F5M64EYIfRwLsYLIJT1mUrKbzu/LdlcYmIGJf7Biu9zIZPU5lwia5LPbVoe/V18GoCdbXaCn8QHsalAGwXgkT6IubBTMWvD0JW05Vh/F35WrIOG41L3F+IuCtZzIUZhLZxW98qJwFVGB4+RSiCREhfuVWpP8LWjYEbCP6KVjjNp8LguB4B7Eicm8icCB6MFqMct06lQyJs6Aw8BKIVVjF7V+g1NUEFkQDs0kkF017oMxZRbYKONMEr0houMuMBg3BT0nPCSO/dtCRFAjBK17nxzCkwsBDM723a3o0cF0v7P4aPm61S9gcRHbszEAlAhbdChI82YljIjDOjF6h5GCDCrX4ZN+sI9948ra7e00gAAnJWmJ6e6/u0aOuxXnG/QMv9/oBVR8WCM9C79fjwzYbBNyXXy4cOD15d85eMBKDKPsxPXzrT8P1FPCQEr60SHhUPh4HnCbjZN4ybUuuX9YRTRWtajQRAsl9FhOKY33YqiBe08oEiSXpqBOPVYFpVNgbuaKZIvDUiJ1A1kQAEomnsQm6843BQbAEgxKBOcQg0tKNJTHQDtApcXmWVlj/WJD43rJuRAGjuGjdhnwAfC0AQYjBFs/nxau5ZMFbBwCqr6Ihow9GjiYFIADQRuauZP8/+3J5/fan9JBqaIiyod0yCkJoZmllxFx/gVcy06nV79a3cr/uLm0KrbBwbjgSgBp3vxpccSNS2gMHHMvgoAkUjgxF4Z/CzBPoNgR5gHlhllVY8XYPuGddVRAJQh+4fzHgMPgqMo8azIGz74EH4jQH6TaNn0q3DqxJ6lZEAhE5x5QpE0FCK4S3E9BYfvsgl0JIjBPHBGzAeYuJfcRm/2hb0szJDUYmwGIgEICxmFeyKG4pgeguDDgPxTALNYGB/BZM1hxLwHIPXgamHwI+D+Ffj/eZdzTshQIWRAAQgqRGKiFTbvUbbTPb9mT7RTGLMAA3mudeTgFS+kUUwepiwzmDuIcPomegP9KikNJd3JUJWy0AkANUy1mDl1xx27oSJf993Jgx/JtiYCcIexNiDDdrDEP8F7w3GfzDx3gTaE0MRksVRZpEue1vyTh9AP4BeAJsZvImY/gnCnwj0T5/wMvn8MhNeNhibfPLXwTd6el/9Qs+cx68TuOhpUgb+P+Yek5ugxwGaAAAAAElFTkSuQmCC;" vertex="1" parent="1">
          <mxGeometry x="748" y="260" width="48" height="48" as="geometry" />
        </mxCell>
        <mxCell id="vqLbyj1tlcazgdX1yOUi-55" style="edgeStyle=orthogonalEdgeStyle;shape=connector;rounded=1;orthogonalLoop=1;jettySize=auto;html=1;exitX=0;exitY=0;exitDx=79.5;exitDy=128;exitPerimeter=0;entryX=0.5;entryY=0;entryDx=0;entryDy=0;strokeColor=#E07A5F;strokeWidth=3;align=center;verticalAlign=middle;fontFamily=Helvetica;fontSize=11;fontColor=#393C56;labelBackgroundColor=default;endArrow=classicThin;endFill=1;flowAnimation=1;fillColor=#F2CC8F;" edge="1" parent="1" source="vqLbyj1tlcazgdX1yOUi-48" target="vqLbyj1tlcazgdX1yOUi-51">
          <mxGeometry relative="1" as="geometry">
            <Array as="points">
              <mxPoint x="505" y="496" />
              <mxPoint x="746" y="496" />
            </Array>
          </mxGeometry>
        </mxCell>
        <mxCell id="vqLbyj1tlcazgdX1yOUi-48" value="1xx - 信息消息&lt;div style=&quot;font-size: 15px;&quot;&gt;2xx - 成功&lt;/div&gt;&lt;div style=&quot;font-size: 15px;&quot;&gt;3xx - 重定向&lt;/div&gt;&lt;div style=&quot;font-size: 15px;&quot;&gt;4xx - 客户端错误&lt;/div&gt;&lt;div style=&quot;font-size: 15px;&quot;&gt;5xx - 服务器错误&lt;/div&gt;" style="shape=callout;whiteSpace=wrap;html=1;perimeter=calloutPerimeter;rounded=1;strokeColor=#E07A5F;fontFamily=Helvetica;fontSize=15;fontColor=#393C56;labelBackgroundColor=none;fillColor=#F2CC8F;align=center;fontStyle=1" vertex="1" parent="1">
          <mxGeometry x="425" y="346" width="159" height="128" as="geometry" />
        </mxCell>
        <mxCell id="vqLbyj1tlcazgdX1yOUi-49" style="edgeStyle=orthogonalEdgeStyle;shape=connector;rounded=1;orthogonalLoop=1;jettySize=auto;html=1;exitX=0;exitY=0.5;exitDx=0;exitDy=0;entryX=0.995;entryY=0.319;entryDx=0;entryDy=0;entryPerimeter=0;strokeColor=#E07A5F;strokeWidth=3;align=center;verticalAlign=middle;fontFamily=Helvetica;fontSize=11;fontColor=#393C56;labelBackgroundColor=default;endArrow=classicThin;endFill=1;flowAnimation=1;fillColor=#F2CC8F;" edge="1" parent="1" source="vqLbyj1tlcazgdX1yOUi-42" target="vqLbyj1tlcazgdX1yOUi-48">
          <mxGeometry relative="1" as="geometry" />
        </mxCell>
        <mxCell id="vqLbyj1tlcazgdX1yOUi-50" value="" style="shape=image;verticalLabelPosition=bottom;labelBackgroundColor=default;verticalAlign=top;imageAspect=0;image=data:image/png,iVBORw0KGgoAAAANSUhEUgAAAQAAAAEACAYAAABccqhmAAAAAXNSR0IArs4c6QAAF0VJREFUeF7tnQuQFdWZx/9nmAFReYS5fUdGTBDBYgxvlCIsIMpGrUQ2SqysGjUJZk1pIc6WLzRidH1EgdqAm0WL1JoVFd2UkSzqaqiICEjAB4OgQImG4TXI7ZlJAGUgDJy1xwFBYfrx3e7T595/V1FOec93vu/8Tvfv9u2nAhcSIIGiJaCKduQcOAmQACgArgQkUMQEKIAinnwOnQQoAK4DJFDEBCiAIp58Dp0EKACuAyRQxAQogCKefA6dBIwLQG/f7qC0dBiUGoCDB/tCqZ4AKqFUObTuDKAdp4kELCZwAErtgtYNAOqgdS1KStZD69Vobn5Tde/umhybEQHoXG4klBoHrS+AUoNMAmBuEjBKQOtVUGoBtH5BZbNLk64lMQHonTu7Yd++66DUNQCqkh4o85GABQTWQes56NBhturSpTGJemMXQOsu/m1Q6iZoXZbEoJiDBKwmoNR+aD0Tzc1T4/6JEKsAtOve8tlE3APgJKsnhMWTgBkCn3rbj3Kc6XGlj0UA2nWHApgBYGRchbNfEigiAt6xgWrlOO/ke8x5F4Cur78eWs/Kd6HsjwSKnoBSN6hM5tF8csirAHQuN6Pltz4XEiCBeAhoPVNls9X56jxvAtCuOxfAFfkqjP2QAAkcl8AzynGuzAefvAhA53LPQ6lL81EQ+yABEghAQOt5KpsdH6Blm03EAuA3v3QKGE8CkQk8qxxHtNctEgB/80eeOAaSQH4IaP0fKpudFLWzyALg0f6oyBlHAnkmoPVNKpt9JEqvkQTQep7/7SgJGUMCJBADgYMHR6qKijfC9hxVAEt4kU9Y1GxPArESeEc5ztlhM4QWQOvlvdPCJmJ7EiCB2AncqxzHu/Q+8BJKAK039mzktf2B+bIhCSRLQOszVTa7IWjScAJwXe+b37vBhwsJkEAaCSj1uMpkrg1aWmABtNzPv3//x7ylNyhatiMBQwSUqlKZzPog2YMLIJebDKV+GaRTtiEBEjBKYIZynH8NUkFwAbjuWj7JJwhStiEBwwSU+hvKy7sppbRfJYEE0PoMP+/UHxcSIAEbCGh9ucpm/8ev1GACcN2HAdzm1xk/JwESSAkBpZ5WmcxVftUEE0AuV8On9/qh5OckkCICWterbNbxq8hXAK3n/nN+HfFzEiCBlBHQerDKZle1VZW/AFz3uwBeTNnQWA4JkIA/geuU4/xGJoD6+jug9YP+udiCBEggVQSUekRlMm0+os9/DyCXe6L1ZR6pGhuLIQES8CXwsnKc78j2AFz3dQCjfVOxAQmQQLoIKPWeymT6SwXg3VjQO10jYzUkQAIBCOSU41TIBFBf3/jZa4q+FiAZm5AACaSLwF7lOB1lAnDdZr6iO12zympIICgB5ThtHufzPwjour7XEwcthu1IgASSJUABJMub2UggVQQogFRNB4shgWQJUADJ8mY2EkgVAQogVdPBYkggWQIUQLK8mY0EUkWgKASwdvNuLFi5A3WNe7GtYS/qGppa/t63/2CqJoPF2EmgQ1kJKrudgMryjji1/ISWvy8edgp6V56c+gEVrADW1O5q2ej/tMrFui27Uz8RLLDwCAzq1QVjBzkY099B/56dUznAghPAsnWNeG7pNjy/rC6VwFlUcRIYP6ISl408FSOquqUKQMEIYMO2TzDt9xuwoIbPJknVGsZijiJwweAsJo7rhQGnd0kFmYIQgLfx//SRGmzK7UkFVBZBAm0RyHRuj19fPxDD+5rfG7BeAN7G/+27Qr/0lGsoCRgn8Ozt5xiXgNUCqPloJy69f7nxiWQBJBCVwKKHRqFnxYlRw8Vx1gpgi9uEUbctFgNgByRgmsA7M89Deef2RsqwUgB79h3A9x9YwdN7RlYZJs03gTH9M5h942C0LyvJd9e+/VkpgDufeB9zF231HRwbkIAtBP55dA88/JNvJl6udQLwLvAZd++fEwfFhCQQN4E5Nw/F6H6ZuNMc1b91AuC3f6LrB5MlSMDb+D0JJLlYJQDpt/+FQytQ1eNkDOzVFWf36YpOHUuTZM1cBUrgk73NWL1xF1Zv3Il3N+7Ey2/viDxS72eA93MgqcUqAcx66S+Y+pz3EOJwS/vSEjw2cRDOH+j7KrRwHbM1CRyDwNxFW3D3U+vQfCD80/IuGlrRsq4mtVglgMsffgvL1zeGYjOkd1f8bvIwlLbzfbxhqH7ZmATaIvD35oMYf/8KvLdpVyhQ3lWCb888L1SMpLE1AvBu3x1xs/cOknBL7W8vDBfA1iSQRwI9f/LH0L3Nv3t4YvcKWCOAJxduxpQn14WCecv4Pi03XnAhAVMEXnzzY0x89N1Q6adc0RfXXvCNUDFRG1sjgLvmrMVTr20JPE4TR1QDF8eGRUXg6ulvY8n7DYHHfNV5p+H+a84K3F7S0BoBTJixEgvfdQOP1fvm9/YA2lzatwc6dAC8/yoeIwgMlw1DEXjw8ZWYPS/43qt3sPrx6iGhckRtbI0ALpqyDOu3Bn+yz+xJg+Hde33MpV074OSTgbKyqNwYRwKBCcxfXItJ04Lfsdq3Rye8ct+IwP1LGlojgP43vIrdTd5byIItK341BhVdOxy7cZcu3PiDYWSrPBCoc/dgxIR5gXvyrk9ZM2ts4PaShtYIIOzR1OMe/fd29zun8/lskolkbLoJ9Bz3dKgCkzp7VXwC6NTp89/9XEggQQIUgBB23vYAyst5wE84FwwPT4ACCM/sqIi8CSCT7N1WwmEzvEAIUADCiaQAhAAZbpQABSDETwEIATLcKAEKQIifAhACZLhRAhSAED8FIATIcKMEKAAhfgpACJDhRglQAEL8FIAQIMONEqAAhPgpACFAhhslQAEI8VMAQoAMN0qAAhDipwCEABlulAAFIMRPAQgBMtwoAQpAiJ8CEAJkuFECFIAQPwUgBMhwowQoACF+CkAIkOFGCVAAQvwUgBAgw40SoACE+CkAIUCGGyVAAQjxUwBCgAw3SoACEOK3SgC7/gZsrgX+2gA0NQlHznARgRNPArqVA07F5/8MLRSAELw1AvjoA8D7xyV9BM44E/D+GVgoACF0KwTg7gBq3hKOlOGxEhg+EujcNdYUx+qcAhAit0IAa1cDWzcLR8rwWAlU9gD6Jff67UNjoQCEs2qFAJa+Buz5VDhShsdKoGNHYFQyL904chwUgHBWKQAhQIZ/ToACOGpNKL4Xg8T5WHD+BEi/ZvgTgAKIbS3lQcDY0OatYx4EpADytjIdqyOeBowVr6hzngb8Cj7+BBCtUccJ5oVAcVCN1icvBGqTGwUQbbViFAmEIsCzAKFwfbWxFWcBhGNkeOESoACEc0sBCAEy3CgBCkCInwIQAmS4UQIUgBA/BSAEyHCjBCgAIX4KQAiQ4UYJUABC/BSAECDDjRKgAIT4KQAhQIYbJUABCPFTAEKADDdKgAIQ4qcAhAAZbpQABSDETwEIATLcKAEKQIifAhACZLhRAhSAED8FIATIcKMEKAAhfgpACJDhRglQAEL8VgmgkG4HTsnttMLVx3g4BSCcAmsEUMgPBDH4QA3h6mM8nAIQToEVAiiGR4IZeqSWcPUxHk4BCKfACgEUw0NBDT1UU7j6GA+nAIRTYIUAiuG9AIYeqy1cfYyHUwDCKaAAhADzFU4BRCJJAUTC9kWQFQLgTwDhLBduOAUgnFsrBMCDgMJZLtxwCkA4t1YIwBsjTwMKZ7owwykA4bxaIwBvnLwQSDjbhRdOAQjn1CoBCMfK8MIjQAEI55QCEAJkuFECFIAQPwUgBMhwowQoACF+CkAIkOFGCVAAQvwUgBAgw40SoACE+CkAIUCGGyVAAQjxUwBCgAw3SoACEOKnAIQAGW6UAAUgxE8BCAEy3CgBCkCInwIQAmS4UQIUgBA/BSAEyHCjBCgAIX4KQAiQ4UYJUABC/BSAECDDjRKgAIT4KQAhQIYbJUABCPFTAEKADDdKgAIQ4qcAhAAZbpQABSDETwEIATLcKAEKQIifAhACZLhRAhSAED8FIATIcKMEKAAhfgpACJDhRglQAEL8FIAQIMONEqAAhPgpACFAhhslQAEI8VMAQoAMN0qAAhDipwCEABlulAAFIMRPAQgBMtwoAQpAiJ8CEAJkuFECFIAQPwUgBMhwowQoACF+CkAIkOFGCVAAQvwUgBAgw40SoACE+CkAIUCGGyVAAQjxmxLA4prtWL2hoeXfuxsasKOhSTiSdIdXOifi7CoH/XqXo6pnV4wa3D3xgj3Wc176AMvX7MDW3KeJ5z8yYc/KThgxoAJjz+mBscNOjVwLBRAZ3eeBJgTwm3nr8MDjK4WV2x1+9XfOxH3Xn5PYIGbMXY0Zz6xJLF+YRNVX9Ef1lQPChBxuSwFEwvZFUNICGH/rH7Fyfb2w6sII/0b3Tnh99j/FPphX39yGa+9bFHseSYL5/34RBvQpD90FBRAa2dEBSQrg3OvmY9P23cKKCyt8SN8Mnp92YayDuvM/V2DuKx/GmkPa+WVje2F69bdCd0MBhEZmRgBTHn0LT/7fB8JqCzP85xOG4F8urYptcGN+Nh+1dekWb4/sSVj6X5eEZkABhEaWvACW1GzH1XcvFFZa2OFz/u18jI7pwCAF8MW6U/vbePe2DmVSjqPaWmPb/NAL1K6rk1jl+9/wKnY3NQdOteJXY1DRtcNX22cyx+1j9rx1eLDID/r5Ab7l6oGY+IN+fs0ifV6oPwHq3D0YMWFeYCadOpZizayxgdtLGlojgIumLMP6rcF3D2dPGowLBmdDCWDStKWYv3iThGfBx14wvAdm//zcWMZZqAcB5y+uxaRpbwRm1rdHJ7xy34jA7SUNrRHAhBkrsfBdN/BYJ47rhVvG9wklAM/Snq25HJ9ARXlHrPjv8bEhKsTTgN5epbd3GXQ5f6CDx6uHBG0uameNAO6asxZPvbYl8GBH98tgzs1DQwkg7IGawMUUWMPaF34Y64gK7UIg77iSd3wp6HLVeafh/mvOCtpc1M4aATy5cDOmPBncoh4Vbw/A2xM4amnjGEBQAcS9AYhmVBBc7OMXoDtu6ItLNmHi1KWhur7nh1X48T9+PVRM1MbWCKCucS9G3Px66HF+5WgqBXBchhRA6NXLNyAo0yM7Wjx1NL7udPTtOx8NrBGAN9jLH34Ly9c3hhr3kN5d8bvJw1DarvWEBgVAAYRag6I1/vv+Axh/6wK891G49XVQry74w5Th0ZJGiLJKALNe+gumPrch9DDbl5bgsYmD4B1cAQVAAYReg8IFzH1lA+5+7C00Hwh/hrz6e2eg+pLe4RIKWlslgDW1uzDu3j9HHu6FQytQdWYWA8/M4OyzHHQ6seyovoLurvEYQLwHASNPsKHAT5r2t94x2thyx+jLb2yOXMkLv/gW+vfsHDk+bKBVAvAGd+cT72Puoq1hx5nX9sUugLzCZGeHCVw5pgce/NE3EyVinQCkewH5oEsB5IMi+/gygaS//b381gkgDXsBFAA33nwTMPHtb60A9uw7gO8/sALrtgS/NDifE0YB5JMm+xrTP4PZNw5G+7KSxGFYuQfgUdriNmHUbYsTB+YlpACMYC/YpO/MPA/lndsbGZ+1AvBo1Xy0E5fevzxxcBRA4sgLNuGih0ahZ8WJxsZntQA8ahu2fYJv3xX8Tqt8kKYA8kGRfTx7+zkY3rebURDWC+CQBH76SA025ZK5k48CMLrOWp8807k9fn39QOMbv7UHAY+1Bnh7AtN+vwELanKxryAUQOyICzaB94wK7wa1Aad3ScUYC2IP4EiSy9Y14rml2/D8srrYAFMAsaEt2I7Hj6jEZSNPxYgqs7v8XwZccAI4NEDvgqEFK3fgT6vcvJ8upAAKdjvN68C8G3vGDnIwpr+T6OW9YQZRsAI4EsLazbtbZODdUrytYS/qGppa/t63/2AYVofbUgCRsBVsUIeyElR2OwGV5R1xavkJLX9fPOwU9K48OfVjLgoBBJ2FoO8eKHYBJPXE2qDzxnbRCVAAR7CjAJ4OtCZRAIEwWdGIAqAADhMIfDt0Qs+st2ILsrxICoACoAAs34gl5VMAFAAFINmCLI+lACgACsDyjVhSPgVAAVAAki3I8lgKgAKgACzfiCXlUwAUAAUg2YIsj6UAKAAKwPKNWFI+BUABUACSLcjyWAqAAqAALN+IJeVTABQABSDZgiyPpQAoAArA8o1YUj4FQAFQAJItyPJYCoACoAAs34gl5VMAFAAFINmCLI+lACgACsDyjVhSPgVAAVAAki3I8lgKgAKgACzfiCXlUwAUAAUg2YIsj7VSAKs37sSchVuwfH0jttY3WT4FLL+YCXjvBfTeFTB2YLblEeJJL9YJYMYfPsSM//0oaU7MRwKxE6j+3hmovqR37HmOTGCVAF5d5eLamSsTBcRkJJAkgfl3D0/0tWFWCeDOJ97H3EVbk5wP5iKBRAl4rw+bfm2/xHJaJYAxk5egdkcybwBObAaYiASOINAj0xFLp41OjAkFkBhqJiIBfwIUQBuM+BPAfwViC7sJ8CdAG/PHg4B2r9ys3p8ADwL6MOJpQP+ViC3sJMDTgAHnjRcCBQTFZqknwAuBUj9FLJAECpeAVWcBCncaODISMEOAAjDDnVlJIBUEKIBUTAOLIAEzBCgAM9yZlQRSQYACSMU0sAgSMEOAAjDDnVlJIBUE8iGAZgDtUjEaFkECJBCGwAHlOKVtBSi/3nR9fSO0/ppfO35OAiSQMgJK/VVlMt1kAnDdDQCSfYxJyjiyHBKwlMCHynH6SAXwOoDkbmC2lDTLJoEUElisHOdcmQByuSeg1DUpHBxLIgESaIuA1nNUNvsjmQDq6++A1g+SNAmQgGUElLpTZTK/lAnAdb8L4EXLhs5ySYAEgIuV47wkE8D27Q5KS3OkSQIkYBmB5uas6t7dFQnAC9a5XA2UGmTZ8FkuCRQvAa1XqWx2sB8A3+sAWgTgug8DuM2vM35OAiSQGgJTlePc7ldNMAHkciOh1BK/zvg5CZBASghoPUpls0v9qgkkgNa9gLUAqvw65OckQALGCaxTjnNWkCqCCyCXmwyl2jylECQh25AACcRMQOs7VDb7UJAswQWwc2c37N//MbQuC9Ix25AACRggoNR+lJWdorp0aQySPbAAWn8GTANwS5CO2YYESMAIgenKcW4NmjmcAD6/JmAjgJOCJmA7EiCBxAh8iubm0/3O/R9ZTSgBtO4FeHsA3p4AFxIggXQRuFU5zvQwJYUWQKsEvFOCI8MkYlsSIIFYCSxVjjMqbIaoAhgK4O2wydieBEggNgJnK8d5J2zvkQTQshdQX389tJ4VNiHbkwAJ5JmAUjeoTObRKL1GFkCLBHK5GVDqpiiJGUMCJJAHAlrPVNlsddSeRAJoPR4wF8AVUQtgHAmQQGQCzyjHuTJyNACxAFr3BJ6HUpdKCmEsCZBACAJaz1PZ7PgQEcdsmhcBtO4JPAPgcmlBjCcBEvAlIP7mP5QhbwJo3RN4BErd6Fs+G5AACUQjIPzN/+WkeRVAqwQmQamZ0UbHKBIggeMSEBztP16feRdAiwR27PgHlJR4EvCuF+BCAiQgI+Dd118d5Ty/X9pYBHAoqXbdez7zwS/8iuDnJEACxyTw6Wf/956wl/eGYRmrAFp/EvRBSclkaD0hTGFsSwJFS8C7pVfrmWhunhrmxp4ovGIXwOG9gfr6vtD6Z1Dqx9C6a5RiGUMCBU5gHbSegw4dZge9n1/KIzEBHBaB1gqu+wOUlIzDwYMXQqmMdBCMJwFrCWi9CkotgNYvBHmGX77HmbgAvjwAncsNglLnQKl+0LoPlDrts3sMsgA6Azgh3wNmfySQMIEDUGoXtG4AUAeta1FSsh5ar0Zz85tx7+L7jdW4APwK5OckQALxEaAA4mPLnkkg9QQogNRPEQskgfgIUADxsWXPJJB6AhRA6qeIBZJAfAQogPjYsmcSSD0BCiD1U8QCSSA+AhRAfGzZMwmknsD/AyU0Z5d5VVXnAAAAAElFTkSuQmCC;" vertex="1" parent="1">
          <mxGeometry x="81" y="470" width="86" height="82" as="geometry" />
        </mxCell>
        <mxCell id="vqLbyj1tlcazgdX1yOUi-57" style="shape=connector;rounded=1;orthogonalLoop=1;jettySize=auto;html=1;exitX=0;exitY=0.5;exitDx=0;exitDy=0;entryX=1;entryY=0.5;entryDx=0;entryDy=0;strokeColor=#E07A5F;strokeWidth=3;align=center;verticalAlign=middle;fontFamily=Helvetica;fontSize=11;fontColor=#393C56;labelBackgroundColor=default;endArrow=classicThin;endFill=1;flowAnimation=1;fillColor=#F2CC8F;" edge="1" parent="1" source="vqLbyj1tlcazgdX1yOUi-51" target="vqLbyj1tlcazgdX1yOUi-56">
          <mxGeometry relative="1" as="geometry" />
        </mxCell>
        <mxCell id="vqLbyj1tlcazgdX1yOUi-59" style="shape=connector;rounded=1;orthogonalLoop=1;jettySize=auto;html=1;exitX=0;exitY=0.5;exitDx=0;exitDy=0;entryX=1;entryY=0.5;entryDx=0;entryDy=0;strokeColor=#E07A5F;strokeWidth=3;align=center;verticalAlign=middle;fontFamily=Helvetica;fontSize=11;fontColor=#393C56;labelBackgroundColor=default;endArrow=classicThin;endFill=1;flowAnimation=1;fillColor=#F2CC8F;" edge="1" parent="1" source="vqLbyj1tlcazgdX1yOUi-51">
          <mxGeometry relative="1" as="geometry">
            <mxPoint x="606" y="615.5" as="targetPoint" />
          </mxGeometry>
        </mxCell>
        <mxCell id="vqLbyj1tlcazgdX1yOUi-51" value="" style="rounded=1;whiteSpace=wrap;html=1;strokeColor=#432D57;fontFamily=Helvetica;fontSize=11;labelBackgroundColor=default;fillColor=#76608a;fontColor=#ffffff;glass=1;" vertex="1" parent="1">
          <mxGeometry x="642" y="548" width="207" height="87" as="geometry" />
        </mxCell>
        <mxCell id="vqLbyj1tlcazgdX1yOUi-52" value="" style="shape=image;verticalLabelPosition=bottom;labelBackgroundColor=default;verticalAlign=top;aspect=fixed;imageAspect=0;image=data:image/png,iVBORw0KGgoAAAANSUhEUgAAAQAAAAEACAYAAABccqhmAAAAAXNSR0IArs4c6QAAIABJREFUeF7tXXecFMXyr5mdDXeY03ugD5+A+pBgDoABRBGVICgYULISFQFFMBAEFSRKBuEIPkSioKigIgaCIAYyAgaUZxYVuLud3Z2Z36/mOLzQMztxd3an6h8+H667uvpbvd/pUF3NQZpEaVPtBDGcU08B+VpQoDJwXOWif6FymkyiZj2AQPD+4QelVYvrhQfP3u0Bc7LeBC6VPVQerBYuyI8M4AGuAoCbUtk2tZUZCATbDgSuUtU/+WFtqnFzd/+eGVZnrpUpIwCxc82Wsgz9AeDyzIWLLHcbASSAwHWtQN654aevp7b997kT9olut+ln/a4TgHJf7QqxkDxeVqCjn4GmvhtDoJgAsLS85f1vAhc1qGKsJpWygoCrBFDYufY5iiwv4wBqWzGO6vgPgZIEoJLAJ6t2BK5oXNN/SKSmx64RQKxD7SslTv44Nd2gVrIFgbIEgP1KbHh9U7BusyuzpY9e6ocrBIBffpDlr73UUbIlMxBgEQBaLn24eLVwXasbMqMXmWOl4wSgdKpxSqHC7eUATskcGMhSryCgRQAqCaye96pww70tvWJrNtjhKAEo9esLYtXflioKNM0GcKgPqUdAjwBUElg1Z5bQuD1tKDvkGkcJIL9jzcE8wCCHbCM1PkQgGQGoewIrpo0JNu3a14fwON5lxwhAeaB6xWhC2AygVHLcSlLoGwSMEADEopB4feqTwTt6P+MbYFzqqGMEQF9/lzzkM7WGCAAxOXRQkd94sVvgnv7TfAaRo911hACUtv85NSoEt9LX31Hf+FKZYQIAAOXXA5K8fFpr4f5hS30JlgOddoQACjvU6gCckueAPaTC5wiYIQCESv5+T0xc+kLD3Icnr/U5dJa67wgBFHSsuZQDaGHJAqpECJRAwCwBqCTw9db8+MReF0XGvr+PwDSHgG0CUAbXF6Lf/1YICgjmmqbShEB5BKwQgEoCuzb+UTCy2/nHz/r8V8LVOAK2CaCwU+2GoMjvGm+SShIC2ghYJQCVBLZ99CM/9LGq3KINhYSxMQRsE8DRa75LjDVHpQgBfQTsEIBKAp+++3XgshurEs7GELBNALQBaAxoKmUMAbsEoJLAx29sD9RpUstYi/4uZZsAoh1rPKwAN9bfMFLvnULACQJAWxJrl34cvOb2Ok7Zla16bBMABQBl69BIT7+cIgC0Xnpv/jtCw3sapacnmdEqEUBm+Mk3VjpJAOpMYNWcJcHG7e/wDYAmO0oEYBIwKu4uAk4TgDoTeP3FmUKzBzq7a3lmaicCyEy/Za3VbhAAKAoklk0cGWz5UL+sBc5ix4gALAJH1dxBwBUCQFMLj0DitSkDgnf1G+6O5ZmplQggM/2WtVa7RgB4eejgTyCvmHy/0G7ojKwF0GTHiABMAkbF3UXATQJAy5WfvpHii8ffEX5w3DJ3e5IZ2okAMsNPvrHSbQJQSWD/TjE6e9D1uYMXr/cNsBodJQLw+wjwWP9TQQAqCez97MjhEW0vPnHmDl/fICQC8NgPwO/mpIoAEGd5x/qD/LguF3Aztv/sV9yJAPzqeY/2O5UEoJLA5+/9wI/tfR730tZ8j0LiqllEAK7CS8rNIpBqAlBJYNNbXwWuvKWaWVuzoTwRQDZ4MYv6kA4CUElg7fKtgWtuuzCLoDTUFSIAQzBRoVQhkC4CwP5JaxatF65vXS9VffVCO0QAXvAC2XAMgXQSgEoC77y0SmjUtrFfXEIE4BdPZ0g/000ACFPijRmLgk3ub50hkNkykwjAFnxU2WkEvEAA6kxg2aTpQoueXZzun9f0EQF4zSM+t8crBACJOMSWjHs+fFe/x7LZJUQA2ezdDOybZwgAowWP/AHSkomPBdsPfD4DoTRkMhGAIZioUKoQ8BIBYJ+VXw9AYtn4TqEHRmbly1dEAKka2dSOIQS8RgAqCRzYK8VeGdEi8ujM1w11IoMKEQFkkLP8YKoXCQBxl7/aKopTH70ud9TbG7PJD0QA2eTNLOiLVwlAJYFdG4/kD29/6Qlzd+/JAqjVLhABZIsns6QfXiYAlQS2fvA7P6lbLW76rh+zAXIigGzwYhb1wesEoJLAJ2//j5/6UHUu78vDmQ49EUCmezDL7M8EAkDIpQ2v7QvUbX4eB6BksguIADLZe1loe6YQAEKf+GDRlmD91hdlshuIADLZe1loeyYRgEoC785bF7zx3qsz1RVEAJnquSy1O9MIQCWBN2euDN7a+eZMdAkRQCZ6LYttzkQCUPcElk9eINzW465Mcw0RQKZ5LMvtzVQCUElg8ZhpQqu+XTPJRUQAmeQtH9iayQQAYgHEFo4eHm47cECmuIoIIFM85RM7M5oA8N7An79CbPGYfpH7h4/MBJcRAWSCl3xkY6YTALpK/ukbiM0f2TGnz5RZXncdEYDXPeQz+7KBAFQS2L9Dis8Z0jwyaNEbXnYhEYCXveND27KFAFQS2POpGB3V+ZoKL37xiVddSQTgVc/41K5sIgCVBHasO5wY1e2K8Oxtu73oUiIAL3rFxzZlGwGoJPDZe7+JU3pfnDtj6wGvuZYIwGse8bk9wXufgkCD7MvILW988wCfN7AmN/3Tv7zkYiIAL3mDbAGhaQ8QbsuoWBrDXkt8tHSvMOGV6tyiRZLhSi4XJAJwGWBSbw6BwBUtINjlaXOVMqh0YvXLXwRvaHOxV0wmAvCKJ8gOFQHunxdC+Jn/ZjUaiZWz1gZv7niNFzpJBOAFL5ANfyMgHweRWRuyHhHp9alvCs263ZrujhIBpNsD1H4pBJTDMYhMeR+4UytmPTLxxWNfCbXqc3c6O0oEkE70qe1yCCjRBIS6j4RAvSbZj44sQXz+iKmhe5/olq7OEgGkC3lql41AQgauegMI95/oC4SU/EMgLRr1bLDD0CfS0WEigHSgTm3qIiD/mA+5y3YChCK+QEr5/QeILRj1SKTH2NGp7jARQKoRp/aSIqAcjELwnl4gtOqZtGy2FJAP7IXYS8+1z3l81pxU9okIIJVoU1vGEJAUUGI5kPOyZ+/QGOuHyVLy11uk+PR+TSMj3n7LZFXLxYkALENHFd1EQP6tEEKd+oPQrLObzXhOt7TrY1Ee3fna0Mwdm1JhHBFAKlCmNswjkJBBiYYgZ/5mAD5gvn4G15C2vH9YeqHnVeFZO3a63Q0iALcRJv2WEVD+EEFo1gGC7TMmxZ7lvpatKH2y8rfYhL6X5r608zvHlDIUEQG4iS7ptoeArID8ayFERswDvsZV9nRlYG1p7bIDgZcH1uambPvDLfOJANxClvQ6ggAGBoFSASLjlwN32pmO6MwkJfKaBXv4V0biNeK4G3YTAbiBKul0FAHlUAzg5IoQGTwDuErVHNWdCcrkVXM/DzRud4kbthIBuIEq6XQcAeUvEeCE0yH8xCTgq2b0e5yWsEmsePGjYNMHrrVUWacSEYDTiJI+1xBQSYATINR3FASuusW1dryqWHp1whtCy4ccvSRBBOBVb5NdTASUgjgo+QkItukBwTt7+w6l+Pzh80P3DLjHqY4TATiFJOlJHQIxGeRDIgRqX64eEfJVa6eu7XS3FBMhPv/ZKaH2T3d3whQiACdQJB2pR0BWADcHFVECodFtINx4J/DVr0i9HWloUTn0O8RfGf5MuMuoJ+02TwRgF0Gqn1YEipcEkJCBP+dcCNS9EQIX1gP+vIuz+jah8st3EJv3XJ9In6lj7TiACMAOelTXGwjgbKAgAUp+HEBWjtnEn3M+8JWrAHd6JeBOOhUgpwJAMOQNmx2yInjjXbZ+w7YqYx/yO9YczAMMcqg/pIYQsI4A3h/IT4BSGAf4mwes68uAmhXe+sbWb9hWZSKADBghfjQRiaAQiSABIGU3ExAB+HGAU5+NIaAoRSQQk0GJSVlJBkQAxoYClSIEAOJHiSCLJgW5C7+0NYu3VZmWAPSrIgTSi0BO3nZbv2FblYkA0ut8ap0QIAKgMUAI+BgBIgAfO5+6TggQAdAYIAR8jAARgI+dT10nBIgAaAwQAj5GgAjAx86nrhMCRAA0BggBHyNABOBj51PXCQEiABoDhICPESAC8LHzqeuEABEAjQFCwMcIEAH42PnUdUKACIDGACHgYwSIAHzsfOo6IUAEQGOAEPAxAkQAPnY+dZ0QIAKgMUAI+BgBIgAfO5+6TggQAdAYIAR8jAARgI+dT10nBIgAaAwQAj5GgAjAx86nrhMCRAA0BggBHyNABOBj51PXCQEiABoDhICPESAC8LHzqeuEABEAjQFCwMcIEAH42PnUdUKACIDGACHgYwSIAHzsfOo6IUAEQGOAEPAxAkQAPnY+dZ0QIAKgMUAI+BgBIgAfO5+6TggQAdAYIATSjUA4FwKXNwLuxNNB3r4W5P27UmYREYAFqPmzq4NwV3/gz7vkWO3E23MhsWCkBW1UxdcIhHMhPHgRcGdUPgaD/N1uiE99BJSf97sODRGASYi5f/4bwoMXAwTD5WrGJ/UG6bN3TWqk4n5GQGjaBYTbepaDQPnrNxAfbwIQzXcVHiIAk/CGeo4H/uIGzFrxGQNA2rDCpEYq7mcEwiNWAXdaJSYEsefuA3nfF67CQwRgEt7IlE8AQhFmLWTsVEzbTJpMxT2KAFepGoSHvqppndi7PiiHfnfVeiIAE/Dy514Cof5zmDWUQwdB7H2dCW1U1O8IBOo1h2DHYezx9PP+oiWAy0IEYAJgockDILR4kFkDp/64BCAhBIwiILToCUKTLuzx9P5CiL801Kgqy+WIAExAF3pkBvDVr2Sv/2cPAumjpSa0UVG/IxDs9AwE6jZjj6dp/UDa9JbrEBEBGIWYD0BkyiYAIcRe//e/GZRfDxjVlpJyuLkUuPYO4KvUBqXwCEgrZ4H81ZaUtE2NJEcg1Hc68BfUYY+nPg0ATwLcFiIAgwhn4vofN5hwo+mYxEUQB7YA5ZfvDfaairmJQHjMGuBOPK1cE7iRnIr1PzZMBGDQw7hWwzUbS6R1yyGe96RBTakphksVXLKUFWnTSohPezQ1RlArmgio8STPvM4eTx8shvjcISlBjwjAIMy66/8Zj4O0ge1Mg+odLya0fAiEW+9n6o12vQwgLjreJik0jkCgfmsI3vcUs0J8+mMgbXzTuDIbJYkADIIXmblNs6TYtyEof/5iUFNqigXbDoTAda2YjVG8Qmp8oNdKsMtICFzRmO2fFK3/aQlgcBzorv9TuF4zaK5aLNhuMASuvZ09wJ5sDsqPX5tRR2UdRiA8YR1wuSeU05rK9T8RgEGn6q7/U7heM2huEQHcMwACDe9hLwF6XOV6jLkZW/1WlqtUFcJDlzG7LaV4PNESwMDo013/p+i81oCZpYoEOz8HgTrlI8nk73ZBbEhrs+qovIMIBK6/G4JtHmdqTOX6n2YARpya7Pz/wbqgFBw2oimlZcLDXgOu4jnl2kysnAWJRWNSags1VhqBYPcxELj0RvbyLIXrfyIAAyMT7/yHHtOI///hKxCfus2AltQWwbNlPGNmSWxsV5C3r0utQdRaKQS8sv4nAjAwMLXua2NV6b35EJ/3rAEtqS0SuLoFBDs8Xb5RWYJotysAErHUGkStHUOAO+tcCA9hh4ynev1PBGBgYOqu/z2aACT4wAgIXHlLud7Jez6D2Ih2BnrtXhG+1tUQuKwRcKdWAqXwMEhrl4O85X33GvSY5sANbSB4d3+mVale/xMBJBscmbr+H/chcMefXK53ieWTIPHa1GS9du3vWrff4mkOpMJ0XNwZ/wK+YhUADkA5+DMov3wHmJrLaQn2fAECF1/PVCumeP1PBJDEu3rn/zg4YkPYgTZODxoz+rgzq0H4aXaSidjwdiDv/cyMOsfK6iW/MHr2zV94HfDnXar+WLmTzgDutDOBO+FU9UhT+uJ9SCyfrP5wjQiG4go3tIFAnaYAkQrMKsqRP0He+CYkVkwDzPdgWzgOIpM+BgjnllNlFAPbNpRRQMeAOojqrf+9mgRU84hJLIRo9ysMjR/uhFOAq3Ih8JWqAl/tQlCiBSB9/EYReRQeMaSjbKHA1bdBsIPG/XaxAKLd2des+crVARNn8HWaAFfhxKRtx2c9BdJa9hk7VkYCEZp2Bf6Cq5LqKi6g5P8F8XHdQf56q+E6rILYl9CghUwd6Vj/0wwgiTv11v+xF3qAvPVDWwPCjcrBrqMgcPlN5VTL29ZCbFw3ZpPcP86GwEX1gatSG/gzz2UeH2JFjB4Un2xuyWy9ZCrK7z+A2K+0zXiFWWjdF3AWZkoUBcTBt4NyYG+patzpZ4FwR291/8GSFB4B8YlmoPz1q6XqWElo1BaEO9kXsdKx/icC0HOl3vofd9N71gEQCy0PBrcqhrXW/wtGgrT+NeCq1AK+YlXAHz1XsQpwlc4B7rjy+wVa9kW7XQYQM3+RCC++4AUYlmAmZcyojMLlHg/CPY8zg5iMYiZtfhviU/oWFQ9FQGjWDYSbOxqtrlkOZxY4w7AqoYcmAi5jWJKO9T8RgI4n9c7/5X2fQ+y5tlbHgWv1+IsaQOjB8Uz9ysEfgTuloq22WV9qowpDj81Wp98sKZ6247Q82PlZ9YEMW3J0ScFfWB+C7Qba11fCGJX4rSyDPLj+JwLQGWW66//XpgLuqJuWnOOA/3cNNQkErrMhEAT5h69A3vKBYVXqGrZZNwCeL12H4zV/YIaVJymIMQ8Y+2BFIpM3AYRzylfFJCWPNVZz42tdXrLSnrRmAQQa3GmoKq7ti9NvY4ou7riTNOvFRnYCefcmQ3pLFkK/h556hVkvXet/IgAdN+qu/0e0AzxTNyLcyWeoU1++Rj3gz6nJrIIDKjaxV9IvCx7tYR555g/JiDFWy8RESLwxHRIrplvSoBtN+b99an9wR19P5G+2g7ztI1C+/xLU9XzrRyzZcqxSNB8SaxaohKYc/OnYf+udomChuMXcj0LjDiC06sO0OV3rfyIArSGkt/5PxIqi6WRJdwBixBc6XT1mMiBGYvTxfj/e80+FqLkDDx0EafMqkD5/z9Z+h17222R9wfV84vWp5Tb1cDMNN9XMCubZl1bNgcQHizQJF0O/Sz77VrKNxCvPQ+Kdl8w2C6GHpwAGQbEkXet/IgANN+qu/3V201Ed7loLt3QCvva15gaJzlFYsSKhefei6b8Lgrvm0scr1Kmw07ECoSfmqYlJTYlYAPFZA0H6ZBWzmu6xokZDEqbaXjw26UwreP9wCFx1K/trbWUZ5NH1PxGAxkARmnUFoXkP5l8TC0dBYlX5y0F4Ri1gFh6rx0wAIA64RTdhZ7LpqZkfGCYGlb5YA/KezaDs3w24SeiG4K5+ePw6AI4zrF756VuIvdBdFwtMd4Zpz4yKmf2L0EMTADcQWRJ/sb8aE2FGkPyQBFmSzvU/EYCGF0OPzgT+P+ygGYz+KxsiytesB3j/nhV+a2ag4Fk47rTrCe4j4GsymFTCjMjf7gB55waQ934Oyve7QfkjNSnMMOwVw1+NCt4LiE3rl3TJoXeltmxbcZM5G/CyDi7hWBIb0R7kPZ8a7Y5aDmeEwu0Pswklhfn/WAZQJGBZVHTW/0rBIRAfrFeqBn7xg91GmxoQzMIGlgAl62G7SFL8+ZfpkoH4VAtQfthn3z6LGoL3PgGBBncZqq1GVy4cBaAoSctrxTuUqigWqMFPRjdsi+vq5n985AZQ/vg5qX0lC4T6TAO+Rl2229MQ/1/SECKAMm7BYzY8s2YJrkfx3fZiCVzSEILdxpQ/kjM1PIoK41FgbDw77biuOiSsyRuZz5VjXLw4gL2WtWCipSrhYcvVgKNkEn/5OZBWv5ysmPp3vZDaYwqi+RAb/YDp8F1d3YVHigLAzIjeB8UD+SSJAMo4U2/9H58zBKQPF6s1MNwWw241JS6CtPEtkFbPU5cMeM6NsQVagu/A4SaVWdFbX+JehfpFTZPgEWh41Gr91hWl6GhtrfYruWUVYFQfhvVqSuGRoh//N9qZnLXq4mwFZy0ssULSfLWLITRgLlNfutf/aBQRQBnX6K3/xaPPfyVb16qbWBMfAuXHb45pxykgTgW1RHykoaV1uXBTezVmniU4ozATZOQ0T+j9mIrbsnIVWC9GQ96/CxKzBwHmPrQiwR7jAGd2LEm8OlG9GWhG9BLKpvP8v7gPRABlvKm1/sNdcvHRRsDXvBpCvadojgFp/XKIzx1a7uENvcsw8v6dEHvaWNRa2Yb17pdH05z9N9RrMvC1r2FjJSUgNqUPyJ+zU5dpAhzOATWqkCH4xY8NY2dCNvqj1YxYBFDDvzEM3IzokVU6z/+JABhe1Dv/x6k/PgEWGqARBJLk3FpvIGCSTgwEsiLhFz5ihq6mPfuvEITIpI0AQrB8txIxiOH12l0bTXcZ4ytCvdhh2HZwREP4qhdC6PH/sm3C69Q9rwKQZeM2e3z9jx2hGUAJd+rG/7+VBwLGljOSRyg/fFV0bv2bxhFeKFL0Yygbv49tKzKoLwtZeAkWw2fDI1ayp6vvvAQYtWZHuJP/AYHLG4H85WbAqbUZ0VvyWJlKF7cdbD8EAte0LG+KiuMN9q7r6gRayV+sgdgE43EHKqHobSinOP+/lu+IAEogo/eV1gJQObAHYs93BEwaoSV6ewaYUwBzC1gRfFoKn5hiCV6HxTBaq4KBTaGBCwGfGEcx+5yYcFc/EG68j9m8WV3HlHAcqDMeRmIQ9T7FyE5Wu6vWCw1cAPzZF7DxtBABqF5Dbt6drS/N5//FRhEBlHBPZOpm5nGa5o//+y8h9nyHpO8CBDsNg0BddiINK5tgxfboPQCaLKow2S+l7GYoPiZiZmMNX77FtFtlxU7qK4x5CPVjL5VKntAk6xvr73hVOjxSmzDFR28sdWnISBtoK9rMEi+s/9EuIoCj3tGbrrEciAM59uy9gHnjkomaB46Vdy4mQvThawHEgmQqmH/X3LFGvZi4w6IILR4E3LQsFrxAI/Zmh8aa/THhLjouAayI7qzC5gMt+IwaPqfG9PWBPSAOYr+zqNkPIQSRKZsA+ICjJGgFN706RABH0dGbrpX7ih36XX1ey8iLwHz1KwGXFiwplbnGgme1Xv/BsN/YUGPRd2WbZdlr5KZiST16qa+RNNWbhhYkPOpdwH2JsoKbibFRnS1o/LuK7ibt8smQeE375IfVMH/+5RDql8f2O15KekkjP6KtXpivTARwFDPD63+xAMRn2oCC99gNCL4Bh4k6WWI2Rr2sjvD4tcz1sFVi4U75J4QGLy6tE3Ps4SWlXw8Y6G1REa3jP1YotVGlegFP8fkjQHpXY/feSAM5x0EELyyxNmlx/2NQy3LXkZOp1bsCHZ8xAKQNK5KpSMnfiQAQ5iT5/0t6Ip73pHocaFTCo1erKaxZYvecXitmAUNqMbTWlAghCA9cAHjjsKSYjn7Dqe+kDQBCqFzzVokJFWGwEwY9sUS0EJ9fUk/gipsh2IV9YoLBXOKTzUxBqZKgTk4BI5e+TDdosQIRQJLjmpK4Sp++A/HJ7KwuLPz5ahdpxg3IOz+G2Oj7LboNR1gYIlM2M+sn3sqDBN57Nyo5x6m5BHHaWlbMTtn1ljzJUnbrmYuZkIpPJEoRlAPBP3rJOhPLJkLidXPRf0h+muv/QwdB7M1ODGrUXU6WIwLAr4vOcU0x2LjZF3uiqaFNv+I6ellrEq9OsJxiq1i/5gzAxJuF6rS/9xTAhzvKirRpJcSnsdNYaw1CjNHXysBrdecbXznG/Q6WWM3QU6wL+x9+/m3NfAXF4d9mfnSY3DTU90VmFTvHvmZsMFqWCAA/pv3ymF+/kiBaWbfhsZJWJl6rySVL2qTeAmS8MmN0doHr6mCvSZpJMDH02WyikNCgRcBX/k+58YfxEqZ30o9q0bv8g9PzkncujA78YyStE6+AyUJjz7QxqxLKnqKUVGDnFMS0IQYqEAEYWP/jc9r4rLYZ4c+pBaEnta+3qq/02HxXIDz0VeaXG+3UPbfmAyDc2hnwogozVBdAnZ3gLMWMYDZdDNRhfqmtZlJGgu4/h/1AiInXjlg24XsI6tl/KMK02eoNTd0HZW0GaJnxh5GyvicAveASFUB8EQZ3wQ//YQTPY2UwAwxmgmEJZqHFH6hd0TthwNDd+ISepW8YRioARg8KDdtoZrxBm/D1G7H/LQCxqCkT8UVifJmYJXhMZyX2X49UrH6hj339dZYr2PdonwZJ8wey+hqesF594ISJw9OtTYdVm3KCycK+JwC9+H/E0vJXQGMqjDrlLz9Rw4ftCqYiC/XWf+0Xf3Ty91+q7xFoPcxR1o7YmC4g71hv2jx8+w+TdbLE6owH8/QHOz3D1GnnpR4u9wQIj3qHuYTCxvDyF0YXmhV88yE8RvuGo9jnelv3Fczak6y87wlA7/6/1S81PvoRHqv92AeeAeOeghMSHv6WmiffKbF0hHi08fCY95iv8Kgzij7sJ7GT2Y25FgN1mjCLJRaOhsQqdvamZHr1jhWxrtnQ5+L2+AvqQKiv9vsJYq9rQTlibjaZrC92/u57AlCP0kJhJobxOYNB+nCJaXwDl9wAwR7ax3Cmj+l0LMAfB/5InBB8JAOz51oRvee/MdV47Dn2xaBkbeHXFL+qLIlP7FX0ZoFZCedCZNwHmmt/fHxEHHyHWa1qec3XmY9qi3aqZUmvW5V8TQB66Zpw7W86/9tRL+GrNcJN7TR9hmf0SAJOCT4Wgo+G2BG7NuHNP4zVZwmm+8Ic/2YFHzANP6sdMcfK0GykDb1blFjf6rIP6+LrP/ggDEvsREIa6ZeVMr4mAN1Ba+NrqJsJBwdYkjfsrTjS8ks5eKNxYi9QfvuflWaP1cG9CNyTYEliyThIvDnTtH6M+8f4fy2Jdr2sXOYlI43o/Ughmg9RXK5YvKCl5wcvPirrbwLQ+VKLT90GmOjDiuA9ev7s6ppVYybeFjTTvhrSik+H5RyXtJpScBiklbMg8QY7YCWpgjIFwhPWAW6ssQSPUPEo1YqEhywxfZBuAAAGdElEQVQB7qzzylW1EqRUrES4vRcIt7AvDyEeiaXsF5aN2I/vQOJT6EwitHET0kjbVsr4mwA0MvUaDaTRAlzvHjjYvKqbzMlqFp8Gd6obZ2WDkDCoB9e30merQfr0XUtHXFrta67V8YuKuQktihpOjbcpgyX2afBF4aF3Gb6QVbZprdMTvOAlDrvb9PFnSf3qA67jPmT21nIiFIvYGanmawLAhJU4XS8rVpI/ltSB98rxfjlL8Nnq+H+HGfFNRpXRmvom3pwBiSXGXwZidRojFoWmXQHCETX5irRiOuCVZzuCMQtIlPiWIwrqi2MmZwdeTMIHYYOdS2+mqo+eLGBnb7LTD7t1fU0ACB7eAsOpsyqFR9S1Kg5aO6LGl2PsejinlBpMF65+YQqP2FHvzbqhcNE14BJPqpV9SMWbhrtjFT7dhrMwvmJVkHasAyR+L4rvCQCdot4yyzlenR47Jerz4Ne0BO5f56sXiOTdn4C0/jXATaZsFvW5sn+dryb9wEg9Em8jQATgbf+QdYSAqwgQAbgKLyknBLyNABGAt/1D1hECriJABOAqvKScEPA2AkQA3vYPWUcIuIoAEYCr8JJyQsDbCBABeNs/ZB0h4CoCRACuwkvKCQFvI0AE4G3/kHWEgKsIEAG4Ci8pJwS8jQARgLf9Q9YRAq4iQATgKryknBDwNgJEAN72D1lHCLiKABGAq/CSckLA2wgQAXjbP2QdIeAqAkQArsJLygkBbyNABOBt/5B1hICrCBABuAovKScEvI0AEYC3/UPWEQKuIkAE4Cq8pJwQ8DYCRADe9g9ZRwi4igARgKvwknJCwNsIEAF42z9kHSHgKgJEAK7CS8oJAW8jQATgbf+QdYSAqwgQAbgKLyknBLyNABGAt/1D1hECriJABOAqvKScEPA2AkQA3vYPWUcIuIoAEYCr8JJyQsDbCBABeNs/ZB0h4CoCRACuwkvKCQFvI0AE4G3/kHWEgKsIEAG4Ci8pJwS8jQARgLf9Q9YRAq4iQATgKryknBDwNgJEAN72D1lHCLiKABGAq/CSckLA2wgQAXjbP2QdIeAqAkQArsJLygkBbyNABOBt/5B1hICrCBABuAovKScEvI0AEYC3/UPWEQKuIkAE4Cq8pJwQ8DYCRADe9g9ZRwi4igARgKvwknJCwNsIEAF42z9kHSHgKgJEAK7CS8oJAW8jQATgbf+QdYSAqwgQAbgKLyknBLyNABGAt/1D1hECriJABOAqvKScEPA2AkQA3vYPWUcIuIoAEYCr8JJyQsDbCKSdAKIdazysADfW2zCRdYRANiKgfJuTt+McOz3j7FTGuoUdanUATsmzq4fqEwKEgEkEFHg/Z9b2BiZrlSpumwDEzjVbyjIssWME1SUECAErCCizc/J2dLBSs7iObQIo7FS7ISjyu3aMoLqEACFgHgEZYEiFvO2Dzdf8u4ZtAlBatQqIx+8qVACCdgyhuoQAIWAOAQXka3Lzdq41V6t0adsEoO4DdKwxC4Brb8cQqksIEALGEeCAK/y+QuHJ507YJxqvVb6kIwRQ0LFmaw5ggR1DqC4hQAiYQICDN3Nmbr/VRA1mUUcIQOlW6+SoCNsBlEp2DaL6hAAhYAiBwf8fAzDEUEmdQo4QAOrP71hzMA8wyK5BVJ8QIAT0EeA4bkc4WliXm7fvkF2sHCMA5YHqFaMJYTPNAuy6hOoTAkkR6JyTt31m0lIGCjhGADQLMIA2FSEE7COwKidve2P7aoo0OEoAO1rVCFU5nlsDAHWdMpD0EAKEwNEfKwdHZBluyp21fb1TmDhKAGhUQefaZ/GKvEtR4DinjCQ9hAAhgAgo7XLydsx1EgvHCUBdCnSofQnPyZ86aSjpIgT8jADHwaORmdtHOY2BKwSARkY71aimKNxepw0mfYSA/xDg7s3J2zbPjX67RgBo7OH7ap8hBKXZANzNbhhPOgmBbEZAATjIcVyLnJnbPnSrn64SgLpqebBaOFYQmSwr0NGtTpBeQiALEVgVAOWxUN6OLW72zXUCKDb+6LXh/gBwuZsdIt2EQCYjgEE+iqKMdeqcPxkWKSOA4tlAQX5kAK/AdcBB/WTG0d8JAT8gwAFEAWCtBLAuV4yOcSLCzyhuKSWAkkb90f6ik0IBqT6vyFeCApWB4yoX/QuVjRpP5QiBzENA+RYU7lvglG9l4PbzHP9RJLdgLWfzVp9VHP4PRLiB4tzcpFIAAAAASUVORK5CYII=;" vertex="1" parent="1">
          <mxGeometry x="647" y="561.25" width="60.5" height="60.5" as="geometry" />
        </mxCell>
        <mxCell id="vqLbyj1tlcazgdX1yOUi-53" value="" style="shape=image;verticalLabelPosition=bottom;labelBackgroundColor=default;verticalAlign=top;aspect=fixed;imageAspect=0;image=data:image/png,iVBORw0KGgoAAAANSUhEUgAAAQAAAAEACAYAAABccqhmAAAAAXNSR0IArs4c6QAAIABJREFUeF7tnQeYVOXVx89sm92Z7bD0snRBuiIIoqygSEsssWA0iiXqZxI71ghJxBhrjImaBLGLxhJjKBJFpEgQKbKyiNQFKQtsb9N25n6eUcyCU+47t8w7d/7neXhMnn3LOb9z73/ufe9bbBQnm7SmKpfc/jGpCp1ONls3RaFuZKNuxP+FJS2B2/pnVy/c1zTmsZPbbk1aCCYGbjOxL5q0XbHb9h6+25aSOopImWhm3+grMQj8om82dXWk1v56vbv3PyfkViWG14nrpWkCMGV55fk2he5SFGVE4uKC50YTYAE4p1MmbazxVty7Zm/x4sl9PEb3mcztGy4AZy+pcKbb0/5EinJVMoNG7OoIHBUALr220rt7ZJG9p7qaKBULAUMFYNry2h5+v/ddm802OBbnUCf5CLQWAI5+VaW3bGyRfWDykTAnYsMEYPLKypG2FmWNOWGgF6sQOF4AOK6PKtxrx3fMGmmVGGWKwxABmLa8okcgkLpLpkDhS2IQCCUA7PmSA+6l53TOmpAYUSSOl7oLwMTVdYVpbu92slFh4mCAp7IQCCcA7N+Cfa5/TuvqOF8WX63gh64CMG7ZsjSHbeA7NoWmWQEOYjCfQCQBYG/e+br5+Qu6OTGgrFNqdBWAyUsPzbalpMzSyTc0k4QEogkAI5m/x/X4pcWO25IQj+4h6yYAE1cc6ZgWoHWkUCfdvUSDSUNAjQB4Agr9Y4/rvp/1dM5JGjAGBaqbAODX36AMJVmzagSAkdT6FOUf5U03XNc3569JhkjXcHURgPM+rG/jTfOU4tdf19wkZWNqBYDhVLgD/te/br7olr457yQlLB2C1kUAJi89PMOWYpungz9oIskJiAgAo9rd1OJ9bkfD+DlDC1clObqYwtdFAKYsO/wOke28mDxAJRBoRUBUALjq1rqWpjlbmoe+MjpvB2CKEdAsAOOWKWlOqnQRUZpY1ygNAj8kEIsAcCulNb6auzZX9Vt8escj4KqegGYBmLqicrziVz5U3yVKgkB4ArEKALe4rsp78OFth3u9Obor/yDBVBDQLAC8zJcCytsq+kIREIhKQIsAcOOfHPHuOq2dvVfUjlAgSECzAEz9uGqGogQwAIgLShcCWgWAnfj4kGdzSYfMQbo4ZPFGNAvAlGVVNxMFnrA4J4RnEgE9BIBd/aDCvebsjlmnmuR2wnajWQAwAShhcy+l43oJAAe3cL/7g6ldss6WMlBJnIIASJIIuPEtAT0FgNt7Z6/r7Qu6O34CvqEJQABwZUhFQG8B4OBe39P83PRi5zVSBSqJMxAASRIBN4x5AuBWFSJ6dY/rkcuLHTPB+VgCEABcEVIRMOIJgANsalFo/t7mu6/tlf2QVAHH2RkIQJwTgO6PJWCUAHAvlW4/vbbXc+1N/Zxzwf1bAhAAXAlSETBSADjQfc1+/8s7G35yz+CCd6UKPE7OQADiBB7dhiZgtABwrzsa/Z6nvqw780+ntFmd7HmAACT7FSBZ/GYIAIdcVtfSeNvGmmFLStol9QpCCIBkN0Cyu2OWADDnjTW+6tkbaga8N6H9oWTlDgFI1sxLGreZAsAI1lR6D8zaUNP3PxM7NEmKxFC3IACG4kXjogTMFgD2b/lhz85x7TN7i/pqhfIQACtk0UIxxEMAGN/SCk/phI6ZQyyEUlUoEABVmFDILALxEgCOb9EB9+opnbPGmBWrDP1AAGTIAnz4nkA8BYCd+Nc+95Jzu2adkywpgQAkS6YTJM54CwBjemNP85uXFDsvShBkmtyEAGjCh8p6E5BBADimV8rdf7u8R9Z1escnW3sQANkykuT+yCIAvoBCL+xufPjnvXPvtHJKIABWzm4CxiaLADC6el+AXil33Xlj3+yHExClKpchAKowoZBZBGQSAI65wuWnl3d7rp55otOSG99CAMy6stGPKgKyCQA7Xd7U4p+703XenCG5/1YVRAIVggAkULKSwVUZBYC5f1Xf4vlDad0Zz49t+6mV8gABsFI2LRCLrALAaDfV+Brv2VB30qIJRdssgDoYAgTAKpm0SBwyCwAj/qzaV/XrsrpBS04vOmgF5BAAK2TRQjHILgCMetURz/5HtjX0f++0ooZERw8BSPQMWsz/RBAARv7RIc+O8e3tfclm402HE9YgAAmbOms6nigCwPTfP+DaNKmzY2giZwICkMjZs6DviSQAjP+9/a5PftzFcVqipgICkKiZs6jfiSYAnIa39jS/f2Gxc1IipgQCkIhZs7DPiSgAnI5Xy11vXNbDcUmipQYCkGgZs7i/iSoAnJbndzX/9apezusTKUUQgETKVhL4msgC4PYrNG9n80M39su+O1FSBQFIlEwliZ+JLACcompvgObtbJp5x4DcRxIhZRCARMhSEvmY6ALAqdrX7Kd525uvmjU093nZUwcBkD1DSeafFQSAU7azocX/520NP/7jyYULZU4hBEDm7CShb1YRAE5dWZ3Pc/fn9WP/Pa7tZ7KmEgIga2aS1C8rCQCncH21r+E3pfWn/Luk7VYZUwoBkDErSeyT1QSAU7m60lP5wObKYYtLuuyTLbUQANkykuT+3Ng3myZ1yrQcheWHPfseKG0e+OFZhXUyBQcBkCkb8IUu7+Ggi7s7LEniPwfd2+euyuz/5kU2vywBQgBkyQT8CBI4p1Mm8WuAVW3Bftfn07o4hskSHwRAlkzAjyCBIQXpNGdInqVpvLPXteqC7o6xMgQJAZAhC/DhewL5GSn0yuhCyxOZv6d50aXFzinxDhQCEO8MoP8fEJg3qpDaZaZYnswLu5pen9Ere3o8A4UAxJM++g5J4Pb+OTSuvd3ydPwK0dwdjc9e3zfnhngFCwGIF3n0G5bAaUV2uuvEnKQg1Nii0HM7mh68uX/OvfEIGAIQD+roMyqBt8e2IXuq5sszaj8yFDjsDtDcHU233zso9zGz/dFMePLSQ7NtKSmzzHYc/VmbwE+LHTS92JrzAUJlrryphZ7Z7rry4WG5L5qZWQiAmbTRl2oCeekp9OoY638NaA3kq3qf/7FtjdP+PqJwsWpQGgtCADQCRHXjCMzo6aQLumUZ14GELW+q8Xnu21x/+oLT2641wz0IgBmU0UdMBLLTbPTamDaUovkqjan7uFVaW+VtmP1546jFE9psMdoJzWgxBmB0ipK7/XO7ZtE1vZxJB2HlYU/lw6VVJy04q/NeI4OHABhJF23rQoCnBvMU4WSzDw669z250zN44dj8GqNihwAYRRbt6kaABwQfPymP2mem6tZmojS06IB72/0HMweuP9nmM8JnCIARVNGm7gT45p81KJe6OZNPBN7d59p4XlfHcN2hEhEEwAiqaNMQAm3sKcEZgv1zk+914I29TSsv6Z59ut5gIQB6E0V7hhLgyYG39c+h09tZf63A8SBf3t288Gc9nVP1BAwB0JMm2jKNwIXdsuiKnsn3deDv25vm/7xv9qV6gYYA6EUS7ZhOYEBeOl3dy0n9ctNM7zteHXoDCv11e9Mzvzoh5//08AECoAdFtBFXAme0s9PETpk0OD85xgZqvQH6247GOXeemHefVvAQAK0EUV8aAl0dqTSybQYNLcigAXlplGHhKYQHXH56ZkfTrQ8MzntCSwIgAFrooa7UBLo7U6mzI5WK7KmUl26jrDQbpds0X/JSxTypc5amgDRVZhKYCizV9QBnkozAwpIiTfewpsoQgCS72hCudAQgANKlBA6BgHkEIADmsUZPICAdAQiAdCmBQyBgHgEIgHms0RMISEcAAiBdSuAQCJhHAAJgHmv0BALSEYAASJcSOAQC5hGAAJjHGj2BgHQEIADSpQQOgYB5BCAA5rFGTyAgHQEIgHQpgUMgYB4BCIB5rNETCEhHAAIgXUrgEAiYRwACYB5r9AQC0hGAAEiXEjgEAuYRgACYxxo9gYB0BCAA0qUEDoGAeQQgAOaxRk8gIB0BCIB0KYFDIGAeAQiAeazREwhIRwACIF1K4BAImEcAAmAea/QEAtIRgABIlxI4BALmEYAAmMcaPYGAdAQgANKlBA6BgHkEIADmsUZPICAdAQiAdCmBQyBgHgEIgHms0RMISEcAAiBdSuAQCJhHAAJgHmv0BALSEYAASJcSOAQC5hGAAJjHGj2BgHQEIADSpQQOgYB5BCAA5rFGTyAgHQEIgHQpgUMgYB4BCIB5rNETCEhHAAIgXUqs59CAvHRql5lCBRnf/mtjT6H89BRKtRGVN/lp2SE3fVXfImXgR30vzEih/BC+f3TITdsk9V0NUAiAGkooI0zgtCI7jW2XQcMLMyiL7/QoVt7UQv/82kVLKzzRihr+97Ht7DS2yE7DC9MpU43vjS30ztcu+uhQ/H0XhQMBECWG8mEJONJsdH7XLJrSKYty0qPf9KEa+qjCQ49vbTCdMvt+QdcsmqzB9yUH3fTUV42m+66lQwiAFnqoGySQkWKjyZ0zaXp3BznTYrvxW6O8d1MdbarxmUKXfZ/WOZMu0sn3uz+voy9qzfFdD0AQAD0oJnEbUzpn0qXFDspLT9GNwppKLz2wuV639sI19KMuWXRx9yxdff/kiId+X2b+E0yssCAAsZJL8nq9ctLopn7Z1DM7TXcSDT6Fpn9SpXu7Rxvsk5NGv+qXTT0M8L3WG6DLVlcb5rveDUMA9Caqc3vtM1Pp1KIMOqkgg/hHts4XoN2Nflpd6aG9TX6de1PX3CXdHXRZD4e6wjGWmvpxZYw1I1fjpxX+Z6QZ5bsRPkMAjKCqQ5vj2tvpvK5Z1CvCr9SGai89u72JDrjMEYK29hSaOSCH+NNYLFbjDRD/Qja1KMTCVpQZ+rVhV2ML/WpdbSxdhK3Dfc3sn0P9Y/S92hugOhW+b29ooVvW6+u7riCOawwCYCTdGNo+s72dphc7qGNWqqrafDP99ot6KqszduBpdFEG3dQvR2iQj7/tf1blpdJaH20J4R+/RpzaNoNGtsk45nF89hf1tK7Kqyp+NYXGFNmDj/wiA5Rb61uCPnxe4yX+38cb+z66bQadcpzv95fWEwtzohgEQJJM8a/rrf1zaHC++K9rc4tCv1xXS4fcxjwJiD42rzjsobe/dtHOBvWTezh+Fj0WDW9A0S0rPy12BAVVrS075KF32ffG+Puu1mct5SAAWujpVPfMDna6oU+2qgkz4brkT0/8CUpvY1HipxI19vEhD72wq4kqPQE1xQ0vc3v/HOJXKTXGN/6LEvmuxmc9ykAA9KAYYxtnd8ykiR0zqV+uPiPpen6Dtqfa6L4Tc2lYYfQnEv7V/su2RuJ3dxks6PvAXBpWEN13frx/WiLfzeYHATCbOFHwXfSWE3JoVNsMXXvnR9e5O5s0t8mTY/4wLI/4c1k0m7ezKTgNVhbjm/+hodF959eMl3Y3Bx/3k9kgACZnn0e/Zw/Opa4OdYN87B4PovFgGn/22+/yU4XLT/cOzA0OoLW2dd8MPs0u1T6B5tcDc2lkFHFiX3iyjllfINSm6f5BucGBuUjG6w7mbG6ggyZ9PVHrezzKQQBMpM4TT343ODe4qkyN7WhooSe2NtCeEN/7uztT6S8jCo5phlel3bpB2yeoX/TNpnM6ZUZ0b22Vlx7e0kBuv36DdWp4RCvzy37ZwVeqSPZppZce+VI+36PFZtTfIQBGkT2uXX7P/+3gPNWfouaXN9Or5c0RvfvziHwqdv7vMZ3nz/M8+lhNzWj/63ua6ZXdkf2KtX8t9XhiEk9QimSy+q4lbq11IQBaCaqoP/CbT3uzB+WqWlq6r9lPj33ZQDyhJJr9uEsWXdvb+X2x9/a56G87YhsDOPmbx2b2MZL9cWsjfVjhjuaW6X/nR35+9I9k/CQlw1Jj0+FE6RACYHBG+LH/0WF5xINT0exf+1z04q5moe/gZ7SzB6cK8zv5+wfdVB3DJzgelHxmRAEV2sO/mvBkI370l83Y92dPKQhuNBLOeFyEx0dgPyQAATDwquCL8k8n50e8OLl7HpHmd2peBRcPu6a3k87tkhW260e2NNDyw3JudvHz3k7iVX2hjEcoHpXY93jk+vg+IQAGZYE/pT08LI96R/mUxnPjZ31RLzRrTk+X+Vf/pVMLwzbJE3ve2ivnpzLeWuzFCL7L9olSz7zp1RYEQC+Sx7XDS2XPijIize/795fW0WF3/GbOzejlDO6EE8r4nZnfnWW1q3s5gwumQhmPVfCYBSwyAQiAAVfI+A724ESfSMaf+H5dWke89j2e9tqYQsoNsZmHy6/Qlf+tDq7ck9Xmj2kTcusxXhtxxX+riWOAQQBMvQZCfZ8/3gGefsq//HyhxtN4pt8TJ+WHdGHlYQ/9YYu8v/4n5KbRo8ND+87jFTxuAYtOAE8A0RkJlXh6RAF1c4af5cfz5u/bVCfFrxO/ovCrSijT8klRCFiMhXmyEk9aCmV6TYmO0bWEqgYB0DFdV/VyBnfFDWc8bfbW9bXUGOdf/qP+8UaYPwuzs48eswp1RPuDpiLtSsRPWLdrnBFppO8ytQ0B0CkbvEsOj/qHM14ie+fGOsPW7McSBg/+8SBgOHtzL89LiG1iUSz+iNS5sFsWXdEzvO9v7GmmlyWcsSgSoxllIQA6Uf77yIKwu/jwKD//IvG2UjIZL5f93ZDwosW+8iAg7zXwdbOffN9t1MGfOPnADD7w45u1TeRITQnuV8jGDzdVngAd8fiD/61w+2lLXQt5dB6QUzNzkZ+0ymp9tDeM7+w//zPbd5muAQiADtm4uLuDLo+wSSbf/KG2ldKha81NvDS6kPjYKyONFw3xoCIvv+V9AfWyl0cXRp1kpbUv9p0HFflpgudsWM0gABozyptNPj8q/ESa18qbif/JamoW0ejlOz9N8Kk/vCJPDzPTd/5cy3MiZJwOrYUlBEALvW8eeXnnmXAbe/C68198pm15rkb3olbnufT8KbCTyk1IozaoogAvduItuLQa+/7Hk/JVb6CqtT+uz59G+WnGKgYB0JDJaAN/N6+vJZ7wI7vxzc8DmGr3KdAjHr2O/+ri+Nb3UJOZ9PAzVBt3fV5HmxPo+K9IHCAAGq4SnojCE1JC2QcH3fRkAh0Uycd3zxyQGzYeDZhCVj3iDtANn9XosqkI+37ngFzd9laMFivvvnzD2lqhVZvR2ozX3yEAMZLnx35+/A9lPOJ99ac1CTloxEdjT+hgpxNy01VvXhIjwuDeBTzhSC8z0/dntzfSgv3y7Y0gyhICIErsu/KPD8+nvmF+/d/e66LnJf1+LhIu71/YIzuVujvTgp8wD7v9dPyW/XxUWesjyvgko+LsVBpWkBF1S25+PeLXJCOMfe+ZnUrdnGnff5Y83nf+IsELso6aiO+yT5RSyxQCoJZUq3J8ICav8w9nfDikFT8ZiaLi5bq8Yu/0duH35r9gZZXucwRE/QxVnr/uzOgZ2ffzV1Ql/GsABCCGqyXSxpl8OMajX2IhSmusdw7IIX48D2XXra2h/a1+hWNIh6FV7jkxl/hYtFB27ac1Cb+zMAQghsvn1TGFYc+U1/Nwjhhck7IKn3x0a5jl0byLMT9Oy2oTOmTSzSeEXnR00/rauG3kohcvCIAgSX7v5/f/UMYTXS5eZdy59oKuSlN8Wucsuq5P6Hn7V6+pkWp9xPHQjt94tfXfr1pTHdfNXPRIMARAkGKkBTSrj3jpwTLtB3MIuiR98QeG5NHQEMd08TTbn6yUWzAfHJoX8sBWq4g9BEDw9uHHQX4sDGWyT/sVDFWX4pEGTHlaLe82LKvxEeBPhtkwhTdw5ZOREt0gAIIZfGx4ftgJJw+VNdCqI9aZJiqIJmTxSJOlZJ9WG+lT7+/LGugTC+QaAiB4lc8dWUAdwsybt9IUUUEsIYtP7ZxJ1/cJPYDGi2umfyLv4z9vNc5bjocy2X0XyR0EQIQWEYXbRJObuWldLe2U5IhswbB0L56TbguukuR9A0KZzJOl8tJT6LlRBWF9l3mjFNFEQgAEiUUSADM+aRVnp9Ev+2YHX0N4Pv2TXzXQ5zU+wSiMLx5prIQ36rhmTbU0W6MdT4M/WfKny3C//td8KvduySLZhQCI0CKiSJt+GnkEFS99vbyHk/ixurXx1tc8nVamyTQ8cYYn0ISzp75qpCUH5ZxHzxOWeOJSOOMFXrzQyyoGARDM5JwheTQkxCctboZPzeUTaPU2vij5fTTc+XcyPU4P+u4g1HBnIfIyWh4rkdE4r/cPzA17jmNprY/ukdT3WHlCAATJXdPLSeeG2fmXT/S9RcfFLbzU+MqeTuLThSMZHyPOx4nH2wbzzT84l3jPwFDGTyv/91lN8NVFNhtWmE6/Gxx+f0Ses8DTlnmfQysZBEAwmzyhhSe2hLPbNtQS7/2vxcYU2Yn3vedNO9UY31StV+SpqaN3GT5k5PdD8yIegc4HoK6QcDcdHk95cEjkE5z5m3+8Dm/VO1et24MAxED3rbFtwl7osT4FtLWnBG/6szpkEq+iU2syvJPyk8rswXmUnRb+CHR+5+d3f9mMd3WaNSg34t4HvO6f1/9b0SAAMWSVdwDmnYDDGe8iyxdMtHP/ujpS6aTCDBrRJiPsuEIk93inWt7/Pp5W0t5Ot/WPfA7iphof8RZgslmkk5GO+rq+2kuzShN/xl849hCAGK5KHpF/blRhxF88bpafBnY1thzz3uhIsxFPj+XNJ7idWO0v2xpp8YHIo9E8EHdWBzttrPHp/pWAv5Vf38cZdpnv0bj4PAHeFl30kFGeP8CvFXygykHX/zbtiJVX63q89+ENfZzEr1qRrLyxhW7fWKfLtmV6+G1EGxCAGKlGOpsuxiZVVeOR6Ke3NR6zk024inx0Nm/IwbalzkcfVniC7+A8oBWrsYDxCjk+Ao0P1YhkPNh3x8ba4E0saq3PWij7znfejVer7+d2yQoeKR7N9wqXn+7YWKfrOQaiDMwoDwHQQHnmgJyIu91oaPoHVXnrKj6m678Ce+rf2DebJnU6dt4A30Bv7XXRogNuqvepvzH5E9kZ7ezBeMPN7mvtNO+IxDdQrL/eoSYSse88C2/RAVfU16vWvhz1nf0P93mydXke6Z8p2TFuel5LrduCAGggyzcC76nP7/JGGd9Ab+xx0YcV4pNPphc76KfF4ccqeAYhPxFsrfcd8xWBt9rmQUneV6+zIzV40/P/V2t889+zqU7Tlwk+94/P/wtnG6q9tOqIV3ffee9D3tRFpolVarnHUg4CEAu1VnU6ZqXSUyfnq/pVFOmKVxW+f8CtaZpvpM1LRHwRKcvv/PeX1mn+1s9zHx4aGvncQhG/1JTlg1zuL62n6hheWdS0L2MZCIAOWeH5+bedkE09skOfEaC2C36/X1vppZVHPLpNOOFDM/hTlxnG/s/ZXC884BfONz71p3eONqZq495Y7Qtu5sKTlZLJIAA6Znt8BzvxufX8VBDNeFT8q/pvT93d2dBCG2p8huwkXOxMo0eHR56gE83XaH9vblGC26BH+yoRrZ3j/84bcjwyLC/szELR9kKV5zzM3dlkqfn9IlwgACK0VJbt5uQ96dN+cN4eX2w8Iv51c4um92OVbnxfLNoUXdH2WpfnXZDn7Wwy7Ojz4YUZ9NvB4RcWafH9owoPzdvVZIjwavHLzLoQADNpx7EvfpTmkXV+ItDDeDec+eUu4vdmo42n6t58Qo5ug638OXH+nmZTRdhoRrG2DwGIlVyC1pvYMZP464DIqP7RUPn9mE/1XbDfFZebZ3KnzOAMTJGp0kd956evo763Pg0oQdOom9sQAN1QJlZDPDDIC5v4X6RBQp7JyEt4y+pa6LMqrxQn4fAXgiH53/reP8IAJ4+tfFHno7JaH62v9knhu2xXCQRAtozEyR+eHpufnkI806+xJRCcaMNn5yWC8T4JeRkp5Ej91vd6n5LU7/UiOYMAiNBCWRCwGAEIgMUSinBAQIQABECEFsqCgMUIQAAsllCEAwIiBCAAIrRQFgQsRgACYLGEIhwQECEAARChhbIgYDECEACLJRThgIAIAQiACC2UBQGLEYAAWCyhCAcERAhAAERooSwIWIwABMBiCUU4ICBCAAIgQgtlQcBiBCAAFksowgEBEQIQABFaKAsCFiMAAbBYQhEOCIgQgACI0EJZELAYAQiAxRKKcEBAhAAEQIQWyoKAxQhAACyWUIQDAiIEIAAitFAWBCxGAAJgsYQiHBAQIQABEKGFsiBgMQIQAIslFOGAgAgBCIAILZQFAYsRgABYLKEIBwRECEAARGihLAhYjAAEwGIJRTggIEIAAiBCC2VBwGIEIAAWSyjCAQERAhAAEVooCwIWIwABsFhCEQ4IiBCAAIjQQlkQsBgBCIDFEopwQECEAARAhBbKgoDFCEAALJZQhAMCIgQgACK0UBYELEYAAmCxhCIcEBAhAAEQoYWyIGAxAhAAiyUU4YCACAEIgAgtlAUBixGAAFgsoQgHBEQIQABEaKEsCFiMAATAYglFOCAgQgACIEILZUHAYgQgABZLKMIBARECEAARWigLAhYjAAGwWEIRDgiIEIAAiNBCWRCwGAEIgMUSinBAQIQABECEFsqCgMUIQAAsllCEAwIiBCAAIrRQFgQsRgACYLGEIhwQECEQdwGYsqzqZqLAEyJOoywIgIAeBGzlC0va9tDSkk1LZa479eOqGYoSmKe1HdQHARAQJvDxwpKiEuFarSpoFoApyyvPp4DythYnUBcEQCAWArYXFpa0nRFLzaN1NAvA1BWV4xW/8qEWJ1AXBEBAnIASCPxm0fj2s8Vr/q+GZgG4UFFSm5dXuUhR0rU4grogAAJiBGyUOnZBSeEqsVrHltYsANzclGWVzxMpV2pxBHVBAAQECNjIFWiuLVg8uY9HoNYPiuoiAJOXH77IFrC9ocUR1AUBEBAgYKNFC8cVTRGoEbKoLgIwZWVtAfl9m0mhTlodQn0QAIHoBBSi2YtKin4TvWTkEroIAHcxeemh2baUlFlaHUJ9EACBaAS9KcpKAAABr0lEQVRsZYEs2+jFo9rURysZ7e+6CcDEFUc6pgVoHZ4CoiHH30FAKwHlmoUl7Z7T2grX100A8BSgRzrQBghEI2BbsrCk7TnRSqn9u64CcOE/yjKa27VfRooyWq0DKAcCIKCOgI2oUQkEJi4c3361uhrRS+kqANzdpGVVXVIp8KVClB29e5QAARBQS8CWYrtiwRltX1JbXk053QWAO5229MjwQAqtV+MAyoAACKgicMfCkqJHVZUUKGSIAHD/P1pW19tP3u0CvqAoCIBACAI2ossWlBS9agQcwwSAnT17SUW7jIzUFxSiSUY4jzZBwNIEFKpWFOW8RePbrTAqTkMFIDgmsEixpziqniZFucqoINAuCFiPgG2JTUm9c8GZBZuMjM1wATjqPC8btil0l6IoI4wMCG2DQGITsJXxBjt6feePxsI0AQg+DWxX7La9h++2paScQUTjojmHv4NAkhBwE9lWKQH/J4oz7XE9Zvip5WaqALR26txlNfke8o5LJdtIstm6KQp1Ixt1I/4vDAQsS8BW/s3K2XIiW7kS8O9JSU9d6e/YZtXiPjZNq/pixfX/VxThtfOpudgAAAAASUVORK5CYII=;" vertex="1" parent="1">
          <mxGeometry x="716" y="561.75" width="60" height="60" as="geometry" />
        </mxCell>
        <mxCell id="vqLbyj1tlcazgdX1yOUi-54" value="" style="shape=image;verticalLabelPosition=bottom;labelBackgroundColor=default;verticalAlign=top;aspect=fixed;imageAspect=0;image=data:image/png,iVBORw0KGgoAAAANSUhEUgAAAQAAAAEACAYAAABccqhmAAAAAXNSR0IArs4c6QAAHrhJREFUeF7tnQd0VVXWx/dLISS0QAgQOukBAiQxhN67iYgiYsER0EEddSxjQZ0BxzaKimNvFCuCoiJdOoSQQCgJBEghhAQIpBAhQBrJ+2Y/gQ/Cq7e8d8v/rJXlcnH2Pnv/9nn/d9+9555jIBe14FXfNnW7VNWfDG6DjGTsSETX/rkoKgzragLvRA0+syj7YP9FQxMOuzoWPYxvcGaSwatWeVFN4UyDm6EPEY125tgYSx0E/h3Zj4Kb+P4xZe/a4MMj/lKqjqjVG6XTBCBkxYLbyGh8nohi1YsLkctNgAVgcqcw2l5y8tT9u5Z2zhn3eJXcY+rZv+wC0GPt140qamrfJ6Nxmp5BI3f7CFwRAO694XTB0RFtOgbaZ4leQgjIKgBhv33dpY5qfiWDoYeQ4GCjPwLXCgBnv7owL2Nc2y7d9UfCORnLJgAhK+fHUR0lOycNjKIVAvUFgPP69XjOzgkdQuK0kqOS8pBFAMJ++6JLncE9V0mJIhZ1EDAnABz54vzMDZM7hY9QRxbqiVJyAei25ssW1TVu2UTUQj0YEKlSCFgSAI7v29yDv0wJ6nabUmLVQhySCsCQTbM9Tpzv9DORMUELcJCD8wlYEwCOZn7ugQXTgyJxQ1mi0kgqAMHL5s02uBlmSRQb3OiQgC0BYCQf5aS9+2hIr6d1iEfylCUTgIg13wRcqqlJJaK2kkcJh7ohYI8AVNZeoo9z0l96OjzmNd2AkSlRyQQA3/4yVUhnbu0RAEZSWl1p/CQn/eF/dov7TGeIJE1XEgEIX/+VX21FbTq+/SWtjS6d2SsADKfgYnnth9npk97qNeBnXcKSIGlJBCBk+fypfH9GgnjgQucEHBEARpV5rqz63UMpwz/vMzZR5+gEpS+VALACTxAUAYxA4BoCjgoAm+4rK77wyM7NvXaMmZQDmI4REC0Afz7661hBRB6ODY3eIHAjASECwF6SS0+WTdm5Nixn3LRicLWfgGgBCF2+cLiR6tbbPyR6goBlAkIFgD1uKSoovHfLT0HHJz3FX0hodhAQLQCXX/NdasdY6AICNgmIEQB2/vupY7mjAzoH2RwIHUwExAsAbgBiKklIQKwAcCjLjh85cGuH4EgJw9KsK9ECELxiwRMGo3GuZgkhMacSkEIAOOAfC7KTJ3UM7evU4FU4mHgBwPJfFZZduSFLJQCc4fd5h9bd06XrKOVm6/rIIACurwEiuIaAlALAbufnHFg6PSRyIiCbJwABwMxQFAGpBYCT+zgrbd7fwno9oKhEFRIMBEAhhUAYfxKQQwCMRPRe5p45T4XHPAvO1xOAAGBGKIqAHALACZZfqqYPc9JmvhDR+z+KStjFwUAAXFwADH89AbkEgEcprLhAH2bve/D1ngO+BPc/CUAAMBMURUBOAeBEc8+frZ17MHXih3EjflVU4i4KBgLgIvAY1jwBuQWAR804V1r14r7EYcsG35qk9zpAAPQ+AxSWvzMEgFPefeb0+TsTV0QdGf+Art8ghAAo7AOg93CcJQDMObHoxJn7kld3PTr+wdN65Q4B0GvlFZq3MwWAEaw/nX/y6bQtoemj77ugUCSyhgUBkBUvnDtKwNkCwPGtPJF7JL59ULCjsWqhPwRAC1XUUA6uEADGt/R4dvrEDqE9NYTSrlQgAHZhQidnEXCVAHB+i44dTrq7c0R/Z+WqhHEgAEqoAmK4SsCVAsBBLDyasXZqYPcxeikJBEAvlVZJnq4WAMb0WU76jw+F9JykEmSiwoQAiMIHY6kJKEEAOKf3svZ9/mRY1Ayp81OaPwiA0iqi83iUIgDVdXX0TmbqWy90jXtOyyWBAGi5uirMTSkCwOjKqitpbua+517p0fctFaK0K2QIgF2Y0MlZBJQkAJxzwcVyejdz7/T3ogdr8uQrCICzZjbGsYuA0gSAg84qL6t99fCuCd/0Hr3criRU1AkCoKJi6SFUJQoAc9/3R1HVY3u3DU4cNjFFS3WAAGipmhrIRakCwGh3lBSev3fbipjc2/6apQHUphQgAFqppEbyULIAMOJNp4+X/m3f5shDY6YUagE5BEALVdRQDkoXAEa9+mTeiSdTN0Zkjp9ernb0EAC1V1Bj8atBABj5r8dzcia0DwklA/Gmw6ptEADVlk6bgatFAJj+4mOZaZM7h/dScyUgAGqungZjV5MAMP6vjh7cfn9gtwFqLQUEQK2V02jcahMALsPnOelrZoT0HKvGkkAA1Fg1DcesRgHgcnyQtXfx42HRk9VWGgiA2iqm8XjVKgBcljcPp372fETsQ2oqEQRATdXSQaxqFoCLl2pozqHU/8zu0W+mWkoFAVBLpXQSp5oFgEtUVHmR5hzc9ezbMUPmqKFkEAA1VElHMapdALhUuefP0hsZydO+7DNmgdJLBwFQeoV0Fp8WBIBLduBsae2L6dvH/zZo/EollxACoOTq6DA2rQgAly619FTV/bvWDMwYO3WXUksJAVBqZXQal5YEgEu4rfhE+QMp63pnJUw9rMSSQgCUWBUdx6Q1AeBSrjuVX/JI0u9RObc/eFxppYUAKK0iOo/n5ci+dFencM1R+O3EkeNPHtrQPXfkjLNKSg4CoKRqIBZ6IiyaHgnR5gldP+VnZ9+Rsi+CJk2qVUqpIQBKqQTiMBGY3CmM+GeAVtu3eYf2TenSNUop+UEAlFIJxGEi0LdlAH3VR9snc807ciDxgeDIgUooOQRACVVADFcJtPTypqSRqnunxuEKfpSdvurR0J43O2wosQEEQGKgcCeewObhd1Bb78biHSncw9uHU394JiL2LleGCQFwJX2MbZbAO1GDKaFdoObp1BqN9HpGyqf/iuz7sKuShQC4ijzGtUhgTEBnej9mqC4Ina2pojcPpb7+Rs8BL7oiYQiAK6hjTJsE0sZOIW93D5v9tNDhRMV5ev1gyj8+vmnEO87OBwLgbOIYzy4Cj4dG0aOhqt5v0648r3TKOldGs/en3L9owNivHDIU2RkCIBIgzOUh4NegIe0Y5dL7Y/IkZsXr3rLi2n+kb0nYOOSO1c4aHALgLNIYx2ECz0TcRA8GRTpsp2aDpOKTVVNT1g/KSvjLTmfkAQFwBmWMIYhAM08vSh51F7kbRE9TQeO7ymjj6fzyGckb+uTcOu2g3DGIJhu8bN5sg5thltyBwr8+CUwN7EYzu/bWXfKrTh4teWz3upjcW2bky5k8BEBOuvAtCQFeGsxLhPXWfi7IPj47fVeP/fH3lMmVOwRALrLwKxmBFg0a0tIBCdTOR/urA+tDW3TscNY7JVu7775pRo1kQK9xBAGQgyp8Sk6gvU9j+ix2JIU08ZXct9Idzj+asXd6YPdoOeKEAMhBFT5lIdC6oY9phWBU81ay+Fey00+y07c9EtpzkNQxQgCkJgp/shLwMLjRW1EDKb6t9t8VqA9ybtaelU+FxcRLCRgCICVN+HIagRnBPejp8BinjaeUgV7L2Lnope5xd0sVDwRAKpLw43QC0S1amR4R9vT1d/rYrhqwsraWXslI/uT1ngMekSIGCIAUFOHDpQTi2wXSnR1DKc5PH48KS6sq6NWMlNfeixn6kljwEACxBGGvGAJBjX1peOsO1M+/LUU3b00N3d0VE5vUgRy7cI5e2Z/81Ly+o+eK8Q0BEEMPtoomENKkOXVp1JQCvBuRn5c3NfLwJE+Dm6JjdjS4uzqHi/oMizLmYLEU2NGSoT8ISEcgO2GaqM+wKGMIgHSFhCcQEEIAAiCEGmxAQCMEIAAaKSTSAAEhBCAAQqjBBgQ0QgACoJFCIg0QEEIAAiCEGmxAQCMEIAAaKSTSAAEhBCAAQqjBBgQ0QgACoJFCIg0QEEIAAiCEGmxAQCMEIAAaKSTSAAEhBCAAQqjBBgQ0QgACoJFCIg0QEEIAAiCEGmxAQCMEIAAaKSTSAAEhBCAAQqjBBgQ0QgACoJFCIg0QEEIAAiCEGmxAQCMEIAAaKSTSAAEhBCAAQqjBBgQ0QgACoJFCIg0QEEIAAiCEGmxAQCMEIAAaKSTSAAEhBCAAQqjBBgQ0QgACoJFCIg0QEEIAAiCEGmxAQCMEIAAaKSTSAAEhBCAAQqjBBgQ0QgACoJFCIg0QEEIAAiCEGmxAQCMEIAAaKSTSAAEhBCAAQqjBBgQ0QgACoJFCIg0QEEIAAiCEGmxAQCMEIAAaKSTSAAEhBCAAQqjBBgQ0QgACoJFCIg0QEEIAAiCEGmwUT6CDTxMKa9qcWnn5UEsvb2rd0IdaNfQhb3cPunCphladPEprT+VRZW2t4nORM0AIgJx0de67o08T6tbMj9p4N6IFuRmy0whq7EsTO4TQ0NYdKLBxM5vjXbxUQz8WZNNnOelUUlVhs78WO0AAtFhVF+UU3rQF9W0ZQH38AijWrw019vC8GskXR/bTnEOpskQ2sk0nmh7UnaKbtxLkv7jqIt2RuJJOVpwXZK9mIwiAmqvn4thDmvhSb78A04c+zq8NNfP0shjR2Zpqil37naQR9/ZrQ89G3EQ9fP1F+11dmEd/371JtB+1OYAAqK1iLoyXL6vj/AKoj+lbvg01b9DQoWh6rP5akt/c/Nv+ha5xJuGRsg1Yv5iKKi9K6VLxviAAii+R6wLkb9aevi0pqnkr04eeb6YJbVuLT9ADKb8LNTfZNfLwpKfCY2hK5whRfiwZP757E60pzJPFt1KdQgCUWhkXxNXT159GtOlI/Vu2pe6+LSWL4MDZUnpo13pR364c29zowdTep4lkcdV39FL6dlqSnyWbfyU6hgAosSoyxtSruT95ublfHSG0SXOK9G1pumnXzruxpCOfv1RjusPOf2LawyE96cmwaEEuyi9VU2lVpekufwM3N6v3CyZtX0H7yooFjaNWIwiAWivnYNyxLdrQ+zFDyc/Lsd/tDg5DFbWXaP2pfFpdeNT0XzGNn92/Gz2YOHZ7G3/Y+fl+SkkhJZUU0tmaqutM+UYlX+Xwk4P+/m2viiFuAtpL+Pp+BmFm/28VvGzebIObYZZYP7C3TKCJRwPaOHyi1bv0Yvnxh33FyVzaeDpfkht9EU1b0Jdxo8jfzvsOmefO0MKjB2lpQbZDqUS3aEXFlRVUcLHcITutdMYVgFYqaSWP8e2CaE7UIMkzPXzuDH119CBtLiowXWZL1Qa1ak8fxAw1rdqz1fiD++bBXfT7qWO2uuLfzRCAAOhgWvCd84eCe0iaKa+i67vuB9Mlv5RtQvtgerPXQJsuefw5h3fTd3mHbPZFB8sEIAA6mB0vdYuj+7p0lTTTQ+fO0PityyT1OblTGP07sp9Nn9uLT9LzadvotM6e2dsEI6ADBEAANLWZPBgUSc9E3GR32FV1tbSr9BTV1NWZ1tWbaxtO59PDuzbY7dNWx+GtO9InscNtdaPZ+3fQ98cO2+yHDvYRgADYx0nVvXiN/m+DxlvNgZ/Vby8+QfztmlxaaOrLK+6WD7rVrB1/CPnDKEXjNfxf9R1z3ePJ+n7LqivpoV0baG9ZkRRDwsdlAhAAnUyF+vcBCisu0KaiAkq6/IE/V1N9Awl+k++XgbeYJfR+1l76MGufaHr8PsGifjdTU88GFn3xHf5pKeuIX9pBk5YABEBanor2xlcCzTwbEH/Y+Te8rcYv+HzTd6zZbi+mb6cfRa6a4wVJK4dMIH5t2FJLLD5Bj+7eRHzTD016AhAA6ZlqxuOw1h3o09gRZvN5cOc62lJ0XFSutm5Ori3Mo8d0+IaeKKgOGkMAHASmp+7W7srfsnUZ8ToAoa3L/94sXD14ArkZzK8l21NWRFN2rDbdiESTjwAEQD62qvc8s2tvmhrYzWwe0Wu+JV7rL7TxsuQxAZ3NmrOw3JW0yrR1F5q8BCAA8vJVtffPe4+gIa1ufAzIz98Hrl8sODfer2/DsIlm7f+orqJxW37R7RZdgqEKNIQACASnB7N1Q2+nTo2a3pAqPya8b8cawQieDo+hGRZWJr58IBmr+wSTddwQAuA4M11Y8OYbe8fcazbXH45l0r/2JwnmwGsS+ImEucbbhvH2YWjOIQABcA5n1Y1i7RHgaxkpppeAhLas+KlmTXkFYuSqr4W6hZ0AAhAAAdD0YMK77D4XEWs21fuT11JSyUlBGHwbeNHOUXdbtI3f8itllZcJ8g0jxwlAABxnpguL/8YMpbEW7tL3W/eD4Jt0vDfB7jH3WGR45PwfND1lnS636HbFxIIAuIK6CsZMHHGn6SSd+o231mIBENO2DJ9EAd6NrLrYc6aIMsvPUMnlfQZ4tUBjT09q5O5p2hzUx8ODvN096coqAn5XoLDyAp2quEiFFecp42wp5et0kw9HagMBcISWTvq29W5Em4dPMpstr/7jVYBi2mOhveix0CgxLuyy5f39Ps1Jo42nC+zqr8dOEAA9Vt1GzuPadqH3ooeY7fVxdhq9l7lHFDX+9uerAGe1nwqy6eX9O4hvMqJdTwACgBlxA4HZkX3p7k7hZsnw2nxeoy+2Oesq4Eqc/Jrz1JS1YsPWnD0EQHMlFZ/Q+mETLb6hN3zjT5JtoPlu1GCKbxcoPmA7PSw/kUtP791iZ299dIMA6KPOdmdp7fKct9iOXfu93b7s6cj7/fO+/85qf0vdSOuwgehV3BAAZ808lYxzT+dwmtW9r9loefffv+5cL3kmnRs1pfsDu5lOJDK39FjKAfkx49jNv0jpUtW+IACqLp/0wVt6AYhHevfwbvpU5Ck/tiL28fAkPhOgh29LMpCBcs7/QVX1dh6urqu7bmswPkAkrGkLimruTxM7hBL/v7V227bldOBsia1QdPHvEABdlNn+JNPGTrG4H79ajs7iw0OfCI8mXnRkrr1xcCctyM2wH4qGe0IANFxcR1PjI7M+vsn8zry8JVevNd866tJl/fno8K/6jDE7Pn/4WQTQiCAAmAVXCVhb/qvG7bksvXTE6wJeSEtE5QkCgElwmUBDd3faNfoei1tzz0xLdPjcPVfC5XzSx95nNoQvjuynOYdSXRmeYsbGFYBiSuHaQEYHdDadx2epxf2+iHi9vVoabzfG246Za7wWgNcEoOEKAHPgMgFe+stLgM213WdOm/boU1P7aUA89fD1Nxsyb2eGY8X+RIMrADXNapli5bMC+PLfUlPbcVy3dwihN3oOMJtOckkh3ZcsfDszmUrgMrcQAJehV87A/Njsn937WAyIV//xKkA1tBYNGhIvZW7s4YnLfzsKBgGwA5LcXQb6t6NRAZ1Mq+DcyEBpfxQ79SbVpmF3UDufxmbT/P3UMXo0daPcCCTz/1qP/nRHx1Cz/kqrKmnIhiV4K/AaOhAAyaae4474W+rj2OHUxy/gBmP+zc2/veVut7QLorejBlkc5qFd61XzPj0fMvpD/5st5vLP9CRanJ8pN1JV+YcAuLBcvOae196ba3zwJh/AKXf7fejtxGvxzTXeUWfExp/kDkES/7xL0IrBt1I7b/NXMvv/KKHbE5dLMpaWnEAAXFjNHSPvIj+vhmYjWFqQTfzsXc5m7egvHvfVjBT6WsTuv3LGfq1vfn9gXu+RFNOitcUhsdmoeTQQAGfN0nrj2NoVZ+XJo/Tkns2yRccLZTYMu4P8vbzNjsF78w9av5gq6r2II1tAAh3zh39h3Gjq1dz8Iz92y4t+ePEP2o0EIAAumhU8YZf0j7c4utw33x4N7UWPW9mXTw0fGk83N5ofN5r4DANLje+j3J20iowuqrPSh4UAuKhCPX396ccBlgUg78I5GrVpqSzR8c+ODUMnEn97mmuFFRdo8IYlsowtlVOOnVcu8hMUS+1MdSXxKcZFlRelGlZzfiAALiqpv5cPbR95p9XRFx07TLP275A8wnlxo6x+cJS+VLatd2P6LHa4aQ8AS62yttb0zY/3/q1PHwiA5B8v+x1auwl4xYvU767zoZx8OKelxvvxT05aaX8SZnr2929r2lNg/al8UX7MGd/ZMYye7xprOhvAWnskdYMs40uekIsdQgBcWICZXXvT1MBuNiOQaifehHaB9E7UYKvj8XZZvG2W0HbtsuLiqgpadjyHluRnEf+kEdOGtu5gumfRrZmfTTd8cCkfYIpmmwAEwDYj2Xq092lCq4dMsPgK7pWBeT97fiIg5hvV2mYfV8b5IGsffSBy7QF/QH8ZeMsNzHg/wY+y0kyrHO1t/KRkfLsgurV9MAU2bmaX2ZuHdtG8Iwfs6otOeBnI5XPA2iGc9YObm7mHPslOczhme8Y4dO4Mjd+6zGHf9Q1aenlT0sjJFv0UXCynVSePEp8wlF1edvUocD6GjE8k4oU8/DegVTuzKyStBSiUj+ikVewAVwAKKJ61jTjrh7e1+IRpNxt772y/1Wug6RvUWjtXU03jty2jExfPS0Ljt0HjKdzKDTpJBqnn5Pm0RPq5IFsO15r2CQFQQHn5htmifuOoqx2/b6+EywuFfszPsnhM96BW7empsGi7fPJW33yJLlW7tX0QvdXL8vsFUo3Dfli8/r5nE/HJP2iOE4AAOM5MFgu+q8178g2y8lzb3MD8rb3/bInpJFwfdw/Tqbu8xoAvxe1pcl02L+wzmvq1bGtPCIL7rC7Mo1cOJAs+qlzwwBoyhAAorJgvR/aluyycyyd1qLzOn9f7y9FY0Hi9Ab+hJ3VjsXs9I0U1bylKnb+U/iAAUtKUyJc9N+3EDvXr8SP07L6tYt1YteefNs9GxFp849HRwXmFIr8hyS9KoUlDAAIgDUfJvfBl/KzIvtTdgfsC9gbx38y99FH2Pnu7i+4X1rQ5PRMR6/DPmysDJ5cW0vd5h2mNBKcSi05GYw4gAAovKJ+e+2BQpOm4LLHtVOUFemL3ZtpTViTWlSB7PrJrWOuOppd34vwCLL4KzQuI+CUe/ttcdJyOiVxEJChYnRhBAFRSaP4tfXO7QBob0NnuG3xXUjt+sZzm5WbQ0oIs4jXySml8dFcLr4bE+/jV1NVSWU0VlVVXEZ9ChOYcAhAA53CWdBTe+IL3vR/g35aCGvua9b23rIhSz5w2PR5LKsEjMkkLoCFnEACVF7OZpxfxb2zD5Txq6uro4LlSRX3TqxyxpsOHAGi6vEgOBKwTgABghoCAjglAAHRcfKQOAhAAzAEQ0DEBCICOi4/UQQACgDkAAjomAAHQcfGROghAADAHQEDHBCAAOi4+UgcBCADmAAjomAAEQMfFR+ogAAHAHAABHROAAOi4+EgdBCAAmAMgoGMCEAAdFx+pgwAEAHMABHRMAAKg4+IjdRCAAGAOgICOCUAAdFx8pA4CEADMARDQMQEIgI6Lj9RBAAKAOQACOiYAAdBx8ZE6CEAAMAdAQMcEIAA6Lj5SBwEIAOYACOiYAARAx8VH6iAAAcAcAAEdE4AA6Lj4SB0EIACYAyCgYwIQAB0XH6mDAAQAcwAEdEwAAqDj4iN1EIAAYA6AgI4JQAB0XHykDgIQAMwBENAxAQiAjouP1EEAAoA5AAI6JgAB0HHxkToIQAAwB0BAxwQgADouPlIHAQgA5gAI6JgABEDHxUfqIAABwBwAAR0TgADouPhIHQQgAJgDIKBjAhAAHRcfqYMABABzAAR0TAACoOPiI3UQgABgDoCAjglAAHRcfKQOAhAAzAEQ0DEB1wvAigVPGIzGuTquAVIHAdcQMFBedvy0LmIGN4gxZtuQ5fOnEtF8sX5gDwIg4DCBzdkJ04Y6bHWNgXgBWLHgNjIal4oJArYgAAICCBgMC7Pjp/IXsOAmWgBCly8cbqS69YIjgCEIgIAgAsY648s546fPFmR82Ui0ANCSJe4hPucryEieYgKBLQiAgGMEDEbjwKxbpic6ZnV9b/ECwPcBVixYQEbj/WICgS0IgIAjBAwVRvfy5jnjHq9yxKp+X0kEIPi3eZMMBsNiMYHAFgRAwCECq7ITpt3skIWZzpIIQMcV3zX3MlYdIKK2YgOCPQiAgG0CRjLMzkmY+rLtntZ7SCIAPETwsnmzDW6GWWIDgj0IgIAtAoYMo7tnv5xx956z1dPWv0smABFrvgm4VFOTiqsAW8jx7yAgjoDRYHwgJ376PHFe/rSWTABwFSBFOeADBGwSWJudMG2MzV52dpBUALotmd2gxrvjJiNRPzvHRzcQAAH7CZyvM9DoI/HTkuw3cdI9gCvDBC/9or2hgfshImosVZDwAwIgwJfrxr9kJUz/WkoWkl4BXBWB5fOjDUS7pQwUvkBA1wQM9Ex2/LS3pWYgiwBwkEFrvgl2q6nJljpg+AMBvREwkvHenITp38mRt2wCYBKBn79uZfC8tNBANFaO4OETBDRO4AzV1U3IHv/AVrnylFUAOOjgVau8DHWnPyajcZpcScAvCGiQwFoDGZ/LSpieJmdusgvAleBD/nxt+HkiipUzIfgGAXUTMGQYDXVzpXrOb4uF0wTgytUA1RTONLgZBhPREFvB4d9BQBcEDFRJRInGWuN28vR6V4oVfvZyc6oAXBtU518W+DbwqB1C5B5nJGPH/+0qdO2fvfGjHwioi4CB8shIeWQw5Blr6465ublvq3NvlZgzbpyot/qEQvg/ibLfl9+SJxkAAAAASUVORK5CYII=;" vertex="1" parent="1">
          <mxGeometry x="785" y="561.75" width="60" height="60" as="geometry" />
        </mxCell>
        <mxCell id="vqLbyj1tlcazgdX1yOUi-62" style="shape=connector;rounded=1;orthogonalLoop=1;jettySize=auto;html=1;exitX=0;exitY=0.5;exitDx=0;exitDy=0;entryX=1;entryY=0.5;entryDx=0;entryDy=0;strokeColor=#E07A5F;strokeWidth=3;align=center;verticalAlign=middle;fontFamily=Helvetica;fontSize=11;fontColor=#393C56;labelBackgroundColor=default;endArrow=classicThin;endFill=1;flowAnimation=1;fillColor=#F2CC8F;" edge="1" parent="1" source="vqLbyj1tlcazgdX1yOUi-56" target="vqLbyj1tlcazgdX1yOUi-61">
          <mxGeometry relative="1" as="geometry" />
        </mxCell>
        <mxCell id="vqLbyj1tlcazgdX1yOUi-56" value="解析HTML" style="rounded=1;whiteSpace=wrap;html=1;strokeColor=#E07A5F;fontFamily=Helvetica;fontSize=15;fontColor=#393C56;labelBackgroundColor=none;fillColor=#F2CC8F;fontStyle=1" vertex="1" parent="1">
          <mxGeometry x="525" y="531" width="81" height="31" as="geometry" />
        </mxCell>
        <mxCell id="vqLbyj1tlcazgdX1yOUi-63" style="shape=connector;rounded=1;orthogonalLoop=1;jettySize=auto;html=1;exitX=0;exitY=0.5;exitDx=0;exitDy=0;strokeColor=#E07A5F;strokeWidth=3;align=center;verticalAlign=middle;fontFamily=Helvetica;fontSize=11;fontColor=#393C56;labelBackgroundColor=default;endArrow=classicThin;endFill=1;flowAnimation=1;fillColor=#F2CC8F;" edge="1" parent="1" source="vqLbyj1tlcazgdX1yOUi-60">
          <mxGeometry relative="1" as="geometry">
            <mxPoint x="495" y="575" as="targetPoint" />
          </mxGeometry>
        </mxCell>
        <mxCell id="vqLbyj1tlcazgdX1yOUi-60" value="解析CSS" style="rounded=1;whiteSpace=wrap;html=1;strokeColor=#E07A5F;fontFamily=Helvetica;fontSize=15;fontColor=#393C56;labelBackgroundColor=none;fillColor=#F2CC8F;fontStyle=1" vertex="1" parent="1">
          <mxGeometry x="525" y="595" width="81" height="31" as="geometry" />
        </mxCell>
        <mxCell id="vqLbyj1tlcazgdX1yOUi-65" style="shape=connector;rounded=1;orthogonalLoop=1;jettySize=auto;html=1;exitX=0;exitY=0.5;exitDx=0;exitDy=0;entryX=1;entryY=0.5;entryDx=0;entryDy=0;strokeColor=#E07A5F;strokeWidth=3;align=center;verticalAlign=middle;fontFamily=Helvetica;fontSize=11;fontColor=#393C56;labelBackgroundColor=default;endArrow=classicThin;endFill=1;flowAnimation=1;fillColor=#F2CC8F;" edge="1" parent="1" source="vqLbyj1tlcazgdX1yOUi-61" target="vqLbyj1tlcazgdX1yOUi-64">
          <mxGeometry relative="1" as="geometry" />
        </mxCell>
        <mxCell id="vqLbyj1tlcazgdX1yOUi-68" style="shape=connector;rounded=1;orthogonalLoop=1;jettySize=auto;html=1;exitX=0;exitY=0.75;exitDx=0;exitDy=0;strokeColor=#E07A5F;strokeWidth=3;align=center;verticalAlign=middle;fontFamily=Helvetica;fontSize=11;fontColor=#393C56;labelBackgroundColor=default;endArrow=classicThin;endFill=1;flowAnimation=1;fillColor=#F2CC8F;entryX=1;entryY=0.5;entryDx=0;entryDy=0;" edge="1" parent="1" source="vqLbyj1tlcazgdX1yOUi-61" target="vqLbyj1tlcazgdX1yOUi-66">
          <mxGeometry relative="1" as="geometry" />
        </mxCell>
        <mxCell id="vqLbyj1tlcazgdX1yOUi-61" value="分词器" style="rounded=1;whiteSpace=wrap;html=1;strokeColor=#E07A5F;fontFamily=Helvetica;fontSize=15;fontColor=#393C56;labelBackgroundColor=none;fillColor=#F2CC8F;fontStyle=1" vertex="1" parent="1">
          <mxGeometry x="413" y="564" width="81" height="31" as="geometry" />
        </mxCell>
        <mxCell id="vqLbyj1tlcazgdX1yOUi-71" style="shape=connector;rounded=1;orthogonalLoop=1;jettySize=auto;html=1;exitX=0;exitY=0.5;exitDx=0;exitDy=0;entryX=1;entryY=0.5;entryDx=0;entryDy=0;strokeColor=#E07A5F;strokeWidth=3;align=center;verticalAlign=middle;fontFamily=Helvetica;fontSize=11;fontColor=#393C56;labelBackgroundColor=default;endArrow=classicThin;endFill=1;flowAnimation=1;fillColor=#F2CC8F;" edge="1" parent="1" source="vqLbyj1tlcazgdX1yOUi-64" target="vqLbyj1tlcazgdX1yOUi-70">
          <mxGeometry relative="1" as="geometry" />
        </mxCell>
        <mxCell id="vqLbyj1tlcazgdX1yOUi-64" value="DOM Tree" style="rounded=1;whiteSpace=wrap;html=1;strokeColor=#E07A5F;fontFamily=Helvetica;fontSize=15;fontColor=#393C56;labelBackgroundColor=none;fillColor=#F2CC8F;fontStyle=1" vertex="1" parent="1">
          <mxGeometry x="310" y="531" width="81" height="31" as="geometry" />
        </mxCell>
        <mxCell id="vqLbyj1tlcazgdX1yOUi-72" style="shape=connector;rounded=1;orthogonalLoop=1;jettySize=auto;html=1;exitX=0;exitY=0.5;exitDx=0;exitDy=0;strokeColor=#E07A5F;strokeWidth=3;align=center;verticalAlign=middle;fontFamily=Helvetica;fontSize=11;fontColor=#393C56;labelBackgroundColor=default;endArrow=classicThin;endFill=1;flowAnimation=1;fillColor=#F2CC8F;" edge="1" parent="1" source="vqLbyj1tlcazgdX1yOUi-66">
          <mxGeometry relative="1" as="geometry">
            <mxPoint x="267" y="577" as="targetPoint" />
          </mxGeometry>
        </mxCell>
        <mxCell id="vqLbyj1tlcazgdX1yOUi-66" value="CSSOM Tree" style="rounded=1;whiteSpace=wrap;html=1;strokeColor=#E07A5F;fontFamily=Helvetica;fontSize=15;fontColor=#393C56;labelBackgroundColor=none;fillColor=#F2CC8F;fontStyle=1" vertex="1" parent="1">
          <mxGeometry x="310" y="595" width="81" height="31" as="geometry" />
        </mxCell>
        <mxCell id="vqLbyj1tlcazgdX1yOUi-73" style="edgeStyle=orthogonalEdgeStyle;shape=connector;rounded=1;orthogonalLoop=1;jettySize=auto;html=1;exitX=0;exitY=0.5;exitDx=0;exitDy=0;entryX=1;entryY=0.5;entryDx=0;entryDy=0;strokeColor=#E07A5F;strokeWidth=3;align=center;verticalAlign=middle;fontFamily=Helvetica;fontSize=11;fontColor=#393C56;labelBackgroundColor=default;endArrow=classicThin;endFill=1;flowAnimation=1;fillColor=#F2CC8F;" edge="1" parent="1" source="vqLbyj1tlcazgdX1yOUi-70" target="vqLbyj1tlcazgdX1yOUi-50">
          <mxGeometry relative="1" as="geometry">
            <Array as="points">
              <mxPoint x="143" y="580" />
              <mxPoint x="143" y="555" />
              <mxPoint x="187" y="555" />
              <mxPoint x="187" y="511" />
            </Array>
          </mxGeometry>
        </mxCell>
        <mxCell id="vqLbyj1tlcazgdX1yOUi-70" value="页面渲染绘制" style="rounded=1;whiteSpace=wrap;html=1;strokeColor=#E07A5F;fontFamily=Helvetica;fontSize=15;fontColor=#393C56;labelBackgroundColor=none;fillColor=#F2CC8F;fontStyle=1" vertex="1" parent="1">
          <mxGeometry x="163" y="564" width="104" height="31" as="geometry" />
        </mxCell>
        <mxCell id="vqLbyj1tlcazgdX1yOUi-75" style="edgeStyle=orthogonalEdgeStyle;shape=connector;rounded=1;orthogonalLoop=1;jettySize=auto;html=1;exitX=0;exitY=0.5;exitDx=0;exitDy=0;entryX=0.5;entryY=0;entryDx=0;entryDy=0;strokeColor=#E07A5F;strokeWidth=3;align=center;verticalAlign=middle;fontFamily=Helvetica;fontSize=11;fontColor=#393C56;labelBackgroundColor=default;endArrow=classicThin;endFill=1;flowAnimation=1;fillColor=#F2CC8F;" edge="1" parent="1" source="vqLbyj1tlcazgdX1yOUi-74" target="vqLbyj1tlcazgdX1yOUi-64">
          <mxGeometry relative="1" as="geometry" />
        </mxCell>
        <mxCell id="vqLbyj1tlcazgdX1yOUi-74" value="Javascript" style="rounded=1;whiteSpace=wrap;html=1;strokeColor=#E07A5F;fontFamily=Helvetica;fontSize=15;fontColor=#393C56;labelBackgroundColor=none;fillColor=#F2CC8F;fontStyle=1" vertex="1" parent="1">
          <mxGeometry x="420" y="510" width="81" height="31" as="geometry" />
        </mxCell>
      </root>
    </mxGraphModel>
  </diagram>
</mxfile>
